<ttFont>
          <CharString index="0">
            rmoveto
            -25 31 -18 23 31 21 19 32 23 -14 21 -26 -29 -37 -19 -33 vhcurveto
            202 hmoveto
            -25 30 -18 23 31 22 19 32 23 -15 21 -25 -30 -36 -19 -33 vhcurveto
            endchar
          </CharString>
          <CharString index="1">
            -30 -22 -29 -74 hhcurveto
            87 3 63 8 87 vhcurveto
            7 143 72 -6 12 hhcurveto
            13 5 7 46 26 hvcurveto
            0 1 3 3 vvcurveto
            11 -10 8 -9 -9 -6 -9 -5 -11 vhcurveto
            -19 -48 -52 1 -51 -70 -70 8 -69 -35 -41 -1 -44 hhcurveto
            -25 -7 -11 -31 -10 1 1 52 15 23 0 1 5 hvcurveto
            9 -72 -4 -26 -70 -12 -1 -52 -10 vvcurveto
            -9 -19 -30 22 -29 vvcurveto
            -29 29 12 10 -20 vhcurveto
            -95 11 -85 -96 vvcurveto
            -28 -24 2 -33 hhcurveto
            -11 -4 -3 -9 -7 vvcurveto
            -20 34 0 75 vhcurveto
            return
          </CharString>
          <CharString index="2">
            360 -29 rmoveto
            221 158 147 245 150 -76 183 -285 -82 -71 -28 -44 -49 hvcurveto
            -97 -87 -39 -147 -114 vvcurveto
            -154 140 -151 180 vhcurveto
            -120 317 rmoveto
            117 31 248 128 122 33 -244 -87 -106 -29 -29 -29 -113 vhcurveto
            -57 -16 -59 -12 -57 hhcurveto
            -10 -14 1 7 -3 hvcurveto
            -56 80 -41 108 87 vvcurveto
            return
          </CharString>
          <CharString index="3">
            -66 29 -4 -5 -398 hvcurveto
            -12 -6 -26 -8 -4 0 -7 7 hvcurveto
            136 hlineto
            3 4 -7 -2 hvcurveto
            -3 vlineto
            -81 23 callsubr
            -3 -8 -5 6 callgsubr
            5 callsubr
            31 -45 -37 5 -50 hhcurveto
            -74 -58 -63 -78 -50 30 -27 52 30 38 37 31 19 -9 29 -23 -10 -5 -1 -12 -4 hvcurveto
            -24 vlineto
            return
          </CharString>
          <CharString index="4">
            5 6 1 4 7 vvcurveto
            8 -2 7 -10 1 vhcurveto
            -54 14 -102 295 rlineto
            6 6 5 6 vhcurveto
            91 12 rlineto
            15 1 14 9 16 vvcurveto
            10 -6 9 -11 vhcurveto
            -45 -39 -19 -43 hhcurveto
            -11 -2 5 14 -3 hvcurveto
            -73 217 rlineto
            91 hlineto
            8 2 18 5 12 -6 14 -10 hvcurveto
            return
          </CharString>
          <CharString index="5">
            -83 callsubr
            50 -20 107 -20 hstemhm
            -2 40 hintmask 0011011011100000
            38 18 rmoveto
            hintmask 0101011011100000
            -104 callgsubr
            hintmask 1001011011100000
            -23 callgsubr
            hintmask 0011011011100000
            -66 callsubr
            hintmask 1001010111100000
            -103 callsubr
            hintmask 0100111011100000
            -104 callsubr
            hintmask 0011011011100000
            -107 callgsubr
            return
          </CharString>
          <CharString index="6">
            -20 hstemhm
            19 -62 callgsubr
            hintmask 0110011010000000
            19 -79 callsubr
            hintmask 1010011010000000
            -89 callsubr
            hintmask 1001010101000000
            -100 callsubr
            hintmask 1000111010000000
            -88 callgsubr
            hintmask 1010011010000000
            -85 callgsubr
            return
          </CharString>
          <CharString index="7">
            49 14 35 36 vvcurveto
            40 -9 61 -40 36 vhcurveto
            36 -40 -66 10 -45 hhcurveto
            -50 -30 -21 -31 -41 hvcurveto
            -22 -17 -42 -64 -28 vvcurveto
            -12 6 -19 12 vhcurveto
            12 39 18 25 hhcurveto
            23 36 0 27 hvcurveto
            14 -9 2 14 vvcurveto
            return
          </CharString>
          <CharString index="8">
            -70 callgsubr
            -98 callsubr
            return
          </CharString>
          <CharString index="9">
            77 33 41 67 74 13 callgsubr
            -79 158 -135 -132 -173 -86 -130 -46 0 -43 26 -39 vhcurveto
            166 97 rmoveto
            73 16 125 93 25 21 -81 -50 -82 -1 -144 -93 -49 -12 109 50 vhcurveto
            return
          </CharString>
          <CharString index="10">
            rmoveto
            -15 8 11 1 16 hhcurveto
            17 35 6 50 118 hvcurveto
            -79 callgsubr
            return
          </CharString>
          <CharString index="11">
            hstem
            31 192 155 172 vstem
            57 -99 callsubr
            return
          </CharString>
          <CharString index="12">
            -30 callsubr
            hintmask 10011010
            -98 callgsubr
            return
          </CharString>
          <CharString index="13">
            -77 callgsubr
            201 -101 callsubr
            return
          </CharString>
          <CharString index="14">
            -92 callsubr
            -71 callsubr
            return
          </CharString>
          <CharString index="15">
            -4 1 -20 -31 vvcurveto
            -120 -21 -273 -217 -10 -25 0 7 -1 vhcurveto
            -38 252 rlineto
            19 vlineto
            30 2 28 0 32 vvcurveto
            7 -1 9 -10 vhcurveto
            -16 -16 -5 -18 hhcurveto
            26 -3 142 25 vvcurveto
            return
          </CharString>
          <CharString index="16">
            232 9 rmoveto
            -28 26 98 -13 41 hhcurveto
            8 90 24 8 11 hvcurveto
            140 100 16 118 249 vvcurveto
            68 -5 44 -9 79 vhcurveto
            13 -11 13 -9 -16 -13 -7 -18 vhcurveto
            -67 25 -65 -67 vvcurveto
            return
          </CharString>
          <CharString index="17">
            34 -19 105 68 hhcurveto
            -49 -5 -49 -49 vvcurveto
            1 -8 5 -54 -7 vvcurveto
            -6 -13 -58 -2 -6 vhcurveto
            -16 -5 -5 -8 -4 -18 29 -13 rcurveline
            45 -231 -11 30 79 -86 rrcurveto
            return
          </CharString>
          <CharString index="18">
            -14 24 12 -5 39 hhcurveto
            57 34 45 20 12 -5 9 -16 hvcurveto
            -7 -7 -8 -8 hhcurveto
            -29 -26 64 39 hvcurveto
            return
          </CharString>
          <CharString index="19">
            -24 callsubr
            261 -99 callgsubr
            return
          </CharString>
          <CharString index="20">
            -69 callgsubr
            -82 callsubr
            -25 41 -61 91 -39 18 rrcurveto
            -78 callgsubr
            return
          </CharString>
          <CharString index="21">
            -4 -1 -50 -1 -27 -2 -82 -10 rcurveline
            -32 -3 0 -39 -10 vvcurveto
            94 8 rlineto
            7 17 -182 -152 -72 -2 -47 -7 -29 hvcurveto
            -12 22 -87 171 -9 24 rrcurveto
            -2 0 5 5 hvcurveto
            31 27 8 19 vvcurveto
            4 -1 13 -2 5 vhcurveto
            -23 -23 -28 8 -5 -5 rrcurveto
            -26 35 -85 125 23 17 42 3 21 vvcurveto
            22 -41 3 -45 -7 -177 -9 -10 -121 vhcurveto
            1 -10 2 -34 20 -3 rrcurveto
            -3 16 26 -3 16 hhcurveto
            2 -16 0 -16 -15 vvcurveto
            -126 -13 -227 -21 -130 vhcurveto
            -11 -32 -45 19 -34 vvcurveto
            return
          </CharString>
          <CharString index="22">
            vhcurveto
            -21 -8 -92 -15 -27 vvcurveto
            -49 69 46 31 -47 vhcurveto
            16 -69 4 -68 -70 -7 -1 -35 -9 vvcurveto
            return
          </CharString>
          <CharString index="23">
            -42 callsubr
            119 -20 -93 callgsubr
            return
          </CharString>
          <CharString index="24">
            13 -21 24 -2 callsubr
            209 46 -46 116 57 45 194 45 9 -20 return
          </CharString>
          <CharString index="25">
            1 -22 18 -3 vhcurveto
            -194 -12 rlineto
            -5 -1 -7 -17 -1 vvcurveto
            -19 28 -2 14 vhcurveto
            17 19 5 21 hhcurveto
            -2 1 -12 -1 vvcurveto
            -36 -155 -28 -83 -5 -12 rrcurveto
            -6 hlineto
            -5 10 -20 35 -7 10 -62 101 rcurveline
            return
          </CharString>
          <CharString index="26">
            -75 -29 -4 -74 hhcurveto
            -12 -11 1 1 -12 hvcurveto
            -99 -5 rlineto
            -8 -4 1 -5 -8 vvcurveto
            -13 11 -14 14 vhcurveto
            return
          </CharString>
          <CharString index="27">
            -41 48 -77 86 66 62 29 53 44 vhcurveto
            3 -1 36 -40 11 -7 rrcurveto
            return
          </CharString>
          <CharString index="28">
            71 rmoveto
            -80 callsubr
            return
          </CharString>
          <CharString index="29">
            32 25 87 99 60 99 -52 42 hhcurveto
            61 83 26 68 12 hvcurveto
            return
          </CharString>
          <CharString index="30">
            1 -4 0 -4 -7 -30 -2 -53 -25 -41 -2 -45 -54 vvcurveto
            -12 -25 -87 39 -38 vvcurveto
            return
          </CharString>
          <CharString index="31">
            45 -27 rmoveto
            -11 6 3 -2 11 hhcurveto
            6 7 0 7 1 hvcurveto
            14 68 rlineto
            3 7 4 3 1 1 23 callgsubr
            -59 45 80 -22 74 hhcurveto
            153 106 97 114 97 -40 43 -90 63 hvcurveto
            4 10 17 28 8 vvcurveto
            9 -7 9 -10 -9 -30 -47 -6 -6 vhcurveto
            -186 64 -52 55 39 vvcurveto
            69 71 19 61 vhcurveto
            return
          </CharString>
          <CharString index="32">
            31 1 69 73 vvcurveto
            5 11 1 10 11 vvcurveto
            27 -3 4 -16 -58 return
          </CharString>
          <CharString index="33">
            rlinecurve
            -2 -6 -28 callgsubr
            -129 return
          </CharString>
          <CharString index="34">
            -37 38 -5 -31 vvcurveto
            -167 vlineto
            -70 58 -94 95 59 105 51 57 14 vhcurveto
            return
          </CharString>
          <CharString index="35">
            161 -2 rlineto
            9 4 12 9 39 -66 -20 -10 13 hvcurveto
            -5 7 -1 33 26 120 19 165 103 vvcurveto
            2 0 33 5 8 vhcurveto
            40 -46 81 -131 -47 vvcurveto
            -23 -18 -3 -9 -20 vhcurveto
            -2 -6 -1 -15 0 vvcurveto
            64 5 123 -210 rlineto
            -1 -2 -1 -4 -9 vvcurveto
            return
          </CharString>
          <CharString index="36">
            30 9 54 4 9 vhcurveto
            19 4 63 12 34 vvcurveto
            11 -14 2 -9 vhcurveto
            return
          </CharString>
          <CharString index="37">
            -72 callgsubr
            hhcurveto
            return
          </CharString>
          <CharString index="38">
            0 2 -50 callgsubr
            return
          </CharString>
          <CharString index="39">
            -61 callsubr
            -35 callgsubr
            -51 callgsubr
          </CharString>
          <CharString index="40">
            -64 callgsubr
            54 -20 107 11 callsubr
            hintmask 0110100111000000
            -49 callgsubr
            hintmask 1010100111000000
            -57 callgsubr
            return
          </CharString>
          <CharString index="41">
            68 56 5 65 hhcurveto
            8 7 0 -1 9 hvcurveto
            return
          </CharString>
          <CharString index="42">
            -75 callgsubr
            -50 callsubr
            return
          </CharString>
          <CharString index="43">
            195 -21 348 -20 hstem
            73 515 rmoveto
            6 -4 -8 1 -6 hhcurveto
            -4 -15 -1 -6 hvcurveto
            -31 vlineto
            125 -143 rlineto
            4 -4 2 -9 -5 vvcurveto
            -69 -105 rlineto
            -14 -32 callgsubr
            return
          </CharString>
          <CharString index="44">
            195 -21 348 -20 hstem
            12 336 -24 callgsubr
            -15 10 vhcurveto
            -68 105 rlineto
            5 1 9 5 4 vhcurveto
            124 143 rlineto
            31 vlineto
            6 -14 1 -5 -6 -7 -1 -6 -5 vhcurveto
            return
          </CharString>
          <CharString index="45">
            -124 -55 callgsubr
            51 -45 callsubr
            -47 -43 callsubr
          </CharString>
          <CharString index="46">
            rmoveto
            -9 2 -13 5 -7 vhcurveto
            56 -59 callgsubr
            return
          </CharString>
          <CharString index="47">
            -32 37 -23 30 -40 callsubr
            -36 -45 -25 -39 vhcurveto
            return
          </CharString>
          <CharString index="48">
            -36 -56 -43 -18 -62 hhcurveto
            -6 1 -23 7 2 vvcurveto
            1 7 126 190 34 46 10 13 50 58 11 12 rrcurveto
            6 1 6 -1 vvcurveto
            28 -27 3 -16 1 vhcurveto
            -84 3 -153 2 -98 3 rrcurveto
            return
          </CharString>
          <CharString index="49">
            107 -32 44 509 163 -58 58 -8 -20 27 -20 return
          </CharString>
          <CharString index="50">
            vstem
            160 516 rmoveto
            -36 callgsubr
            3 16 40 5 vvcurveto
            33 -37 21 -29 -43 -22 -30 -45 -13 2 -15 6 -8 vhcurveto
            -31 27 60 -63 48 hhcurveto
            return
          </CharString>
          <CharString index="51">
            -19 13 -25 21 -6 rrcurveto
            hintmask 10111010
            -71 callgsubr
            return
          </CharString>
          <CharString index="52">
            -235 -54 callgsubr
            return
          </CharString>
          <CharString index="53">
            1 9 -1 2 hhcurveto
            20 19 3 23 return
          </CharString>
          <CharString index="54">
            13 vhcurveto
            235 hlineto
            63 13 rlineto
            -25 callsubr
            -48 hlineto
            0 -2 33 22 vvcurveto
            2 2 42 4 4 vhcurveto
            12 6 186 return
          </CharString>
          <CharString index="55">
            -1 29 -10 115 -2 257 rrcurveto
            16 vlineto
            15 6 97 2 20 vhcurveto
            28 17 14 2 25 9 13 1 rlinecurve
            -2 23 rlineto
            4 -1 -16 5 -21 hhcurveto
            return
          </CharString>
          <CharString index="56">
            -20 -40 callgsubr
            135 165 return
          </CharString>
          <CharString index="57">
            -31 49 44 -62 vvcurveto
            -64 -50 -49 -17 -58 vhcurveto
            -4 vlineto
            -9 6 -19 -6 vvcurveto
            return
          </CharString>
          <CharString index="58">
            -37 -35 7 -36 hhcurveto
            -84 -88 -35 -97 hvcurveto
            return
          </CharString>
          <CharString index="59">
            168 hintmask 10011100
            -47 callgsubr
            return
          </CharString>
          <CharString index="60">
            30 -44 -28 -37 -21 -33 -5 15 return
          </CharString>
          <CharString index="61">
            103 96 30 96 hhcurveto
            16 67 -8 -17 55 hvcurveto
            -7 7 5 0 7 hhcurveto
            21 -1 27 19 4 hvcurveto
            12 32 14 59 6 vvcurveto
            return
          </CharString>
          <CharString index="62">
            0 8 119 vhcurveto
            16 9 10 15 17 -15 2 -19 hvcurveto
            -48 return
          </CharString>
          <CharString index="63">
            -8 21 -21 11 vhcurveto
            86 -120 -75 hlineto
            -10 -2 -14 -8 hvcurveto
            274 448 rmoveto
            33 69 5 -25 27 hvcurveto
            68 return
          </CharString>
          <CharString index="64">
            -6 -49 -64 -58 -42 callgsubr
          </CharString>
          <CharString index="65">
            146 -29 34 648 43 return
          </CharString>
          <CharString index="66">
            13 13 rlineto
            3 3 27 0 hvcurveto
            return
          </CharString>
          <CharString index="67">
            37 27 25 37 30 -18 27 -32 return
          </CharString>
          <CharString index="68">
            rmoveto
            -14 6 -11 16 vhcurveto
            return
          </CharString>
          <CharString index="69">
            41 64 50 5 74 hhcurveto
            -51 -51 -28 -78 -40 -63 -5 -6 -34 -42 -5 -5 -32 -37 -63 -58 -2 -36 rrcurveto
            return
          </CharString>
          <CharString index="70">
            -2 7 7 -1 7 hhcurveto
            54 37 47 52 19 -10 9 -19 -12 -2 -5 -7 hvcurveto
            -7 2 -9 -9 vvcurveto
            return
          </CharString>
          <CharString index="71">
            -25 vlineto
            11 -22 57 4 -38 vvcurveto
            -27 -21 -42 -32 vhcurveto
            return
          </CharString>
          <CharString index="72">
            -52 -56 -2 -18 hhcurveto
            -73 -4 -124 -17 -95 -101 273 -109 -74 vvcurveto
            -32 -37 -5 -30 vhcurveto
            return
          </CharString>
          <CharString index="73">
            -40 30 -15 95 -44 1 rrcurveto
            -11 -8 -3 -11 -4 hvcurveto
            -6 -62 -2 -25 -53 -6 1 -28 -6 vvcurveto
            return
          </CharString>
          <CharString index="74">
            -36 -37 -44 -25 -56 hhcurveto
            -46 -44 87 79 48 0 69 50 66 hvcurveto
            11 8 13 8 14 hhcurveto
            return
          </CharString>
          <CharString index="75">
            40 200 314 185 return
          </CharString>
          <CharString index="76">
            -14 -27 -67 35 -50 vvcurveto
            return
          </CharString>
          <CharString index="77">
            44 49 -1 -12 39 hvcurveto
            return
          </CharString>
          <CharString index="78">
            -22 -8 25 -22 hhcurveto
            -4 -2 -7 -1 hvcurveto
            endchar
          </CharString>
          <CharString index="79">
            1 -18 -19 8 -18 hhcurveto
            -21 -31 -72 -47 -16 11 -14 13 18 12 23 10 15 hvcurveto
            return
          </CharString>
          <CharString index="80">
            -57 callgsubr
            rlineto
            10 3 3 8 0 vvcurveto
            return
          </CharString>
          <CharString index="81">
            -64 75 108 41 60 102 23 vhcurveto
            1 2 1 15 5 vvcurveto
            99 -86 23 -79 -84 return
          </CharString>
          <CharString index="82">
            9 2 -3 22 0 vvcurveto
            6 -1 10 -5 vhcurveto
            return
          </CharString>
          <CharString index="83">
            11 -21 81 -72 -21 463 -20 return
          </CharString>
          <CharString index="84">
            -40 hhcurveto
            -63 76 18 46 -6 vhcurveto
            10 -2 2 -147 -31 -13 2 -11 -8 vvcurveto
            return
          </CharString>
          <CharString index="85">
            423 -22 callgsubr
            50 -20 248 -20 hstemhm
            34 168 -142 142 return
          </CharString>
          <CharString index="86">
            -20 hstemhm
            140 202 -202 245 -223 180 211 137 return
          </CharString>
          <CharString index="87">
            -103 -14 147 -43 hhcurveto
            -30 0 -30 -22 -8 hvcurveto
            -11 -34 -31 -14 -34 vvcurveto
            return
          </CharString>
          <CharString index="88">
            -19 -271 58 -58 225 417 38 return
          </CharString>
          <CharString index="89">
            5 -1 7 -6 2 vhcurveto
            return
          </CharString>
          <CharString index="90">
            1 4 1 vvcurveto
            return
          </CharString>
          <CharString index="91">
            -177 -64 callgsubr
            return
          </CharString>
          <CharString index="92">
            -16 11 -14 17 vhcurveto
            return
          </CharString>
          <CharString index="93">
            -3 1 -21 23 31 -25 -21 24 -21 363 90 -19 -20 25 -20 return
          </CharString>
          <CharString index="94">
            1 1 2 return
          </CharString>
          <CharString index="95">
            -54 -22 167 -148 -21 32 43 247 149 -70 53 return
          </CharString>
          <CharString index="96">
            vhcurveto
            20 -58 -61 20 -61 hhcurveto
            -14 -15 -1 -2 -14 hvcurveto
            -7 return
          </CharString>
          <CharString index="97">
            -62 26 -58 -64 vvcurveto
            -7 0 -3 return
          </CharString>
          <CharString index="98">
            hstemhm
            129 178 return
          </CharString>
          <CharString index="99">
            21 -11 13 -25 vhcurveto
            return
          </CharString>
          <CharString index="100">
            -3 callsubr
            hstemhm
            return
          </CharString>
          <CharString index="101">
            -60 rlineto
            0 return
          </CharString>
          <CharString index="102">
            -50 -16 -15 0 1 -6 vhcurveto
            -6 -2 -13 -5 -8 vvcurveto
            return
          </CharString>
          <CharString index="103">
            96 44 -93 31 hhcurveto
            12 21 11 13 hvcurveto
            114 vlineto
            return
          </CharString>
          <CharString index="104">
            -20 21 -20 return
          </CharString>
          <CharString index="105">
            -21 23 -21 return
          </CharString>
          <CharString index="106">
            -4 -9 -16 vhcurveto
            -53 -47 -22 -51 -69 -7 1 -30 return
          </CharString>
          <CharString index="107">
            2 -2 callgsubr
            return
          </CharString>
          <CharString index="108">
            103 37 37 38 115 65 250 -151 return
          </CharString>
          <CharString index="109">
            2 -25 16 -11 vhcurveto
            -14 -18 -23 -13 -37 hhcurveto
            return
          </CharString>
          <CharString index="110">
            -40 -31 11 -40 hhcurveto
            -167 -83 -110 -107 return
          </CharString>
          <CharString index="111">
            516 205 hstem
            return
          </CharString>
          <CharString index="112">
            1 0 vhcurveto
            return
          </CharString>
          <CharString index="113">
            21 -3 26 -28 -17 -19 -11 -14 -8 vhcurveto
            return
          </CharString>
          <CharString index="114">
            -3 -8 -1 -1 hhcurveto
            -53 -63 rlineto
            -8 hlineto
            return
          </CharString>
          <CharString index="115">
            22 -1 4 -19 -26 -17 -25 -15 -22 vhcurveto
            return
          </CharString>
          <CharString index="116">
            hvcurveto
            50 93 rlineto
            74 vlineto
            return
          </CharString>
          <CharString index="117">
            1 3 0 vhcurveto
            return
          </CharString>
          <CharString index="118">
            -20 hstemhm
            99 -18 callgsubr
            return
          </CharString>
          <CharString index="119">
            -112 -127 -18 -85 vhcurveto
            82 8 return
          </CharString>
          <CharString index="120">
            -34 vvcurveto
            endchar
          </CharString>
          <CharString index="121">
            -15 0 12 -17 hhcurveto
            -24 14 -7 return
          </CharString>
          <CharString index="122">
            -234 21 -21 696 -20 hstem
            return
          </CharString>
          <CharString index="123">
            15 vvcurveto
            32 2 26 4 33 vhcurveto
            return
          </CharString>
          <CharString index="124">
            hstemhm
            19 -39 callgsubr
            return
          </CharString>
          <CharString index="125">
            -1 -57 -9 -12 -2 rlinecurve
            -12 -3 return
          </CharString>
          <CharString index="126">
            33 -37 5 -23 vhcurveto
            return
          </CharString>
          <CharString index="127">
            13 -9 10 -13 vhcurveto
            return
          </CharString>
          <CharString index="128">
            0 -1 -4 -2 vvcurveto
            return
          </CharString>
          <CharString index="129">
            2 1 9 return
          </CharString>
          <CharString index="130">
            -211 rlineto
            return
          </CharString>
        <CharString name=".notdef">
          -634 endchar
        </CharString>
        <CharString name="A">
          -83 callsubr
          hstemhm
          -2 40 hintmask 0011011010000000
          38 18 rmoveto
          hintmask 0101011010000000
          -104 callgsubr
          hintmask 1001011010000000
          -23 callgsubr
          hintmask 0011011010000000
          -66 callsubr
          hintmask 1001010110000000
          -103 callsubr
          hintmask 0100111010000000
          -104 callsubr
          hintmask 0011011010000000
          -107 callgsubr
          endchar
        </CharString>
        <CharString name="AE">
          272 -3 46 -22 -21 429 -3 callsubr
          190 45 -23 39 7 -20 hstemhm
          431 172 hintmask 01101011
          416 21 rmoveto
          hintmask 10101011
          -9 2 -15 12 vhcurveto
          399 hlineto
          1 10 24 8 3 hvcurveto
          3 9 10 33 5 vvcurveto
          2 9 3 48 8 vvcurveto
          -54 18 -77 -20 -35 hvcurveto
          -9 -43 -1 -8 hhcurveto
          -59 -42 -15 78 -12 hvcurveto
          -2 3 3 25 -1 3 -2 9 -11 105 -1 8 rrcurveto
          18 vlineto
          20 8 9 17 vhcurveto
          20 12 -17 17 hhcurveto
          6 hlineto
          3 6 9 32 1 10 rrcurveto
          2 6 2 38 6 vvcurveto
          -39 -19 -33 -39 hhcurveto
          246 160 vlineto
          1 19 -23 -8 7 hvcurveto
          3 -6 19 -37 4 -4 rrcurveto
          -1 1 10 -1 2 hhcurveto
          2 10 -13 callsubr
          hvcurveto
          8 10 27 55 5 13 rrcurveto
          hintmask 10100101
          1 2 15 6 vvcurveto
          15 -2 24 -20 vhcurveto
          hintmask 10101011
          -53 -54 -16 -53 hhcurveto
          -33 hlineto
          hintmask 10100101
          1 -9 -64 15 -7 hhcurveto
          hintmask 10101011
          2 -41 -187 5 -39 hhcurveto
          hintmask 10100101
          -46 80 vlineto
          -17 -29 -84 -135 -19 -29 rrcurveto
          -5 -3 -9 -10 -1 -6 -42 15 -6 hhcurveto
          hintmask 01011011
          -1 -23 1 -10 hhcurveto
          -26 -45 1 -33 -14 hvcurveto
          -2 9 -12 4 -1 vhcurveto
          7 -1 53 2 7 -1 rrcurveto
          16 -2 36 -11 -2 vvcurveto
          -15 vlineto
          -4 -74 -109 -32 -43 vhcurveto
          -32 -43 -56 -107 -48 -17 rrcurveto
          0 -1 -4 -3 vvcurveto
          -8 4 -15 10 vhcurveto
          137 hlineto
          26 -26 14 -17 7 vhcurveto
          17 29 114 203 19 27 rrcurveto
          13 7 10 19 16 20 callgsubr
          67 -78 rlineto
          1 7 -1 3 hhcurveto
          26 21 15 16 22 hvcurveto
          -10 1 -99 -12 -20 -1 -55 -2 vvcurveto
          -13 -62 rlineto
          0 -1 -7 -1 vvcurveto
          -107 369 rmoveto
          1 1 6 1 vvcurveto
          2 6 18 33 6 8 6 7 56 76 19 26 rrcurveto
          12 9 3 6 16 hhcurveto
          -7 -1 -36 -7 vvcurveto
          -3 -26 -8 -119 -3 -24 -7 -9 -37 -22 -10 -1 rrcurveto
          -19 -4 -48 63 10 vvcurveto
          520 217 rmoveto
          7 0 -16 -7 -6 0 16 6 hhcurveto
          endchar
        </CharString>
        <CharString name="Aacute">
          -102 callsubr
          -20 388 -106 callgsubr
        </CharString>
        <CharString name="Acircumflex">
          -83 callsubr
          41 -15 callgsubr
          -2 40 hintmask 0011011001110000
          38 18 rmoveto
          hintmask 0101011001110000
          -104 callgsubr
          hintmask 1001011001110000
          -23 callgsubr
          hintmask 0011011001110000
          -66 callsubr
          hintmask 1001010101110000
          -103 callsubr
          hintmask 0100111001110000
          -104 callsubr
          hintmask 0011011001110000
          -107 callgsubr
          -180 377 -97 callsubr
          hintmask 0101011010110000
          -103 callgsubr
        </CharString>
        <CharString name="Adieresis">
          -83 callsubr
          71 95 hstemhm
          -2 40 292 106 96 106 hintmask 0011011011110000
          38 18 rmoveto
          hintmask 0101011011110000
          -104 callgsubr
          hintmask 1001011011110000
          -23 callgsubr
          hintmask 0011011011110000
          -66 callsubr
          hintmask 1001010111110000
          -103 callsubr
          hintmask 0100111011110000
          -104 callsubr
          hintmask 0011011011110000
          -107 callgsubr
          -108 434 -107 callsubr
        </CharString>
        <CharString name="Agrave">
          -102 callsubr
          85 388 -102 callgsubr
        </CharString>
        <CharString name="Aring">
          -83 callsubr
          84 45 93 44 hstemhm
          -2 40 -40 150 180 43 101 43 hintmask 0011011011101100
          38 18 rmoveto
          hintmask 0101011011101100
          -104 callgsubr
          hintmask 1001011011101100
          -23 callgsubr
          hintmask 0011011011101100
          -66 callsubr
          hintmask 1001010111101100
          -103 callsubr
          hintmask 0100111011011100
          -104 callsubr
          hintmask 0011011011101100
          -107 callgsubr
          -110 508 -68 callsubr
        </CharString>
        <CharString name="Atilde">
          -83 callsubr
          47 -56 callgsubr
          -2 40 hintmask 0011011010001000
          38 18 rmoveto
          hintmask 0101011010001000
          -104 callgsubr
          hintmask 1001011010001000
          -23 callgsubr
          hintmask 0011011010001000
          -66 callsubr
          hintmask 1001010110001000
          -103 callsubr
          hintmask 0100111010001000
          -104 callsubr
          hintmask 0011011010001000
          -107 callgsubr
          -257 392 -39 callsubr
          hintmask 0101011001101000
          -78 callsubr
          hintmask 0101011001011000
          -70 callsubr
          hintmask 0101011010001000
          -82 callgsubr
        </CharString>
        <CharString name="B">
          87 -35 49 -47 -21 54 -21 502 200 -81 81 -61 61 hstemhm
          136 249 -205 205 200 50 10 44 hintmask 0111001011000000
          55 -25 rmoveto
          -16 5 -13 18 vhcurveto
          28 23 33 32 hhcurveto
          hintmask 1001001011000000
          17 6 -14 14 hhcurveto
          hintmask 0111001011000000
          10 4 3 11 5 hvcurveto
          44 hlineto
          hintmask 1001001011000000
          59 58 -14 59 hhcurveto
          27 225 8 211 78 -39 47 -73 28 hvcurveto
          41 34 17 28 49 vvcurveto
          7 -2 20 -1 1 vhcurveto
          1 2 0 3 4 vvcurveto
          44 -54 152 -312 -106 -108 -59 -102 -41 vhcurveto
          -1 -2 0 -7 -1 vvcurveto
          -14 11 -15 15 vhcurveto
          hintmask 1000101011000000
          36 27 119 55 hhcurveto
          21 -153 -2 -73 -5 vvcurveto
          -21 -1 -17 -8 -23 vvcurveto
          hintmask 1000010111000000
          -33 44 17 -26 vvcurveto
          -249 vlineto
          -6 -6 rlineto
          -32 -4 -87 -15 -46 vvcurveto
          330 300 rmoveto
          4 vlineto
          4 1 4 5 1 vhcurveto
          129 19 rlineto
          19 hlineto
          90 -28 16 -14 -101 vvcurveto
          -112 -143 -38 -82 -7 -17 2 7 2 10 callsubr
          -7 82 -5 82 83 vvcurveto
          -14 344 rmoveto
          20 hlineto
          1 2 0 3 32 157 -30 -128 -29 -17 -48 -48 -29 vhcurveto
          -1 -66 -9 -26 -2 vhcurveto
          -7 -29 -2 -6 hhcurveto
          104 -15 69 104 vvcurveto
          endchar
        </CharString>
        <CharString name="C">
          14 -50 11 callgsubr
          76 239 hintmask 11101000
          76 293 rmoveto
          -285 19 154 -58 126 -45 callgsubr
          -17 -16 1 -16 hhcurveto
          -63 callgsubr
          hintmask 11011000
          6 callsubr
          hintmask 11101000
          -46 callgsubr
          endchar
        </CharString>
        <CharString name="Ccedilla">
          18 -258 37 171 11 callgsubr
          80 239 68 38 hintmask 11110110
          276 -61 callgsubr
          vvcurveto
          4 0 3 1 3 vhcurveto
          -1 7 8 0 8 -45 callgsubr
          hhcurveto
          -12 hlineto
          7 -1 -3 4 -9 hhcurveto
          -8 -5 -4 -6 -5 hvcurveto
          -6 hlineto
          -63 callgsubr
          hintmask 11101110
          6 callsubr
          hintmask 11110110
          -46 callgsubr
          50 hlineto
          16 -243 114 -77 111 -18 rrcurveto
          -2 -11 0 -9 -6 vvcurveto
          -36 callsubr
          -29 callsubr
        </CharString>
        <CharString name="D">
          129 -38 40 -19 37 631 23 -23 43 hstemhm
          143 205 -186 186 325 49 hintmask 01101010
          67 -18 rmoveto
          1 14 15 0 14 hhcurveto
          hintmask 10011010
          101 76 -21 86 hhcurveto
          211 138 122 222 238 -157 150 -155 hvcurveto
          hintmask 01100110
          -56 -23 -20 -93 hhcurveto
          -34 -44 3 12 -32 hvcurveto
          -56 -4 -38 -18 -37 -46 rrcurveto
          -10 vlineto
          -18 15 -3 17 vhcurveto
          23 26 23 28 42 hhcurveto
          7 5 -1 -6 2 hvcurveto
          19 -241 rlineto
          -20 vlineto
          -9 -21 -27 -21 -18 -10 18 -9 19 -8 14 -10 rrcurveto
          3 -80 9 -103 -81 vvcurveto
          -5 -1 -5 -6 vhcurveto
          -61 hlineto
          -30 -4 0 -16 -6 1 -10 6 -6 hvcurveto
          290 635 rmoveto
          2 -1 3 5 vvcurveto
          21 21 3 23 196 77 -197 -146 vhcurveto
          hintmask 10101010
          -160 -93 -146 -176 -39 -17 7 54 vhcurveto
          179 9 197 178 vvcurveto
          endchar
        </CharString>
        <CharString name="E">
          -74 callgsubr
          5 callgsubr
          hintmask 0100101110000000
          -73 callgsubr
          hintmask 0011101110000000
          -41 callsubr
          hintmask 0100101110000000
          -8 callsubr
          hintmask 1000101110000000
          -90 callgsubr
          hintmask 1000011110000000
          -7 callgsubr
          hintmask 0011101110000000
          -106 callsubr
          hintmask 0100101110000000
          -17 callgsubr
          endchar
        </CharString>
        <CharString name="Eacute">
          -97 callgsubr
          24 735 -106 callgsubr
        </CharString>
        <CharString name="Ecircumflex">
          -74 callgsubr
          35 -15 callgsubr
          127 174 hintmask 0100101100110000
          -73 callgsubr
          hintmask 0011101100110000
          -41 callsubr
          hintmask 0100101100110000
          -8 callsubr
          hintmask 1000101100110000
          -90 callgsubr
          hintmask 1000011100110000
          -7 callgsubr
          hintmask 0011101100110000
          -106 callsubr
          hintmask 0100101001110000
          -17 callgsubr
          -83 724 -97 callsubr
          hintmask 1000101010110000
          -103 callgsubr
        </CharString>
        <CharString name="Edieresis">
          -74 callgsubr
          65 95 5 callgsubr
          -148 106 96 95 hintmask 0100101111010000
          -73 callgsubr
          hintmask 0011101111010000
          -41 callsubr
          hintmask 0100101111010000
          -8 callsubr
          hintmask 1000101111010000
          -90 callgsubr
          hintmask 1000011111010000
          -7 callgsubr
          hintmask 0011101111010000
          -106 callsubr
          hintmask 0100101110110000
          -17 callgsubr
          -38 781 -107 callsubr
        </CharString>
        <CharString name="Egrave">
          -97 callgsubr
          227 735 -102 callgsubr
        </CharString>
        <CharString name="Eth">
          142 22 -21 292 76 229 49 17 -20 55 -20 23 -20 hstemhm
          146 196 -196 218 hintmask 11100110
          29 21 rmoveto
          14 -16 rlineto
          -1 7 93 -3 33 hhcurveto
          98 124 -14 51 98 hvcurveto
          30 16 81 47 5 5 6 6 41 59 12 20 4 6 21 49 4 12 1 3 -3 13 2 1 rrcurveto
          1 4 13 11 3 vvcurveto
          21 49 -5 28 58 vvcurveto
          13 0 59 -1 12 vhcurveto
          -15 14 -71 59 -16 12 rrcurveto
          19 -27 -57 31 -33 hhcurveto
          -306 hlineto
          hintmask 11011010
          -5 4 -20 11 -5 2 rrcurveto
          2 -1 -12 -2 -1 hhcurveto
          -6 3 -47 29 -5 3 rrcurveto
          hintmask 11010110
          -3 -19 3 -3 hhcurveto
          -6 6 -26 4 -6 vhcurveto
          7 -10 41 -36 11 -4 rrcurveto
          -245 -124 vlineto
          0 3 -42 4 -17 vhcurveto
          -6 1 10 -11 3 hhcurveto
          101 hlineto
          -8 2 -36 -8 vvcurveto
          -15 -169 rlineto
          -31 -55 -7 -44 -16 hvcurveto
          306 69 rmoveto
          15 237 14 -3 60 0 13 3 rlinecurve
          2 11 11 6 2 hvcurveto
          3 11 -8 30 0 vvcurveto
          -89 hlineto
          hintmask 11100101
          0 3 113 3 48 vhcurveto
          1 15 16 26 12 10 rrcurveto
          10 40 1 9 hhcurveto
          91 86 -27 -92 56 hvcurveto
          4 -7 11 -36 -8 vvcurveto
          -3 -11 -47 -4 -18 vhcurveto
          -13 -50 -21 -63 -24 -39 -35 -57 -53 -45 -58 -16 rrcurveto
          -12 -39 -91 -24 -1 hhcurveto
          endchar
        </CharString>
        <CharString name="Euro">
          87 5 37 -15 -21 220 41 361 49 hstemhm
          146 186 hintmask 01111000
          146 226 rmoveto
          5 -102 110 -66 77 -39 4 -2 12 -8 3 -3 rrcurveto
          hintmask 10111000
          8 37 -1 8 hhcurveto
          122 46 18 101 76 hvcurveto
          10 13 4 6 15 vvcurveto
          14 -6 2 -14 vhcurveto
          -2 -8 -1 -1 hhcurveto
          -103 -41 -83 -28 -107 hhcurveto
          -17 -22 3 11 -4 hvcurveto
          -50 173 7 13 117 19 rlineto
          17 1 16 11 16 vvcurveto
          16 -16 -1 -17 vhcurveto
          -9 -1 -80 -10 -10 -2 rrcurveto
          -1 -3 -6 callgsubr
          62 vlineto
          24 150 -24 42 vvcurveto
          13 -3 6 -19 vhcurveto
          -39 -36 -4 -39 hhcurveto
          75 39 97 65 43 vhcurveto
          8 37 2 8 hhcurveto
          64 42 -4 -60 39 hvcurveto
          1 5 -28 callgsubr
          14 11 8 15 75 -139 16 -45 -177 -128 -120 -172 -37 hvcurveto
          -43 -71 3 -32 -8 1 -7 14 hvcurveto
          86 -74 -93 hlineto
          -13 -5 -15 -10 hvcurveto
          -5 2 8 -11 2 hhcurveto
          endchar
        </CharString>
        <CharString name="F">
          38 -25 56 212 180 -112 112 97 169 -12 -20 hstemhm
          81 248 -198 198 -184 184 hintmask 10110100
          50 -3 rmoveto
          -24 27 2 35 95 97 4 3 94 vhcurveto
          18 1 32 1 25 vvcurveto
          17 -11 5 -17 vhcurveto
          -24 -24 -6 -25 hhcurveto
          -5 -5 1 5 -1 hvcurveto
          -7 73 0 58 73 vvcurveto
          63 vlineto
          7 13 rlineto
          99 -57 hlineto
          hintmask 11010100
          -4 19 -7 0 31 12 106 30 14 -2 30 -23 -28 14 -52 -10 -23 vhcurveto
          -12 -6 -46 -7 0 vvcurveto
          -12 -25 4 9 -11 hvcurveto
          64 vlineto
          66 0 34 7 71 vhcurveto
          13 3 138 12 33 hhcurveto
          11 hlineto
          94 -100 rlineto
          0 10 -1 4 32 6 33 33 vhcurveto
          hintmask 11001100
          42 -3 29 20 vvcurveto
          hintmask 11010100
          -6 12 rlineto
          -93 hlineto
          -198 -37 rlineto
          -1 -3 -32 0 -11 hhcurveto
          hintmask 10101001
          -97 -94 26 -98 hhcurveto
          -13 -5 0 -10 -10 vvcurveto
          -9 0 -14 13 -2 vhcurveto
          105 -13 7 -25 rlineto
          -26 1 -78 -24 vvcurveto
          -63 -1 -36 -7 -26 vhcurveto
          hintmask 10110100
          -12 -44 0 -25 -27 45 2 11 hvcurveto
          hintmask 11010010
          -44 -6 -28 -40 -37 7 -30 -36 vvcurveto
          -25 -1 -15 -25 -27 -35 -2 -32 vhcurveto
          endchar
        </CharString>
        <CharString name="G">
          159 -42 -21 63 -21 665 48 -31 -20 hstemhm
          343 94 158 198 hintmask 11101100
          62 302 rmoveto
          -240 41 134 -125 167 hhcurveto
          139 122 53 146 32 hvcurveto
          7 27 -8 45 15 31 rrcurveto
          14 30 68 -23 61 vvcurveto
          13 -14 8 -13 vhcurveto
          -32 -26 -48 -15 -43 -32 -38 4 -17 hhcurveto
          -33 -92 -9 -41 -15 17 -16 15 hvcurveto
          7 40 28 18 hhcurveto
          31 -45 30 -26 -53 vvcurveto
          -37 -28 -35 -33 -23 vhcurveto
          -14 -31 -74 -20 -7 hhcurveto
          -15 -14 0 15 -9 hvcurveto
          -2 3 -16 119 -3 13 rrcurveto
          -15 75 -5 78 77 vvcurveto
          97 9 97 11 90 vhcurveto
          2 10 1 2 hhcurveto
          106 72 -96 -42 94 hvcurveto
          10 18 6 15 hvcurveto
          144 vlineto
          0 -19 21 -4 vhcurveto
          hintmask 11011100
          -32 3 -31 -56 hhcurveto
          hintmask 11101100
          -69 -60 31 -67 hhcurveto
          -127 -110 -81 -124 -46 hvcurveto
          -9 -26 -21 -110 -4 -1 -54 -21 rcurveline
          -1 -1 -7 -2 vvcurveto
          -3 0 -14 7 vhcurveto
          endchar
        </CharString>
        <CharString name="H">
          261 -32 72 -60 65 -53 53 -49 -21 28 -21 32 -21 22 -22 callgsubr
          341 48 69 -20 144 60 -30 50 1 -20 hstemhm
          173 184 254 131 -131 206 -118 43 -43 186 hintmask 000000101110111000000000
          48 -6 rmoveto
          hintmask 001000001110111000000000
          -1 14 15 -1 18 hhcurveto
          hintmask 000001001110111000000000
          21 23 1 23 hhcurveto
          62 66 -3 -21 42 hvcurveto
          hintmask 100000001110111000000000
          0 3 -1 1 vhcurveto
          hintmask 000010001110111000000000
          16 7 14 22 hhcurveto
          hintmask 000100001110111000000000
          19 8 -7 17 hhcurveto
          hintmask 000010001110110010000000
          7 3 32 12 13 vvcurveto
          30 -65 -3 -35 vhcurveto
          -8 7 1 56 21 68 7 67 67 vvcurveto
          17 10 24 3 22 21 18 -1 10 hhcurveto
          230 -50 rlineto
          -211 vlineto
          -7 -31 rlineto
          hintmask 010000001110110100000000
          1 -7 -10 1 -10 hhcurveto
          -30 -24 -7 -31 hvcurveto
          hintmask 000000101110111000000000
          -5 1 -7 6 -1 vhcurveto
          hintmask 000000011110111000000000
          6 7 1 6 hhcurveto
          hintmask 010000001110111000000000
          51 48 -15 51 hhcurveto
          hintmask 000010001110110100000000
          16 14 4 19 hvcurveto
          hintmask 100000001110111000000000
          31 -54 -2 -21 11 vhcurveto
          -4 94 -2 66 88 vvcurveto
          hintmask 100000001101010001000000
          43 19 106 66 58 vvcurveto
          9 -10 10 -9 vhcurveto
          -12 -91 -107 -7 -4 -3 4 -13 hhcurveto
          hintmask 100000001101010010000000
          86 6 83 88 vvcurveto
          7 6 rlineto
          -1 5 12 0 11 hhcurveto
          23 29 4 25 25 -31 -9 -67 -69 -88 -3 -32 -6 0 -9 7 hvcurveto
          99 hlineto
          hintmask 100000001110110010000000
          10 9 -26 -4 hvcurveto
          -240 vlineto
          -230 47 rlineto
          -105 hlineto
          -7 12 rlineto
          9 1 25 25 64 -7 11 41 vvcurveto
          34 17 5 19 vhcurveto
          8 9 -1 8 hhcurveto
          15 12 3 23 19 -15 4 -18 hvcurveto
          -81 -80 -21 -80 -15 -8 9 -14 hhcurveto
          -15 -5 -5 -15 -5 hvcurveto
          -4 -12 1 -12 hhcurveto
          -24 -22 0 -17 -6 12 -27 0 hvcurveto
          75 hlineto
          37 -199 rlineto
          -37 vlineto
          -87 -37 rlineto
          -8 -4 1 -5 -8 vvcurveto
          -11 7 -10 12 vhcurveto
          25 21 20 25 hhcurveto
          23 1 -80 -25 hvcurveto
          -48 -6 -49 -44 vvcurveto
          -126 hlineto
          -3 -4 -28 0 hvcurveto
          hintmask 000000101110111000000000
          -9 2 -4 12 -5 vhcurveto
          endchar
        </CharString>
        <CharString name="I">
          -16 callsubr
          hstemhm
          99 221 -182 182 hintmask 0110100100000000
          -49 callgsubr
          hintmask 1010100100000000
          -27 callsubr
          20 callsubr
          hintmask 0101100100000000
          -84 callgsubr
          hintmask 0110001100000000
          -18 callsubr
          hintmask 0110100100000000
          -8 callgsubr
          hintmask 0110010100000000
          -81 callsubr
          hintmask 0110100100000000
          -86 callgsubr
          hintmask 0110100010000000
          -77 callsubr
          endchar
        </CharString>
        <CharString name="Iacute">
          -177 -67 callsubr
          rlineto
          10 3 3 8 0 vvcurveto
          14 -1 -9 9 -12 hhcurveto
          -87 callgsubr
          89 737 -106 callgsubr
        </CharString>
        <CharString name="Icircumflex">
          -16 callsubr
          45 -20 22 -20 133 11 callsubr
          hintmask 0110100011100000
          -49 callgsubr
          hintmask 1010100011100000
          -57 callgsubr
          9 3 3 7 1 1 rlinecurve
          20 callsubr
          hintmask 0101100011100000
          -84 callgsubr
          hintmask 0110001011100000
          -18 callsubr
          hintmask 0110100011100000
          -8 callgsubr
          hintmask 0110010011100000
          -81 callsubr
          hintmask 0110100011100000
          -86 callgsubr
          hintmask 0110100011010000
          -77 callsubr
          10 726 -97 callsubr
          hintmask 0110100101100000
          -103 callgsubr
        </CharString>
        <CharString name="Idieresis">
          -178 -64 callgsubr
          58 95 hstemhm
          81 106 -88 -18 callgsubr
          -37 106 hintmask 0110100110010000
          -49 callgsubr
          hintmask 1010100110010000
          -27 callsubr
          14 -1 -9 9 -12 hhcurveto
          hintmask 0101100101000000
          -84 callgsubr
          hintmask 0110001110010000
          -18 callsubr
          hintmask 0110100110010000
          -8 callgsubr
          hintmask 0110010110010000
          -81 callsubr
          hintmask 0110100101000000
          -86 callgsubr
          hintmask 0110100100100000
          -77 callsubr
          hintmask 0110100110010000
          46 766 -107 callsubr
        </CharString>
        <CharString name="Igrave">
          -178 -67 callsubr
          9 3 3 7 1 1 rlinecurve
          20 callsubr
          -87 callgsubr
          310 737 -102 callgsubr
        </CharString>
        <CharString name="J">
          12 -95 50 479 248 -12 -20 26 -20 hstemhm
          21 158 -106 54 -54 154 100 239 hintmask 10011001
          21 109 rmoveto
          -157 82 -47 109 134 138 51 256 58 vhcurveto
          25 111 -1 192 58 vvcurveto
          62 -9 41 -34 vhcurveto
          hintmask 10101001
          -14 -62 -6 -33 hhcurveto
          hintmask 11000011
          -47 -18 12 -59 hhcurveto
          -200 -17 -146 -3 -32 44 -67 52 25 33 16 18 hvcurveto
          hintmask 11000101
          30 -100 -34 67 vvcurveto
          44 43 41 32 5 vhcurveto
          99 12 25 -6 -44 callgsubr
          -15 -7 vvcurveto
          -160 -12 -79 -1 -240 vhcurveto
          -39 -1 -51 -12 -49 vhcurveto
          -26 -33 -51 -6 -41 hhcurveto
          -25 3 39 18 -1 hvcurveto
          hintmask 11001001
          4 9 22 58 35 vvcurveto
          25 -12 -7 -33 23 vhcurveto
          22 -30 -15 27 -27 hhcurveto
          -43 2 -72 -23 hvcurveto
          endchar
        </CharString>
        <CharString name="K">
          193 4 -22 callgsubr
          39 -21 657 -20 36 -20 21 -7 callsubr
          130 241 -224 224 235 225 -162 162 hintmask 0011000100100000
          146 62 rmoveto
          -15 -1 -18 -12 -13 -3 -28 -6 -11 -2 -1 -36 rrcurveto
          341 hlineto
          15 51 8 28 5 -12 17 -4 hvcurveto
          -64 -14 rlineto
          -16 25 -3 27 31 vvcurveto
          29 0 37 4 33 vhcurveto
          26 16 31 6 28 hhcurveto
          89 67 -126 -58 50 hvcurveto
          10 -13 6 1 -12 vvcurveto
          hintmask 1001000101000000
          -21 -63 15 -46 vvcurveto
          -14 16 -3 14 vhcurveto
          hintmask 0101000101000000
          6 5 1 3 hhcurveto
          30 151 7 46 hvcurveto
          -44 -27 7 32 -32 hvcurveto
          -78 77 -68 123 -104 43 69 91 191 142 69 91 rrcurveto
          18 -5 -11 -2 -12 hhcurveto
          -21 -5 -2 -14 -21 hvcurveto
          -45 -31 -271 -261 -44 -32 rrcurveto
          7 -1 36 9 vvcurveto
          65 1 110 15 70 vhcurveto
          3 21 65 -1 17 vvcurveto
          hintmask 0010010101000000
          18 -13 5 -18 vhcurveto
          hintmask 0010100101000000
          -1 -2 -9 0 -11 hhcurveto
          hintmask 0010001101000000
          -105 -9 2 -88 hhcurveto
          -27 -92 -10 -21 -57 hvcurveto
          -2 -1 -11 -2 vvcurveto
          -15 6 -16 18 vhcurveto
          8 1 11 3 53 10 11 2 rlinecurve
          -282 vlineto
          -26 -14 -24 -22 hvcurveto
          40 hlineto
          hintmask 0011000011000000
          8 -76 9 -52 -67 -6 -1 -20 -5 vvcurveto
          endchar
        </CharString>
        <CharString name="L">
          117 -19 64 -46 46 -40 -21 35 -21 622 42 1 -20 33 -20 hstemhm
          130 199 hintmask 10001001
          23 39 rmoveto
          -33 2 -5 17 -5 vhcurveto
          -15 50 32 0 47 hhcurveto
          hintmask 00011001
          92 81 5 12 89 hvcurveto
          hintmask 01001001
          2 27 1 11 hhcurveto
          hintmask 00101001
          63 61 -15 62 hhcurveto
          52 28 165 34 30 -7 24 -23 8 hvcurveto
          -21 -23 -93 -101 -23 -21 -12 -13 -57 -28 -12 -5 rrcurveto
          hintmask 10000011
          -7 -15 -15 -2 -14 -23 -24 5 -26 hhcurveto
          -41 -3 21 33 hvcurveto
          33 -1 43 44 vvcurveto
          51 1 51 7 37 vhcurveto
          3 15 17 184 3 13 rrcurveto
          2 13 13 30 1 vvcurveto
          6 4 60 8 6 2 rrcurveto
          11 4 5 9 9 vvcurveto
          20 -29 1 -14 vhcurveto
          hintmask 10001001
          -33 -237 -12 -2 -31 hvcurveto
          hintmask 10000101
          -3 -11 1 -8 hhcurveto
          -12 -41 -13 -8 hvcurveto
          hintmask 10001001
          -13 7 -9 14 vhcurveto
          21 46 5 12 hhcurveto
          -7 2 -47 -9 vvcurveto
          -1 -19 -20 -154 -3 -11 rrcurveto
          -6 -27 -38 -15 -24 vvcurveto
          -15 32 -3 16 -3 vhcurveto
          -12 4 -61 -47 vvcurveto
          -2 -14 0 -20 -21 -35 1 -34 -8 vvcurveto
          endchar
        </CharString>
        <CharString name="M">
          489 -5 42 -14 -21 669 -20 29 -20 hstemhm
          hintmask 10010000
          230 608 rmoveto
          3 -16 2 -16 -16 vvcurveto
          -118 -71 -132 -39 -135 vhcurveto
          -2 -10 -36 -68 -17 -35 rrcurveto
          -23 -39 -58 29 -57 vvcurveto
          194 hlineto
          44 -1 34 8 3 hvcurveto
          -74 hlineto
          0 -8 10 9 vvcurveto
          7 7 30 7 13 vhcurveto
          35 69 66 287 16 48 25 -135 54 -138 49 -131 rrcurveto
          -30 12 11 -23 33 hhcurveto
          40 47 70 34 22 hvcurveto
          27 43 90 202 21 48 18 15 rcurveline
          115 -411 rlineto
          hintmask 01010000
          49 -52 rlineto
          222 hlineto
          13 4 18 6 hvcurveto
          hintmask 10010000
          3 -1 7 1 vvcurveto
          -64 13 -19 5 -23 66 -13 33 -36 98 -2 9 rrcurveto
          26 vlineto
          42 38 -6 32 vvcurveto
          13 -38 2 -17 9 vhcurveto
          -25 13 -41 166 38 43 68 -28 43 vvcurveto
          26 -36 0 -13 vhcurveto
          -31 -6 -137 -23 -31 -5 rrcurveto
          -15 -3 -22 -4 hvcurveto
          -19 1 -39 -1 vvcurveto
          -63 -24 -71 -222 -36 -1 -6 2 -1 hhcurveto
          hintmask 10100000
          -37 132 -50 204 -3 57 rrcurveto
          -163 -53 0 -17 -115 hvcurveto
          -13 -7 -6 -7 -12 vvcurveto
          -21 39 -5 13 vhcurveto
          19 24 6 22 hhcurveto
          endchar
        </CharString>
        <CharString name="N">
          -4 callgsubr
          hstemhm
          140 40 281 249 -42 29 hintmask 00101110
          12 callgsubr
          hintmask 01001110
          -72 callsubr
          hintmask 10001110
          -35 12 -6 27 30 177 7 69 3 vhcurveto
          hintmask 00101101
          -52 callsubr
          hintmask 00110101
          -86 callsubr
          endchar
        </CharString>
        <CharString name="Ntilde">
          -4 callgsubr
          33 -56 callgsubr
          140 40 281 249 -42 29 hintmask 0010110001100000
          12 callgsubr
          hintmask 0100110001100000
          -72 callsubr
          hintmask 1000110001100000
          -32 10 -8 23 -1 vhcurveto
          7 206 2 74 3 hvcurveto
          hintmask 0010110001010000
          -52 callsubr
          hintmask 0011010001010000
          -86 callsubr
          98 691 -39 callsubr
          hintmask 0010101101100000
          -78 callsubr
          hintmask 0010101011100000
          -70 callsubr
          hintmask 0010110001100000
          -82 callgsubr
        </CharString>
        <CharString name="O">
          -42 callsubr
          -93 callgsubr
          endchar
        </CharString>
        <CharString name="OE">
          187 7 49 385 -20 152 41 -13 62 -1 -20 61 -20 hstemhm
          46 156 0 241 hintmask 11101110
          46 286 rmoveto
          -133 31 -50 97 -63 vhcurveto
          15 -10 40 -23 0 vvcurveto
          199 hlineto
          6 7 42 23 9 3 17 4 138 23 42 5 rrcurveto
          2 22 1 6 36 -9 -18 22 hhcurveto
          18 33 117 25 hvcurveto
          -45 14 -36 -23 -28 hvcurveto
          -35 -46 -61 2 -56 -5 -25 1 -5 hhcurveto
          4 7 10 34 8 vvcurveto
          4 25 10 115 25 vvcurveto
          7 3 29 11 8 2 rrcurveto
          13 hlineto
          6 -4 18 -23 4 -5 rrcurveto
          3 10 10 6 1 hvcurveto
          1 4 11 68 2 26 rrcurveto
          2 1 19 2 vvcurveto
          -44 -10 -57 -46 -1 -11 -6 callgsubr
          -85 188 rlineto
          184 hlineto
          11 34 103 27 hvcurveto
          -2 -13 -6 -1 -1 hvcurveto
          -7 -6 -42 -55 -8 -6 rrcurveto
          -4 -8 -49 -11 -14 hhcurveto
          -19 -109 11 4 -27 hvcurveto
          -12 4 -89 27 -12 2 rrcurveto
          hintmask 11010110
          -1 -10 1 -3 hhcurveto
          -23 -7 -3 -14 -27 hvcurveto
          -129 -64 -69 -138 -158 vvcurveto
          156 -32 rmoveto
          9 10 105 3 33 vhcurveto
          57 8 18 143 69 hhcurveto
          5 14 -1 -4 hvcurveto
          5 -2 40 -45 11 -17 rrcurveto
          hintmask 11010101
          44 -60 14 -84 -77 vvcurveto
          -57 -2 -101 -28 -47 vhcurveto
          -15 -7 -30 -35 -5 hhcurveto
          -113 hlineto
          0 -10 13 -4 3 vhcurveto
          -7 14 -20 35 -2 1 rrcurveto
          -3 17 -10 93 22 vvcurveto
          endchar
        </CharString>
        <CharString name="Oacute">
          -84 callsubr
          50 458 -106 callgsubr
        </CharString>
        <CharString name="Ocircumflex">
          -42 callsubr
          23 -15 callgsubr
          -32 callsubr
          hintmask 11011110
          -105 callsubr
          -57 447 -97 callsubr
          hintmask 11101110
          -103 callgsubr
        </CharString>
        <CharString name="Odieresis">
          -42 callsubr
          36 95 hstemhm
          40 200 -11 106 96 106 17 185 hintmask 11110110
          -105 callsubr
          hintmask 11101110
          -11 487 -107 callsubr
        </CharString>
        <CharString name="Ograve">
          -84 callsubr
          226 458 -102 callgsubr
        </CharString>
        <CharString name="Oslash">
          197 12 37 584 44 -44 68 -43 -20 33 -20 25 -20 hstemhm
          84 181 -154 154 410 44 hintmask 1100001010000000
          -15 33 rmoveto
          -18 4 -3 18 vhcurveto
          11 hlineto
          124 106 rlineto
          -83 56 125 -23 92 hhcurveto
          76 78 34 59 49 hvcurveto
          13 16 35 51 2 7 50 162 rcurveline
          1 1 39 16 43 -8 39 42 vvcurveto
          124 100 rlineto
          0 2 8 4 vvcurveto
          hintmask 1001001010000000
          17 0 8 -18 -1 -7 23 callgsubr
          -124 -93 -69 81 rlineto
          hintmask 1000011010000000
          -4 6 -61 21 -21 4 rrcurveto
          hintmask 1100001010000000
          -1 -27 1 -11 hhcurveto
          hintmask 1000101010000000
          -30 -25 -6 -29 hhcurveto
          9 2 7 5 vvcurveto
          hintmask 1010001010000000
          6 -3 3 -15 -82 -103 -63 -49 -30 vhcurveto
          -80 -180 rlineto
          -11 -24 -3 -41 -30 vvcurveto
          hintmask 1100000110000000
          -51 27 -46 -46 vvcurveto
          -1 0 -8 -1 vhcurveto
          -124 -118 rlineto
          0 -1 -8 -3 vvcurveto
          299 141 rmoveto
          372 304 rlineto
          3 3 11 4 5 hhcurveto
          -163 vlineto
          -57 -148 rlineto
          -61 -23 -109 -64 -60 -8 -9 -1 -8 hhcurveto
          -26 -31 4 22 -10 hvcurveto
          -69 217 rmoveto
          62 230 1 3 48 56 19 22 rlinecurve
          26 24 46 5 34 hhcurveto
          2 6 -28 callgsubr
          93 -30 rlineto
          14 -5 37 -47 -11 vvcurveto
          -2 -1 -4 0 vhcurveto
          -385 -309 rlineto
          endchar
        </CharString>
        <CharString name="Otilde">
          -42 callsubr
          12 -56 callgsubr
          -32 callsubr
          hintmask 11100011
          -105 callsubr
          -125 445 -68 callgsubr
        </CharString>
        <CharString name="P">
          10 -12 39 616 39 hstemhm
          137 149 -149 176 184 132 hintmask 11011000
          61 8 rmoveto
          -8 2 -12 10 vhcurveto
          365 hlineto
          13 13 rlineto
          25 -18 -14 1 -50 hhcurveto
          -19 -19 0 -1 -6 hvcurveto
          -12 12 rlineto
          240 vlineto
          42 1 119 -6 80 56 rrcurveto
          70 49 5 73 28 vvcurveto
          29 -5 21 -8 17 vhcurveto
          134 -61 -305 2 -43 hhcurveto
          -67 -45 1 -4 -59 hvcurveto
          -10 -4 -4 -5 -10 vvcurveto
          -15 9 -4 12 vhcurveto
          9 14 2 6 hhcurveto
          56 5 -196 -57 hvcurveto
          -13 -35 -11 -7 -15 9 -4 11 hvcurveto
          11 14 4 7 hhcurveto
          -336 vlineto
          -8 -37 5 -12 hhcurveto
          -16 -3 -8 -10 hvcurveto
          hintmask 11101000
          225 635 rmoveto
          16 53 -3 -13 45 hvcurveto
          84 -25 13 -54 -70 vvcurveto
          -63 -6 -86 -79 -4 vhcurveto
          -6 -10 -1 -24 hhcurveto
          -40 -10 3 14 -7 hvcurveto
          -17 36 -12 144 122 vvcurveto
          endchar
        </CharString>
        <CharString name="Q">
          195 -81 39 -39 157 -136 41 43 -21 91 79 -49 49 451 56 -56 101 -46 -20 hstemhm
          11 245 -198 198 283 88 53 42 67 40 hintmask 1001011001011100
          570 3 rmoveto
          1 2 -28 callgsubr
          -62 77 25 -21 41 hhcurveto
          69 44 53 56 36 -18 55 -40 5 hvcurveto
          -8 1 -7 -16 -1 -24 33 -24 -28 vvcurveto
          -35 -25 -39 -38 -31 -68 53 25 6 0 4 8 4 vhcurveto
          54 70 33 156 91 vvcurveto
          80 -2 109 -73 54 vhcurveto
          61 -82 -51 9 -34 hhcurveto
          hintmask 1001100011011100
          -15 -11 -1 -6 hhcurveto
          -19 5 19 6 -13 hvcurveto
          hintmask 1001100101011100
          13 -26 -30 8 -27 hhcurveto
          -28 -27 -8 -19 -26 hvcurveto
          -103 -74 -65 -134 -22 -128 rrcurveto
          -7 -49 -1 -23 -17 43 -11 6 -2 hvcurveto
          hintmask 0011101000111100
          -1 -11 -1 -10 -9 vvcurveto
          -226 207 -112 99 69 74 32 30 60 vhcurveto
          -69 callsubr
          -292 71 rmoveto
          -15 69 -7 72 60 vvcurveto
          129 69 220 156 149 50 -103 -180 vhcurveto
          hintmask 0100011001011100
          -29 -46 -236 -44 -1 -2 2 0 vhcurveto
          55 -50 -33 40 -68 hhcurveto
          -32 -36 -19 -30 hvcurveto
          hintmask 1001101001011100
          -15 callsubr
          hintmask 0011011001011100
          22 10 30 22 hhcurveto
          21 68 -48 -34 -29 -118 -32 -32 -47 -46 54 39 -18 hvcurveto
          endchar
        </CharString>
        <CharString name="R">
          118 -24 45 -42 -21 53 -22 callgsubr
          38 -21 653 -20 hstemhm
          26 44 143 198 203 32 -32 52 -52 150 hintmask 0100111100100000
          501 237 rmoveto
          17 22 -9 -8 13 hvcurveto
          58 -36 2 -51 1 -47 rrcurveto
          -7 -1 -6 -6 vvcurveto
          -34 3 -30 24 -19 vhcurveto
          -18 23 10 -8 22 hhcurveto
          41 28 52 34 10 -8 -1 -6 -29 -16 -29 -16 -18 hvcurveto
          -3 -13 13 6 -6 hvcurveto
          hintmask 1000011101000000
          10 1 13 12 vvcurveto
          76 -14 96 -80 28 vhcurveto
          7 vlineto
          68 105 rlineto
          hintmask 0110011110000000
          1 1 5 31 8 vvcurveto
          215 -209 32 -143 -56 -49 -7 -25 -51 vhcurveto
          -77 -51 -35 -82 -90 vvcurveto
          -35 16 -121 59 vhcurveto
          8 3 18 9 10 vvcurveto
          -53 48 -4 27 74 vvcurveto
          29 1 30 17 24 vhcurveto
          39 27 43 55 21 hhcurveto
          3 -1 6 -18 rlineto
          17 -163 8 -179 -160 -6 -1 -26 -6 vvcurveto
          -24 -12 -69 19 -37 vvcurveto
          -9 3 -5 10 -5 vhcurveto
          hintmask 0101011110000000
          11 10 1 10 hhcurveto
          hintmask 1000011110000000
          91 91 -15 91 hhcurveto
          18 44 3 25 19 -26 -2 -24 hvcurveto
          -31 hlineto
          -12 186 6 6 rlineto
          -1 65 21 25 4 vhcurveto
          -96 44 rmoveto
          -17 103 0 110 -8 103 rrcurveto
          3 -1 13 3 vvcurveto
          20 hlineto
          3 78 -30 -14 31 hvcurveto
          65 -28 27 -75 -64 vvcurveto
          -87 -27 -66 -44 -93 hhcurveto
          -6 -4 0 7 -2 hvcurveto
          endchar
        </CharString>
        <CharString name="S">
          -20 callgsubr
          hstemhm
          71 83 287 122 hintmask 1010100110000000
          -76 callsubr
          hintmask 1011000110000000
          -16 callgsubr
          hintmask 1010001110000000
          13 -4 -13 1 -12 hhcurveto
          hintmask 1010010110000000
          7 callsubr
          hintmask 1011000110000000
          -66 callgsubr
          hintmask 0111000110000000
          -34 callsubr
          endchar
        </CharString>
        <CharString name="Scaron">
          -20 callgsubr
          245 -20 hstemhm
          71 83 287 122 hintmask 1010100111000000
          -76 callsubr
          hintmask 1011000111000000
          -16 callgsubr
          hintmask 1010001111000000
          13 -4 -13 1 -12 hhcurveto
          hintmask 1010010111000000
          7 callsubr
          hintmask 1011000111000000
          -66 callgsubr
          hintmask 0111000111000000
          -34 callsubr
          81 878 -91 callgsubr
        </CharString>
        <CharString name="T">
          59 -18 44 665 -20 hstemhm
          236 198 -174 174 hintmask 11010000
          148 4 rmoveto
          -8 1 -14 12 vhcurveto
          304 hlineto
          62 4 rlineto
          11 1 2 15 8 vvcurveto
          17 -13 -1 -17 vhcurveto
          -17 -24 -5 -13 hhcurveto
          -15 -7 23 124 hvcurveto
          52 6 126 90 vvcurveto
          143 8 25 31 vhcurveto
          83 -32 116 -49 rlineto
          1 -2 18 21 4 vvcurveto
          -1 2 -67 137 rlineto
          5 -3 -4 1 -4 hhcurveto
          -31 -3 -13 -12 -24 hvcurveto
          -19 -40 -35 -3 -45 -28 -31 1 -38 -23 -26 -2 -28 hhcurveto
          -29 -29 1 8 -25 hvcurveto
          -113 35 -67 -176 rlineto
          -15 12 -16 15 vhcurveto
          22 callsubr
          1 hhcurveto
          165 106 61 9 rlineto
          -243 vlineto
          hintmask 11100000
          -143 -19 -131 -5 -67 vhcurveto
          -75 hlineto
          -12 -1 -8 -8 hvcurveto
          endchar
        </CharString>
        <CharString name="Thorn">
          69 -19 47 120 43 -43 59 247 -20 236 -20 27 -20 25 -21 callsubr
          hintmask 1101010100100000
          75 6 rmoveto
          -10 6 -15 -53 callsubr
          11 8 1 61 26 4 callgsubr
          51 -64 22 -11 callsubr
          16 1 8 16 callsubr
          hintmask 1101010010100000
          2 callgsubr
          hintmask 1101100100100000
          -61 -58 -7 -60 hhcurveto
          hintmask 1101001001100000
          14 callsubr
          -12 -15 hvcurveto
          -20 -15 -55 19 -35 vvcurveto
          -10 15 -15 10 vhcurveto
          4 35 6 5 hhcurveto
          12 hlineto
          7 -111 rlineto
          -5 -1 -21 -5 vvcurveto
          -41 -40 8 -23 callsubr
          -19 -8 -6 -5 callsubr
          -44 callsubr
          -63 rlineto
          6 -5 1 -17 -12 vvcurveto
          hintmask 1011010100100000
          12 callsubr
          82 83 vvcurveto
          endchar
        </CharString>
        <CharString name="U">
          -58 callsubr
          -9 callsubr
          292 63 -37 37 hintmask 11000110
          -91 callsubr
          hintmask 11000101
          -93 callsubr
          hintmask 10010110
          -9 callgsubr
          hintmask 10001110
          -49 callsubr
          hintmask 11000110
          -15 callsubr
          hintmask 10100110
          -90 callsubr
          endchar
        </CharString>
        <CharString name="Uacute">
          -58 callsubr
          56 -20 107 -25 callgsubr
          hintmask 1100011110000000
          -91 callsubr
          hintmask 1100011101000000
          -93 callsubr
          hintmask 1001011110000000
          -9 callgsubr
          hintmask 1000111110000000
          -49 callsubr
          hintmask 1100011110000000
          -15 callsubr
          hintmask 1010011110000000
          -90 callsubr
          70 728 -106 callgsubr
        </CharString>
        <CharString name="Ucircumflex">
          -58 callsubr
          180 -94 callgsubr
          -45 735 -100 callgsubr
        </CharString>
        <CharString name="Udieresis">
          -58 callsubr
          77 95 -9 callsubr
          -93 106 96 106 77 63 -37 37 hintmask 1100011011000000
          -91 callsubr
          hintmask 1100011010100000
          -92 callsubr
          hintmask 1100010111000000
          -71 callsubr
          hintmask 1001011011000000
          -9 callgsubr
          hintmask 1000111011000000
          -49 callsubr
          hintmask 1100011011000000
          -15 callsubr
          hintmask 1010011011000000
          -90 callsubr
          hintmask 1100010111000000
          -18 774 -107 callsubr
        </CharString>
        <CharString name="Ugrave">
          -58 callsubr
          152 -94 callgsubr
          255 737 -102 callgsubr
        </CharString>
        <CharString name="V">
          27 -2 -21 641 57 -40 52 -13 -20 hstemhm
          hintmask 10100000
          263 3 rmoveto
          -12 49 45 -14 49 hhcurveto
          13 12 1 18 5 hvcurveto
          171 641 rlineto
          3 11 -2 14 hhcurveto
          19 22 3 17 31 -71 1 -10 -18 -83 -5 -2 -17 hvcurveto
          -13 -4 -7 -5 -12 vvcurveto
          -5 1 -20 6 vhcurveto
          74 hlineto
          7 0 -12 -3 hvcurveto
          -7 vlineto
          -1 -6 -10 -68 -2 -6 rrcurveto
          -6 vlineto
          -108 -437 rlineto
          -6 hlineto
          -139 523 rlineto
          hintmask 10010000
          -18 22 18 28 -30 12 rrcurveto
          hintmask 11000000
          -8 -37 1 -8 hhcurveto
          -55 -20 -3 -4 -40 hvcurveto
          -23 -3 -64 4 -35 vvcurveto
          -4 0 -12 7 vhcurveto
          98 hlineto
          51 -272 rlineto
          -27 -57 27 -34 vvcurveto
          -3 0 -13 7 vhcurveto
          61 hlineto
          84 -268 1 -10 9 -10 8 -5 rlinecurve
          endchar
        </CharString>
        <CharString name="W">
          256 -5 -21 28 -21 614 56 6 -20 hstemhm
          20 57 420 50 -30 75 97 207 hintmask 10101101
          640 6 rmoveto
          -1 -3 -1 -3 -3 vvcurveto
          -13 11 -10 14 12 13 13 13 2 vhcurveto
          131 595 rlineto
          1 9 5 3 5 34 -5 -1 4 vhcurveto
          15 5 9 12 37 -92 -2 -10 -30 -75 -1 -49 -13 8 0 11 hvcurveto
          20 16 5 20 hhcurveto
          -35 vlineto
          -99 -490 -6 6 -112 354 rlineto
          23 vlineto
          46 10 36 15 50 vhcurveto
          hintmask 10101011
          16 12 4 11 19 vvcurveto
          16 -12 10 -20 vhcurveto
          -93 -6 rlineto
          -12 -1 -7 -11 -11 vvcurveto
          -1 4 -9 3 -5 vhcurveto
          20 34 -7 -5 8 hvcurveto
          hintmask 10101101
          -48 -20 -45 -46 vvcurveto
          -5 0 -5 1 -6 vhcurveto
          -50 -267 -25 -61 -6 6 -136 477 rlineto
          1 -1 7 2 16 20 0 15 vvcurveto
          hintmask 01011101
          11 -22 10 -9 vhcurveto
          -137 hlineto
          -4 -47 -22 -9 -17 hvcurveto
          -45 -25 1 -81 -43 vvcurveto
          -50 10 -13 28 14 5 2 14 vhcurveto
          19 -7 12 22 vvcurveto
          33 3 30 15 31 vhcurveto
          7 -6 143 -503 rlineto
          -25 vlineto
          -17 -40 -4 -27 -8 3 -6 10 -4 hvcurveto
          279 -13 rlineto
          25 0 2 17 hvcurveto
          33 -43 -6 10 vvcurveto
          50 217 rlineto
          0 17 81 6 vhcurveto
          2 1 -2 4 hhcurveto
          -4 vlineto
          endchar
        </CharString>
        <CharString name="X">
          139 -18 -21 34 -21 26 -22 callgsubr
          452 -20 207 43 20 -20 hstemhm
          -13 249 hintmask 10001101
          390 -16 rmoveto
          -18 15 -5 16 vhcurveto
          hintmask 01001101
          18 51 102 -5 77 hhcurveto
          hintmask 00011011
          10 78 1 5 42 hvcurveto
          6 1 1 7 6 vvcurveto
          26 -23 5 -31 -14 -13 -1 -1 -6 vhcurveto
          -6 6 -205 354 18 13 199 229 43 19 rlineto
          2 2 4 8 4 vvcurveto
          21 -22 3 -20 -9 -159 -10 -3 -7 vhcurveto
          -12 -7 rlineto
          -1 0 -9 -3 hvcurveto
          hintmask 00011101
          -13 2 -18 18 5 39 5 1 6 vhcurveto
          5 30 -1 7 hhcurveto
          -12 vlineto
          -167 -179 rlineto
          0 -1 -1 -2 vhcurveto
          0 -9 3 4 vvcurveto
          -99 173 rlineto
          8 1 41 9 16 vvcurveto
          6 -15 18 -4 vhcurveto
          -335 hlineto
          -8 -23 -9 -13 hvcurveto
          -4 3 -3 -11 20 hhcurveto
          18 14 -8 -17 11 hvcurveto
          196 -304 -203 -260 rlineto
          -13 -14 -80 24 -44 vvcurveto
          -3 13 -14 6 -5 vhcurveto
          hintmask 00101101
          5 21 -1 5 hhcurveto
          18 181 2 36 6 -5 19 -8 hvcurveto
          -85 hlineto
          166 204 rlineto
          0 -13 callsubr
          3 4 -3 -4 2 vhcurveto
          124 23 callsubr
          -12 vlineto
          -18 -3 -32 -7 -23 vvcurveto
          endchar
        </CharString>
        <CharString name="Y">
          -41 callgsubr
          hstemhm
          11 207 hintmask 11000110
          -92 callgsubr
          hintmask 10010010
          21 callgsubr
          hintmask 11001010
          -81 callgsubr
          hintmask 10100010
          19 callsubr
          hintmask 11000110
          -65 callsubr
          endchar
        </CharString>
        <CharString name="Yacute">
          -41 callgsubr
          52 -20 107 -20 hstemhm
          11 207 hintmask 1100011110000000
          -92 callgsubr
          hintmask 1001001110000000
          21 callgsubr
          hintmask 1100101110000000
          -81 callgsubr
          hintmask 1010001110000000
          19 callsubr
          hintmask 1100011110000000
          -65 callsubr
          112 706 -106 callgsubr
        </CharString>
        <CharString name="Ydieresis">
          -41 callgsubr
          56 95 hstemhm
          11 207 -14 113 85 106 hintmask 1100011101000000
          -92 callgsubr
          hintmask 1001001101000000
          21 callgsubr
          hintmask 1100101101000000
          -81 callgsubr
          hintmask 1010001101000000
          19 callsubr
          hintmask 1100011101000000
          -75 callgsubr
          vvcurveto
          hintmask 1100011011000000
          -50 callsubr
          68 735 -107 callsubr
        </CharString>
        <CharString name="Z">
          -5 callgsubr
          hstemhm
          36 49 634 43 hintmask 00111100
          -26 callgsubr
          hintmask 01011100
          -37 callsubr
          hintmask 10011100
          -89 callgsubr
          endchar
        </CharString>
        <CharString name="Zcaron">
          -5 callgsubr
          32 -20 187 -20 hstemhm
          36 49 634 43 hintmask 00111111
          -26 callgsubr
          hintmask 01011111
          -37 callsubr
          hintmask 10011111
          -89 callgsubr
          154 845 -91 callgsubr
        </CharString>
        <CharString name="a">
          -77 callgsubr
          hstemhm
          19 -62 callgsubr
          hintmask 0110010100000000
          19 -79 callsubr
          hintmask 1010010100000000
          -89 callsubr
          hintmask 1001001010000000
          -100 callsubr
          hintmask 1000110100000000
          -88 callgsubr
          hintmask 1010010100000000
          -85 callgsubr
          endchar
        </CharString>
        <CharString name="aacute">
          -94 callsubr
          11 473 -106 callgsubr
        </CharString>
        <CharString name="acircumflex">
          -77 callgsubr
          229 -101 callsubr
          -69 471 -100 callgsubr
        </CharString>
        <CharString name="acute">
          18 callgsubr
          11 700 -106 callgsubr
        </CharString>
        <CharString name="adieresis">
          -77 callgsubr
          153 95 17 callsubr
          -72 106 76 108 -88 102 hintmask 0110011001000000
          19 71 rmoveto
          hintmask 0110010011000000
          -80 callsubr
          hintmask 1010011001000000
          -89 callsubr
          hintmask 1001010100100000
          -100 callsubr
          hintmask 1000111001000000
          -88 callgsubr
          hintmask 1010011001000000
          -85 callgsubr
          hintmask 1010010010100000
          -32 537 -107 callsubr
        </CharString>
        <CharString name="ae">
          92 -65 44 -44 194 -172 -21 37 -21 71 -21 156 38 33 233 -88 67 hstemhm
          40 155 120 155 -130 130 hintmask 0010111011000000
          327 46 rmoveto
          18 -35 28 -38 29 -14 5 -4 70 -15 18 -4 rrcurveto
          hintmask 0100011011000000
          1 5 -1 4 hhcurveto
          55 85 29 44 36 hvcurveto
          hintmask 1000111011000000
          5 6 1 4 5 3 -1 3 5 vvcurveto
          3 5 20 2 13 vhcurveto
          -3 6 -27 29 -14 7 rrcurveto
          hintmask 0100011011000000
          1 -1 -33 16 -6 hhcurveto
          hintmask 1000111011000000
          -33 34 -150 -71 hhcurveto
          -50 -19 97 15 hvcurveto
          1 -1 5 5 vvcurveto
          hintmask 0100010110100000
          10 1 15 2 17 -7 10 21 3 1 14 2 vvcurveto
          26 -16 46 3 27 -3 rrcurveto
          -5 16 4 -1 23 hhcurveto
          43 hlineto
          11 5 33 79 21 vvcurveto
          8 -15 40 -4 7 vhcurveto
          -30 52 -10 11 -59 20 rrcurveto
          9 -27 -39 15 -8 hhcurveto
          -50 -57 -36 -43 -17 hvcurveto
          -31 60 -61 14 -63 21 rrcurveto
          hintmask 1000111010100000
          3 -10 -3 2 -11 hhcurveto
          -89 -26 -38 -67 -28 hvcurveto
          -3 -5 -22 -92 -9 vvcurveto
          -16 10 -6 17 vhcurveto
          27 94 11 1 hhcurveto
          6 6 2 54 4 62 24 50 rlinecurve
          1 1 5 4 1 hhcurveto
          56 -8 28 -17 34 -46 rrcurveto
          -91 vlineto
          hintmask 0001110111000000
          -28 -3 -23 -22 -2 vhcurveto
          -3 -28 -42 -3 -30 hhcurveto
          -25 -31 -15 -13 -36 hvcurveto
          -19 -7 -24 -1 -7 -14 rrcurveto
          -29 -34 -4 -8 -30 vvcurveto
          -53 8 -29 75 -33 vhcurveto
          -7 12 9 0 14 hhcurveto
          32 15 1 16 42 hvcurveto
          39 15 12 37 29 25 rrcurveto
          -130 -27 rmoveto
          -1 3 -1 18 4 vvcurveto
          46 49 68 60 10 1 -13 -9 -30 -53 -92 -15 vhcurveto
          -4 -6 -18 -8 -1 hhcurveto
          -4 -20 14 3 -1 hvcurveto
          266 217 rmoveto
          51 18 36 26 45 vhcurveto
          3 2 5 3 3 hhcurveto
          25 15 -78 -22 hvcurveto
          hintmask 1000111011000000
          -7 -11 -3 -12 -3 -22 rrcurveto
          -1 4 -8 2 -1 vhcurveto
          -20 -23 -1 -12 hhcurveto
          -22 -10 2 16 hvcurveto
          endchar
        </CharString>
        <CharString name="agrave">
          -94 callsubr
          232 473 -102 callgsubr
        </CharString>
        <CharString name="ampersand">
          85 -4 41 0 105 295 -20 220 42 hstemhm
          36 160 -52 52 160 107 108 39 hintmask 10111011
          36 187 rmoveto
          -118 85 -73 117 vhcurveto
          36 hlineto
          39 33 3 24 37 hvcurveto
          27 14 40 27 rlineto
          4 7 18 10 2 hhcurveto
          -7 51 43 -34 53 hhcurveto
          13 14 4 15 hvcurveto
          47 -122 -27 47 vvcurveto
          7 vlineto
          67 94 3 2 9 8 2 3 rlinecurve
          54 14 97 13 9 vhcurveto
          5 9 46 9 11 hhcurveto
          26 -200 -26 vlineto
          26 -4 33 -10 8 -13 rrcurveto
          1 -10 0 -41 -10 vvcurveto
          -16 0 -42 -1 -2 vhcurveto
          hintmask 01110111
          -31 -2 -79 -90 -26 hhcurveto
          -1 -10 1 1 -2 hvcurveto
          -55 31 -88 49 -44 53 18 17 85 85 17 18 rrcurveto
          33 35 47 66 53 vvcurveto
          25 -3 31 -23 16 vhcurveto
          43 -59 -18 13 -39 hhcurveto
          -98 -43 -11 -97 -23 hvcurveto
          -4 -15 -9 -46 -6 vvcurveto
          -8 vlineto
          -15 1 -36 -25 vvcurveto
          -11 0 -9 -1 -3 vhcurveto
          -3 -9 -46 -51 -6 -7 -12 -21 -37 -75 -3 -10 rrcurveto
          hintmask 10111011
          -1 -2 0 -26 -9 vvcurveto
          160 -36 rmoveto
          21 7 66 26 7 51 -43 -12 17 vhcurveto
          20 -15 101 -63 -8 vvcurveto
          -15 -52 -27 -17 -5 vhcurveto
          -4 -12 -37 -9 -3 hhcurveto
          -26 -37 27 14 -18 hvcurveto
          -25 18 -2 25 30 vvcurveto
          108 486 rmoveto
          20 16 2 -16 16 hvcurveto
          -7 -92 -84 -49 -69 -45 rrcurveto
          59 vlineto
          86 9 55 99 vhcurveto
          endchar
        </CharString>
        <CharString name="aring">
          -77 callgsubr
          76 45 93 44 -2 -20 17 callsubr
          -12 49 73 108 -108 122 -100 43 hintmask 0110011010110000
          19 -79 callsubr
          hintmask 1010011010110000
          -89 callsubr
          hintmask 1001011001001000
          -100 callsubr
          hintmask 1000111010110000
          -88 callgsubr
          hintmask 1010011010100100
          -85 callgsubr
          28 521 -61 callsubr
          hintmask 1010010110110000
          -35 callgsubr
          hintmask 1010011010100100
          -51 callgsubr
        </CharString>
        <CharString name="asciicircum">
          -225 448 -21 237 -20 hstem
          12 440 rmoveto
          -11 6 6 -2 10 hhcurveto
          16 5 5 14 14 hvcurveto
          148 161 rlineto
          -79 callgsubr
          130 -105 rlineto
          11 14 2 14 2 -9 17 -3 2 hvcurveto
          -131 118 -10 8 -19 3 -13 2 -74 callsubr
          -155 -35 -17 -14 -12 -8 -39 rlinecurve
          endchar
        </CharString>
        <CharString name="asciitilde">
          10 260 139 -95 42 8 45 17 -20 hstemhm
          hintmask 10000000
          42 284 rmoveto
          -13 6 -11 16 vhcurveto
          hintmask 01100000
          41 19 94 99 hhcurveto
          12 hlineto
          217 -50 rlineto
          14 hlineto
          61 74 25 68 12 hvcurveto
          hintmask 01010000
          -72 callgsubr
          -2 -6 1 -1 hhcurveto
          -185 50 rlineto
          hintmask 10000000
          -3 -25 2 -8 hhcurveto
          -42 -51 -9 -30 -33 hvcurveto
          -25 -23 -31 -18 -35 vvcurveto
          endchar
        </CharString>
        <CharString name="asterisk">
          -291 461 -21 221 -20 30 -20 41 -20 hstemhm
          94 98 -69 69 -25 25 hintmask 11010010
          167 529 rmoveto
          -89 25 89 vlineto
          8 -5 40 -18 9 -2 rrcurveto
          -5 9 27 -9 2 hhcurveto
          3 9 9 5 hvcurveto
          -22 33 -47 -3 -19 32 29 6 30 8 29 11 -8 13 -17 8 -12 4 rrcurveto
          10 16 4 10 19 vvcurveto
          -30 -27 -9 -23 -21 hvcurveto
          63 -31 -57 vlineto
          0 -14 -10 -5 4 vhcurveto
          hintmask 10111000
          15 -23 -4 27 -27 hhcurveto
          hintmask 11010100
          -41 29 1 -34 vvcurveto
          -9 -2 -3 -10 -6 vhcurveto
          -11 -7 -54 -26 -11 -5 rrcurveto
          -1 -1 -4 -1 vvcurveto
          -11 9 -9 10 vhcurveto
          15 9 14 14 hhcurveto
          7 hlineto
          -11 -6 -2 -5 -8 vvcurveto
          -11 9 -9 10 vhcurveto
          7 hlineto
          hintmask 11010010
          8 6 40 26 8 7 rrcurveto
          endchar
        </CharString>
        <CharString name="at">
          70 35 51 100 229 -203 25 178 99 50 -20 hstemhm
          46 112 114 190 76 114 hintmask 10111111
          46 269 rmoveto
          -55 28 -62 36 -40 vhcurveto
          -65 56 96 -12 79 hhcurveto
          106 65 14 63 88 hvcurveto
          9 6 28 28 16 vvcurveto
          9 -11 4 -7 -3 -62 -41 -10 -17 vhcurveto
          -28 -51 -51 -10 -56 hhcurveto
          -76 -92 25 63 -51 hvcurveto
          -1 8 -1 40 8 vvcurveto
          53 3 38 36 41 vhcurveto
          62 55 86 90 93 hhcurveto
          36 65 -33 -43 5 hvcurveto
          -1 1 -35 -14 vvcurveto
          -38 -4 -81 -47 -19 vhcurveto
          -1 6 callgsubr
          -8 -21 8 -4 hhcurveto
          16 11 14 18 vvcurveto
          41 -14 69 -55 -61 -40 -80 -48 -19 vhcurveto
          21 callsubr
          -56 69 -13 32 vhcurveto
          5 29 12 5 1 9 -12 2 hhcurveto
          hintmask 11001111
          -15 24 31 -11 7 hhcurveto
          82 84 93 81 49 -15 93 -50 24 hvcurveto
          15 -37 -81 23 -27 hhcurveto
          -18 hlineto
          -128 -21 -128 -11 -72 -119 rrcurveto
          -27 -46 -23 -45 -53 vvcurveto
          264 11 rmoveto
          23 42 44 34 28 vhcurveto
          1 -2 callgsubr
          hhcurveto
          20 0 -18 -14 hvcurveto
          hintmask 10111111
          -13 -19 -94 -44 -1 -38 34 9 vhcurveto
          endchar
        </CharString>
        <CharString name="atilde">
          -77 callgsubr
          93 -56 callgsubr
          4 -62 callgsubr
          hintmask 0110010001001000
          4 -79 callsubr
          hintmask 1010010001010000
          -89 callsubr
          hintmask 1001010000101000
          -100 callsubr
          hintmask 1000110001001000
          -88 callgsubr
          hintmask 1010010001001000
          -85 callgsubr
          -146 459 -39 callsubr
          hintmask 1010001101001000
          -78 callsubr
          hintmask 1010001011001000
          -70 callsubr
          hintmask 1010010001001000
          -82 callgsubr
        </CharString>
        <CharString name="b">
          -60 -37 70 -23 -21 380 50 274 -20 hstemhm
          74 134 181 152 hintmask 10111100
          64 2 rmoveto
          -29 3 -10 29 43 45 39 19 36 vhcurveto
          8 0 -2 -5 4 hvcurveto
          hintmask 01111100
          -17 29 18 -8 35 hhcurveto
          137 22 90 81 98 vvcurveto
          131 -79 98 -126 -80 -15 -26 -32 -33 vhcurveto
          3 88 26 145 2 28 rrcurveto
          2 17 12 7 16 vvcurveto
          20 -6 11 -20 -29 -46 -31 -8 -25 vhcurveto
          -13 -5 -79 -28 -21 -5 rrcurveto
          -9 -3 -23 -1 -25 vvcurveto
          -19 14 -5 26 17 16 2 1 3 vhcurveto
          10 -111 6 -190 -102 -53 -10 -56 -52 vvcurveto
          264 367 rmoveto
          43 18 -62 -70 hvcurveto
          hintmask 10111100
          -94 -33 -110 -53 -50 -45 51 43 vhcurveto
          147 vlineto
          57 79 38 41 vhcurveto
          endchar
        </CharString>
        <CharString name="backslash">
          -268 3 -21 687 -20 hstem
          330 -1 rmoveto
          26 -88 215 -15 39 vhcurveto
          -33 79 19 -13 -61 154 rrcurveto
          55 -23 -50 115 -26 hhcurveto
          -8 -12 -8 -8 -32 175 -428 26 -65 hvcurveto
          -57 23 40 -89 15 hhcurveto
          11 7 6 11 hvcurveto
          endchar
        </CharString>
        <CharString name="bar">
          -413 39 -21 615 -20 hstemhm
          79 52 -40 40 hintmask 11100000
          97 40 rmoveto
          -14 2 9 -8 12 hhcurveto
          14 5 53 57 65 -6 70 -2 351 hvcurveto
          9 -17 10 -8 -23 -4 -79 -55 vhcurveto
          hintmask 11010000
          -154 12 13 -79 vvcurveto
          -37 0 -165 6 -37 vhcurveto
          endchar
        </CharString>
        <CharString name="braceleft">
          0 callgsubr
          5 249 -199 199 hintmask 00111000
          415 hmoveto
          13 4 1 7 10 vvcurveto
          16 -5 17 -15 8 vhcurveto
          hintmask 10011000
          -3 -9 -9 -1 -9 hhcurveto
          -63 -65 57 64 hvcurveto
          34 13 33 35 26 -20 19 21 vvcurveto
          2 13 22 6 13 vhcurveto
          39 75 -31 79 30 82 rrcurveto
          16 45 96 -2 25 vvcurveto
          22 -34 0 -17 -60 -172 -72 -61 -9 vhcurveto
          -25 -168 -1 -5 -21 -22 -9 -3 rlinecurve
          -23 -13 -40 16 -36 vvcurveto
          -27 42 10 15 -25 vhcurveto
          -25 vlineto
          hintmask 10010100
          -29 -7 -26 -28 vvcurveto
          -110 91 -99 111 vhcurveto
          hintmask 01011000
          50 42 14 47 hhcurveto
          hintmask 00111000
          7 6 -1 6 hhcurveto
          endchar
        </CharString>
        <CharString name="braceright">
          0 callgsubr
          182 199 -199 249 hintmask 00110100
          21 hmoveto
          hintmask 01010100
          6 6 1 7 hhcurveto
          hintmask 10011000
          47 42 -14 50 hhcurveto
          111 91 99 110 hvcurveto
          28 -7 26 29 vvcurveto
          25 vlineto
          hintmask 10010100
          15 25 42 -10 27 vvcurveto
          36 -40 -16 -23 13 vhcurveto
          -9 3 -21 22 -1 5 -25 168 rcurveline
          61 -9 -172 72 -60 hhcurveto
          -17 -34 0 -22 -25 96 2 16 -45 hvcurveto
          30 -82 -31 -79 39 -75 rrcurveto
          6 -13 13 -22 -2 -21 -20 -19 -26 -35 13 -33 -34 vvcurveto
          -64 -65 -57 -63 -9 -9 1 3 -9 vhcurveto
          hintmask 00110100
          -15 -8 -5 -17 -16 vvcurveto
          -10 1 -7 13 -4 vhcurveto
          endchar
        </CharString>
        <CharString name="bracketleft">
          8 callgsubr
          86 172 hintmask 11010000
          96 685 rmoveto
          -3 -11 -13 -6 hvcurveto
          -1 -1 -3 -27 -1 -9 -1 -9 -2 -25 1 -3 23 -586 rcurveline
          4 -37 23 -3 32 -3 71 -6 69 22 70 -6 33 -2 17 -19 32 -3 rrcurveto
          2 -1 11 2 vvcurveto
          -9 28 -16 56 -29 23 -30 -6 28 -58 -28 2 -88 8 rcurveline
          -36 586 rlineto
          13 vlineto
          7 2 19 14 -3 vhcurveto
          149 -25 8 -13 7 -14 14 -1 rlinecurve
          23 -2 0 29 1 15 2 25 3 23 -13 23 rrcurveto
          hintmask 10110000
          1 -4 0 -2 -2 -3 1 -1 -2 vhcurveto
          -6 -4 -30 -30 -5 -6 rrcurveto
          endchar
        </CharString>
        <CharString name="bracketright">
          8 callgsubr
          218 171 hintmask 10110000
          80 660 rmoveto
          -5 6 -29 30 -7 4 rrcurveto
          1 -2 -3 -1 -2 hhcurveto
          -2 -4 0 -1 hvcurveto
          -13 -23 3 -23 2 -25 2 -15 -1 -29 23 2 14 1 7 14 8 13 150 25 rcurveline
          13 3 2 -19 -7 vvcurveto
          1 -4 -1 -8 1 -1 -37 -586 rcurveline
          -88 -8 -28 -2 28 58 -30 6 rlinecurve
          -29 -23 -16 -56 -9 -28 rrcurveto
          -2 -1 -11 -2 vvcurveto
          32 3 17 19 33 2 70 6 69 -22 72 6 31 3 23 3 4 37 23 586 rcurveline
          1 3 -2 25 -1 9 -1 9 -2 27 -1 1 rrcurveto
          hintmask 11010000
          6 -1 -11 13 -3 hhcurveto
          endchar
        </CharString>
        <CharString name="breve">
          -156 655 45 -45 139 -139 176 hstemhm
          hintmask 00100000
          19 762 rmoveto
          -74 48 62 -33 90 hhcurveto
          83 152 52 105 13 -11 6 -12 -29 -15 -57 -12 -8 hvcurveto
          hintmask 10000000
          -48 -40 -64 -14 -57 hhcurveto
          -31 -38 0 19 -25 hvcurveto
          hintmask 01000000
          31 -42 5 44 -62 hhcurveto
          -7 -8 0 -6 -9 0 1 -8 -1 vvcurveto
          endchar
        </CharString>
        <CharString name="brokenbar">
          -460 86 -21 555 -20 hstemhm
          64 37 -25 38 hintmask 11100000
          64 78 rmoveto
          hintmask 11010000
          12 -13 13 13 rlineto
          hintmask 11100000
          3 3 9 80 30 vvcurveto
          20 -7 46 -30 vhcurveto
          32 363 rmoveto
          hintmask 11010000
          -7 -13 -5 -9 hvcurveto
          -202 vlineto
          hintmask 11100000
          25 hlineto
          hintmask 11010000
          8 64 5 40 56 vvcurveto
          13 4 43 -22 vhcurveto
          endchar
        </CharString>
        <CharString name="bullet">
          -356 165 171 hstem
          42 190 vstem
          42 245 rmoveto
          -47 55 -33 42 54 39 36 54 42 -26 39 -47 -52 -65 -36 -55 vhcurveto
          endchar
        </CharString>
        <CharString name="bullet.001">
          1 callsubr
          50 -30 131 -114 -20 hstemhm
          34 38 204 48 112 166 -31 94 -38 38 hintmask 1101001110100000
          34 187 rmoveto
          -109 61 -41 104 30 21 -7 20 24 vhcurveto
          27 22 23 23 37 vvcurveto
          47 -15 19 -35 28 vhcurveto
          20 -25 -35 -3 -28 hhcurveto
          -42 vlineto
          9 45 -9 -4 9 hvcurveto
          5 -2 18 -17 2 -6 rrcurveto
          -1 2 -17 -7 vvcurveto
          -48 -42 -16 -41 -67 -54 37 70 34 2 47 24 27 vhcurveto
          10 13 45 44 8 6 rrcurveto
          38 49 62 1 59 hhcurveto
          18 48 -1 -1 3 hvcurveto
          3 26 -8 -4 8 hvcurveto
          11 -5 54 -26 10 -7 -4 -1 -17 -9 -4 -2 rrcurveto
          -40 -32 -11 -20 -48 vvcurveto
          -67 10 -48 74 34 48 16 42 17 -25 40 -20 -16 -20 -12 -14 -9 vhcurveto
          7 -3 26 -17 6 -5 1 -5 rcurveline
          -24 -24 2 -16 -8 -26 -3 17 -3 vhcurveto
          -1 2 -1 30 9 vvcurveto
          10 1 24 1 vhcurveto
          3 11 36 35 11 5 rrcurveto
          hintmask 1110001110100000
          2 19 3 8 hhcurveto
          60 47 -55 -36 41 hvcurveto
          10 5 2 5 9 vvcurveto
          51 -126 76 -37 30 vhcurveto
          -7 6 -18 17 -1 3 rrcurveto
          1 -2 22 9 8 2 21 1 vvcurveto
          3 7 26 26 9 5 rrcurveto
          1 14 0 4 5 14 0 -1 1 vhcurveto
          9 -4 17 -14 -14 vvcurveto
          hintmask 1100101101000000
          -20 -56 19 -59 vvcurveto
          57 37 1 61 58 -40 11 -49 -34 -37 -4 -35 -18 hvcurveto
          hintmask 1100011110100000
          -5 -11 -18 -53 -2 -11 rrcurveto
          -6 hlineto
          hintmask 1101001110100000
          -50 -48 13 -51 hhcurveto
          -105 -74 -49 -78 -68 hvcurveto
          -2 -2 -9 -18 -2 -5 rrcurveto
          -15 -46 2 -7 -49 vvcurveto
          endchar
        </CharString>
        <CharString name="bullet.002">
          1 callsubr
          37 -37 50 -30 131 hstemhm
          75 39 -39 94 -30 50 -50 166 111 48 204 38 hintmask 1100101010110000
          706 187 rmoveto
          49 2 7 -15 46 vhcurveto
          -2 5 -9 18 -2 2 rrcurveto
          78 -67 -74 49 -106 hhcurveto
          hintmask 1101001010110000
          -51 -48 -13 -50 hhcurveto
          -6 hlineto
          -2 11 -18 53 -5 11 rrcurveto
          hintmask 1100010100110000
          35 -18 -37 4 -34 hhcurveto
          -49 -40 -11 -58 -61 37 -1 57 hvcurveto
          hintmask 1110001010110000
          59 -55 -19 20 vvcurveto
          14 16 14 9 4 vhcurveto
          1 1 14 0 5 hhcurveto
          5 13 0 -1 hvcurveto
          9 -5 27 -26 2 -7 rrcurveto
          -1 2 -21 -8 -9 -2 -22 -1 vvcurveto
          -1 -3 -17 -17 -8 -6 rrcurveto
          -37 -30 -126 -76 -51 vvcurveto
          -9 2 -5 11 -5 vhcurveto
          36 41 46 55 60 8 20 -3 1 hhcurveto
          11 -5 36 -35 3 -11 rrcurveto
          1 1 -24 -10 -9 -1 -30 -1 -2 hvcurveto
          -17 -2 -27 3 -8 hhcurveto
          -15 -24 -2 24 hvcurveto
          5 vlineto
          6 5 27 17 6 3 rrcurveto
          14 -9 -20 12 -16 hhcurveto
          -19 -25 -40 -17 -42 47 -16 34 hvcurveto
          hintmask 1101001001110000
          74 11 48 67 48 -12 20 -40 32 hvcurveto
          -4 2 -17 9 -4 1 11 7 53 26 11 5 rrcurveto
          4 8 27 8 2 hhcurveto
          1 3 48 1 18 hhcurveto
          59 62 -1 -38 50 hvcurveto
          8 -6 44 -44 10 -13 rrcurveto
          24 -27 2 -47 -34 vvcurveto
          -70 -54 -37 -67 -41 -42 16 48 vhcurveto
          7 2 17 1 vvcurveto
          2 6 18 17 5 2 rrcurveto
          4 9 45 9 10 hhcurveto
          42 vlineto
          -29 -35 3 -20 -25 hvcurveto
          -35 -28 -15 -19 -47 vvcurveto
          -37 23 -23 27 -22 vhcurveto
          -20 24 21 7 30 hhcurveto
          105 60 41 109 hvcurveto
          endchar
        </CharString>
        <CharString name="bullet.003">
          78 5 26 127 38 49 51 -38 38 36 191 -127 127 -102 -20 33 -7 callsubr
          288 37 14 177 -164 103 -40 40 hintmask 1101100001010000
          24 258 rmoveto
          -12 5 -13 14 vhcurveto
          7 hlineto
          302 25 rlineto
          25 hlineto
          hintmask 1110100001100000
          83 83 -13 83 hhcurveto
          15 27 -4 24 13 -12 2 -15 3 hvcurveto
          -18 3 -79 9 -16 1 rrcurveto
          -170 hlineto
          -114 -108 2 -27 -111 hvcurveto
          hintmask 1101100001001000
          -2 -1 -9 -2 vvcurveto
          264 -171 rmoveto
          -62 53 -20 52 33 29 6 40 4 -1 14 -1 1 vhcurveto
          -5 8 -26 26 -7 3 rrcurveto
          -1 -16 1 -6 hhcurveto
          hintmask 1110100001010000
          -15 -25 3 -23 hvcurveto
          hintmask 1110100001001000
          -40 63 42 -40 vvcurveto
          -15 -12 -4 -13 -26 -39 22 29 4 1 8 -50 callgsubr
          3 5 36 35 11 10 rrcurveto
          16 20 12 -3 24 hhcurveto
          89 24 -34 -42 70 hvcurveto
          20 callgsubr
          11 9 9 11 2 -1 4 0 hvcurveto
          -5 7 -36 35 -9 8 rrcurveto
          39 -45 -49 0 -58 hhcurveto
          -17 -42 0 -1 -3 hvcurveto
          hintmask 1110100001010000
          -1 -18 -9 -4 -6 hvcurveto
          -40 -24 -24 -22 -49 vvcurveto
          hintmask 1110100001100000
          51 329 rmoveto
          hintmask 1110100001010000
          -28 -7 -2 20 -15 vhcurveto
          -35 46 32 -4 58 hhcurveto
          57 39 15 37 45 hvcurveto
          hintmask 1110000011100000
          12 10 14 6 15 vvcurveto
          11 -9 9 -11 vhcurveto
          hintmask 1110000101100000
          -2 -3 -1 -1 hhcurveto
          -7 -5 -61 -41 -7 -4 rrcurveto
          -15 -28 -20 1 -30 -10 -25 1 -1 hhcurveto
          hintmask 1110010001100000
          -10 2 -44 17 -9 6 rrcurveto
          7 vlineto
          31 23 37 28 13 vhcurveto
          3 5 20 -12 5 hhcurveto
          -4 10 -9 -3 -3 vhcurveto
          hintmask 1110001001100000
          -2 -5 -33 -28 -2 -5 rrcurveto
          hintmask 1110000011100000
          -1 -1 -5 -1 hvcurveto
          hintmask 1110010001100000
          -12 13 -7 14 22 41 41 21 55 -27 10 -49 -26 -33 1 -28 -17 vhcurveto
          -6 -10 -18 -36 -1 -4 rrcurveto
          265 -182 rmoveto
          6 0 -12 -6 -7 0 12 7 hhcurveto
          endchar
        </CharString>
        <CharString name="bullet.004">
          78 5 26 127 38 62 38 100 127 -102 -20 33 -3 callsubr
          31 -20 hstemhm
          257 40 -40 103 27 37 hintmask 1111000001100000
          688 258 rmoveto
          2 -1 9 2 vvcurveto
          27 -111 -108 -2 -114 hhcurveto
          -170 hlineto
          -16 -1 -79 -9 -18 -3 rrcurveto
          -16 -3 -11 -2 -13 vvcurveto
          -24 27 4 15 vhcurveto
          83 83 13 83 hhcurveto
          25 hlineto
          30 -2 241 -21 31 -2 rrcurveto
          7 hlineto
          14 5 13 12 hvcurveto
          -264 -171 rmoveto
          49 -24 22 -40 24 vhcurveto
          4 -6 -18 9 -1 hhcurveto
          1 -3 -43 0 -16 hhcurveto
          -58 -49 0 -39 -45 hvcurveto
          -9 -8 -36 -35 -5 -7 rrcurveto
          21 callsubr
          -11 9 -9 10 vhcurveto
          0 callsubr
          hhcurveto
          42 70 23 34 90 hhcurveto
          24 12 3 -16 20 hvcurveto
          11 -10 35 -35 4 -5 rrcurveto
          1 -1 1 -8 -4 vvcurveto
          -29 -40 -22 -25 vhcurveto
          hintmask 1111000010100000
          -13 -12 4 15 hvcurveto
          hintmask 1111000001100000
          40 63 -42 40 vvcurveto
          23 -25 -3 -15 vhcurveto
          hintmask 1110100110100000
          -6 -17 -28 callgsubr
          -7 -3 -26 -26 -5 -8 rrcurveto
          6 callgsubr
          -14 -4 vvcurveto
          -40 29 -6 33 52 53 20 62 vhcurveto
          -51 329 rmoveto
          8 0 22 -1 vhcurveto
          4 -18 36 -7 10 vhcurveto
          hintmask 1111000001100000
          28 -17 -32 -1 -26 hhcurveto
          -50 -26 -10 -55 -21 41 -41 22 hvcurveto
          hintmask 1110001001100000
          13 14 7 12 hvcurveto
          hintmask 1110100101100000
          1 -1 5 -1 vhcurveto
          -3 5 -32 28 -2 5 rrcurveto
          -3 3 10 9 4 vvcurveto
          5 20 12 -3 5 hvcurveto
          28 -13 23 -37 -31 vvcurveto
          hintmask 1111000001100000
          -7 vlineto
          -9 -6 -45 -17 -9 -2 rrcurveto
          -1 -25 -1 -10 hhcurveto
          -31 -19 -1 15 -28 hvcurveto
          hintmask 1110010001100000
          -7 4 -61 41 -7 5 rrcurveto
          hintmask 1110001001100000
          -1 -3 -6 callgsubr
          -11 -9 -9 -11 -15 14 -6 12 -10 hvcurveto
          -37 45 39 -15 57 hhcurveto
          58 32 4 35 46 hvcurveto
          20 15 -7 2 28 vvcurveto
          -265 -152 rmoveto
          6 0 -12 -6 -6 0 12 6 hhcurveto
          endchar
        </CharString>
        <CharString name="bullet.005">
          -73 24 26 125 26 177 37 77 37 hstemhm
          36 38 101 35 154 152 -26 26 hintmask 11111101
          36 239 rmoveto
          -56 76 -93 50 -28 vhcurveto
          75 -37 rlineto
          -1 2 40 0 15 hhcurveto
          57 54 2 36 47 hvcurveto
          18 16 44 43 5 vvcurveto
          12 -12 vlineto
          -48 -75 -50 -40 -90 hhcurveto
          -91 -122 102 93 24 1 5 11 28 hvcurveto
          108 47 95 82 124 hhcurveto
          64 74 -43 -71 hvcurveto
          -3 -1 -10 -1 vvcurveto
          -3 -19 -9 -53 -3 vvcurveto
          -3 -5 -44 -44 -16 -14 rrcurveto
          -22 -25 -39 -3 -31 hhcurveto
          -24 -13 -4 16 -19 hvcurveto
          -13 11 -36 36 -2 4 rrcurveto
          -1 1 -1 17 6 vvcurveto
          46 60 44 42 vhcurveto
          hintmask 11111110
          17 35 -11 -21 hvcurveto
          -15 -14 -9 -14 vvcurveto
          -10 2 -4 11 -5 vhcurveto
          8 4 26 27 4 7 rrcurveto
          1 1 0 11 5 vvcurveto
          15 0 20 -14 11 vhcurveto
          -6 5 -35 17 -9 3 rrcurveto
          -18 hlineto
          -65 -80 -56 -70 -2 9 -26 3 -9 hvcurveto
          -62 24 62 -15 59 hhcurveto
          63 55 22 55 39 hvcurveto
          7 9 18 35 6 vvcurveto
          1 2 1 44 16 vvcurveto
          10 -1 44 -1 10 vhcurveto
          69 -37 -58 32 -79 hhcurveto
          -58 -60 -15 -36 -47 hvcurveto
          -72 -55 -67 -88 -96 vvcurveto
          endchar
        </CharString>
        <CharString name="bullet.006">
          -37 10 39 -16 -21 125 38 -38 141 74 39 125 38 hstemhm
          27 39 100 50 -50 153 62 26 124 26 hintmask 0110111101100000
          27 185 rmoveto
          -91 56 -49 83 -33 vhcurveto
          hintmask 1010111101100000
          12 53 -2 11 hhcurveto
          hintmask 0110111101100000
          19 54 2 2 hhcurveto
          4 1 53 26 19 11 63 36 54 66 34 61 rrcurveto
          13 26 0 34 29 vvcurveto
          47 -6 42 -33 37 vhcurveto
          68 -60 -65 58 -95 hhcurveto
          -56 hlineto
          -22 -2 -70 -15 -35 vvcurveto
          51 48 14 50 hhcurveto
          89 64 -44 -69 54 hvcurveto
          1 -2 9 -27 2 -10 rrcurveto
          5 -14 8 -45 -3 vvcurveto
          -84 -78 -83 -60 -47 vhcurveto
          hintmask 1010111101100000
          -36 -47 -53 -3 -55 -16 -41 -6 callgsubr
          -6 1 -35 18 -9 7 rrcurveto
          -40 29 -23 28 49 vvcurveto
          70 63 94 75 6 vhcurveto
          1 3 48 1 19 hhcurveto
          10 48 -1 -1 10 hvcurveto
          16 -11 23 -23 -22 vvcurveto
          -63 -59 -58 -62 -14 -30 15 17 15 13 8 13 9 vhcurveto
          3 -4 18 -18 4 -4 rrcurveto
          13 hlineto
          10 3 26 9 1 2 rrcurveto
          hintmask 1001111011100000
          1 1 8 2 38 -34 3 -28 -48 -43 -15 -56 -54 44 -16 47 28 23 -4 18 22 hvcurveto
          10 9 44 44 9 9 rrcurveto
          18 22 -4 21 27 vvcurveto
          47 -12 45 -53 15 vhcurveto
          -10 -48 1 -10 hhcurveto
          -43 -37 4 -17 -40 hvcurveto
          -71 -31 -56 -89 -73 vvcurveto
          endchar
        </CharString>
        <CharString name="bullet.007">
          187 14 -22 callgsubr
          441 -20 158 -20 hstemhm
          hintmask 01110000
          26 333 rmoveto
          -125 151 -15 90 -36 vhcurveto
          73 -29 49 -65 79 -19 6 -1 51 -9 6 -3 7 -2 50 -32 6 -3 rrcurveto
          hintmask 10110000
          20 callgsubr
          20 3 28 10 8 hvcurveto
          13 15 102 121 11 15 rrcurveto
          23 29 16 29 37 vvcurveto
          84 -79 74 -82 -51 -34 -39 -37 -32 vhcurveto
          -28 17 -32 3 -27 17 4 9 18 44 3 10 rrcurveto
          26 vlineto
          54 -50 34 -51 -62 -45 -36 -41 -44 vhcurveto
          17 -23 -16 10 -24 -1 -9 -1 -2 hhcurveto
          -59 -51 -44 -57 -81 vvcurveto
          endchar
        </CharString>
        <CharString name="bullet.008">
          250 -11 -21 693 -7 callsubr
          hintmask 11000000
          17 -6 rmoveto
          -5 9 -18 4 -2 vhcurveto
          0 8 -1 3 31 36 17 9 23 vhcurveto
          2 2 9 8 1 2 1 3 -3 20 2 3 6 8 35 36 9 6 rrcurveto
          1 1 8 0 4 57 36 -66 47 hhcurveto
          3 8 2 0 hvcurveto
          189 189 rlineto
          0 3 1 2 vhcurveto
          15 0 -15 18 hhcurveto
          4 8 1 1 hvcurveto
          3 3 19 42 3 5 10 13 93 99 10 13 3 4 18 35 4 11 rrcurveto
          0 1 5 1 29 -14 26 30 vvcurveto
          2 1 8 0 vhcurveto
          3 5 27 18 7 2 rrcurveto
          4 12 53 9 11 hhcurveto
          2 2 9 1 vvcurveto
          4 -2 9 0 vhcurveto
          -4 3 -42 18 -5 4 -2 2 3 21 -1 3 -1 6 -9 17 -2 2 rrcurveto
          hintmask 10100000
          0 -9 1 -4 vhcurveto
          hintmask 11000000
          -2 -8 -1 -2 hhcurveto
          -6 -15 -25 -61 -7 -13 rrcurveto
          -13 -7 -5 0 -13 -34 -17 15 -43 -12 -30 -2 -2 hhcurveto
          -5 -1 -29 -12 -5 1 rrcurveto
          5 -38 -20 34 -50 hhcurveto
          -41 -52 -81 -40 hvcurveto
          -30 26 -18 -27 vvcurveto
          -7 vlineto
          -1 -11 -10 -2 -1 vhcurveto
          -3 -4 -18 -32 -4 -2 -3 -1 -19 13 -3 1 -5 2 -36 9 -9 1 rrcurveto
          -7 hlineto
          -70 -37 -85 -60 hvcurveto
          -35 39 -23 -37 vvcurveto
          -2 0 -8 -1 -1 vhcurveto
          -25 -50 -63 24 -25 -37 rrcurveto
          endchar
        </CharString>
        <CharString name="c">
          -87 -29 35 275 7 callgsubr
          hintmask 10101000
          294 -29 rmoveto
          -34 callgsubr
          -33 callsubr
          hintmask 11001000
          -4 callsubr
          hintmask 10011000
          2 callsubr
          hintmask 11001000
          3 callsubr
          -182 112 -51 149 hvcurveto
          endchar
        </CharString>
        <CharString name="caron">
          -219 675 -21 167 -20 hstem
          18 778 -91 callgsubr
        </CharString>
        <CharString name="ccedilla">
          -87 -258 37 -37 62 167 35 -35 145 165 7 callgsubr
          61 38 hintmask 1001100110000000
          169 -61 callgsubr
          vvcurveto
          11 4 11 3 10 vhcurveto
          -1 13 13 -1 13 hhcurveto
          -34 callgsubr
          hintmask 1010010110000000
          -33 callsubr
          hintmask 1010100110000000
          -4 callsubr
          hintmask 1010001110000000
          2 callsubr
          hintmask 1010100110000000
          3 callsubr
          -150 75 -60 110 -17 hvcurveto
          -5 -18 -1 -20 -10 vvcurveto
          -36 callsubr
          hintmask 0110100110000000
          -29 callsubr
        </CharString>
        <CharString name="cedilla">
          -442 -258 37 -37 62 212 -20 hstemhm
          62 50 18 38 hintmask 10111000
          19 -61 callgsubr
          21 14 17 21 vvcurveto
          10 -2 6 -11 -30 -7 -66 -21 vhcurveto
          -36 callsubr
          hintmask 01111000
          -29 callsubr
        </CharString>
        <CharString name="cent">
          -140 14 -21 111 43 560 -20 hstem
          165 21 rmoveto
          -14 4 -14 18 1 15 9 4 vhcurveto
          25 99 rlineto
          -1 11 12 0 11 hhcurveto
          42 38 10 29 35 hvcurveto
          17 13 27 19 27 vvcurveto
          10 -11 6 -8 19 callgsubr
          -38 -34 -40 -32 -51 hhcurveto
          -36 -18 6 20 -38 hvcurveto
          -8 2 0 8 6 2 1 6 1 vvcurveto
          81 341 rlineto
          17 3 27 3 22 hhcurveto
          63 28 -26 -43 36 hvcurveto
          2 6 -1 2 hhcurveto
          13 9 9 14 hvcurveto
          0 -1 8 1 vvcurveto
          -25 45 -111 45 5 21 7 20 21 vvcurveto
          12 -2 17 -18 vhcurveto
          -16 -16 -18 -51 -9 -38 -137 -39 -79 -109 -19 -138 rrcurveto
          -3 -1 -10 -2 vvcurveto
          -89 76 -45 68 -37 vhcurveto
          2 -3 4 -2 -5 vvcurveto
          -2 vlineto
          -7 -33 -13 -62 -2 vvcurveto
          endchar
        </CharString>
        <CharString name="circumflex">
          -225 675 -20 39 -21 115 -20 hstemhm
          hintmask 10100000
          12 689 -97 callsubr
          hintmask 01100000
          -103 callgsubr
        </CharString>
        <CharString name="colon">
          -393 -23 119 238 119 hstem
          55 131 vstem
          55 32 rmoveto
          -60 callsubr
          357 vmoveto
          -60 callsubr
          endchar
        </CharString>
        <CharString name="comma">
          -67 callgsubr
        </CharString>
        <CharString name="copyright">
          6 121 25 0 51 223 -20 214 -20 hstemhm
          47 49 hintmask 10111000
          47 337 rmoveto
          -32 23 -44 14 -25 vhcurveto
          -93 53 93 -22 101 hhcurveto
          66 88 -1 66 39 hvcurveto
          38 63 26 48 71 vvcurveto
          111 -84 99 -106 34 vhcurveto
          1 -1 -12 1 -5 hhcurveto
          -5 -12 -1 -1 -2 hvcurveto
          -6 -40 -23 -2 -4 hvcurveto
          -6 -1 -40 -9 -5 -2 -38 -13 rcurveline
          -80 -32 -95 -101 -92 vvcurveto
          49 9 rmoveto
          111 117 73 98 20 vhcurveto
          4 1 40 -2 6 1 rrcurveto
          1 3 31 11 3 1 5 1 1 hhcurveto
          2 4 -28 callgsubr
          72 -30 47 -31 19 -77 rrcurveto
          5 -15 8 -45 -2 vvcurveto
          -1 -14 -18 -70 -6 -17 -3 -7 -26 -43 -9 -13 rrcurveto
          -51 -36 -63 -1 -54 hhcurveto
          -137 -113 55 145 hvcurveto
          113 -35 rmoveto
          -15 2 -9 11 -14 vhcurveto
          hintmask 01111000
          -39 34 27 -37 53 hhcurveto
          22 91 20 37 9 -2 5 -10 5 hvcurveto
          -28 -15 -30 -15 -31 -7 rrcurveto
          -12 24 -1 9 22 vvcurveto
          41 6 39 7 41 vhcurveto
          24 7 37 -16 10 hhcurveto
          -11 0 -11 15 26 20 73 19 vhcurveto
          -4 -19 -2 -1 -3 hvcurveto
          -3 -21 -12 -1 -2 hvcurveto
          -8 -2 -71 -9 -9 -1 -8 -2 -27 -9 -2 -2 -11 -7 -36 -36 -4 -7 -3 -5 -18 -54 -4 -17 rrcurveto
          0 -1 -9 -3 vvcurveto
          endchar
        </CharString>
        <CharString name="currency">
          -146 145 -21 49 43 -23 23 355 -20 hstemhm
          71 50 262 43 hintmask 10111100
          65 143 rmoveto
          -12 12 -7 11 vhcurveto
          3 hlineto
          3 1 9 4 1 vvcurveto
          56 62 rlineto
          0 4 -50 callgsubr
          hintmask 11011100
          32 27 -20 31 25 22 13 25 hhcurveto
          56 -56 rlineto
          31 19 hlineto
          -43 55 rlineto
          13 vlineto
          31 30 25 40 45 vvcurveto
          60 -22 37 -41 49 vhcurveto
          -3 50 65 12 vvcurveto
          9 -9 10 -9 -3 -9 -5 -2 -1 vhcurveto
          -56 -68 rlineto
          -8 hlineto
          -30 -26 19 -32 -42 -20 -57 -40 -1 -5 1 -1 hhcurveto
          28 -21 -25 18 -36 hhcurveto
          -38 21 -12 31 -27 vhcurveto
          -35 -20 -22 -33 vvcurveto
          -4 0 -20 1 -4 vhcurveto
          -63 37 12 -26 1 hhcurveto
          -1 -2 0 -2 0 vvcurveto
          -55 -68 rlineto
          21 callsubr
          56 193 rmoveto
          14 -1 14 8 15 vhcurveto
          48 43 45 45 36 hhcurveto
          2 9 0 -1 1 hvcurveto
          81 -31 rlineto
          33 -12 5 -57 -27 vvcurveto
          -65 -18 -12 -51 -25 vhcurveto
          -11 -21 -7 -15 -27 hhcurveto
          -66 -72 47 73 hvcurveto
          endchar
        </CharString>
        <CharString name="d">
          31 -39 62 -45 45 338 52 269 -20 hstemhm
          33 166 230 114 hintmask 10111100
          33 190 rmoveto
          -128 44 -101 129 89 81 48 63 51 vhcurveto
          hintmask 01111100
          -41 20 35 -53 53 hhcurveto
          42 85 20 56 16 -9 7 -15 1 hvcurveto
          -27 -27 -26 -21 -38 -2 rrcurveto
          -3 13 -1 10 10 vvcurveto
          49 9 27 3 50 vhcurveto
          8 133 24 163 15 127 rrcurveto
          1 16 14 9 20 vvcurveto
          18 -4 9 -26 -18 -2 -4 -12 -19 vhcurveto
          -1 -1 -9 -3 -2 hhcurveto
          -19 -7 -148 -41 -18 -3 rrcurveto
          -12 -3 -11 -14 -13 vvcurveto
          -11 7 -11 18 vhcurveto
          24 17 16 24 hhcurveto
          9 2 -46 -32 -48 -1 -42 -18 -36 hvcurveto
          8 -21 -19 34 -107 hhcurveto
          -63 -167 -103 -120 hvcurveto
          166 34 rmoveto
          77 51 60 69 55 47 -55 -35 -59 -23 -189 -114 -70 -15 135 66 vhcurveto
          endchar
        </CharString>
        <CharString name="dagger">
          -278 39 -21 615 -20 hstemhm
          35 168 -51 164 hintmask 11100000
          167 31 rmoveto
          -13 4 7 0 12 hhcurveto
          4 9 1 6 hvcurveto
          344 100 vlineto
          hintmask 11010000
          12 1 18 7 hvcurveto
          61 -116 -68 72 vvcurveto
          155 vlineto
          9 -17 10 -8 -19 -4 -33 -34 vhcurveto
          -35 2 -33 -39 vvcurveto
          4 -9 3 -7 -9 vvcurveto
          hintmask 11100000
          -33 -126 27 -47 vvcurveto
          -23 26 -4 19 vhcurveto
          3 20 38 10 1 hhcurveto
          19 4 -21 -24 hvcurveto
          -17 -2 -17 -9 vvcurveto
          1 -37 4 -173 2 -38 rrcurveto
          endchar
        </CharString>
        <CharString name="daggerdbl">
          -217 27 -21 168 48 -48 62 179 50 -50 231 hstemhm
          46 186 -56 56 -36 36 -36 186 hintmask 1011010000000000
          196 52 rmoveto
          -13 6 -33 19 4 7 3 3 vhcurveto
          2 14 3 61 1 12 rrcurveto
          10 -1 55 12 vvcurveto
          13 58 -2 26 hhcurveto
          hintmask 1011000010000000
          20 28 3 25 18 -20 16 -18 hvcurveto
          -20 -20 -7 -16 hhcurveto
          hintmask 1010110000000000
          -22 -10 0 7 -24 hvcurveto
          -6 75 0 20 84 14 149 -17 41 vvcurveto
          15 -21 10 -10 vhcurveto
          -5 -38 -69 -2 -1 hhcurveto
          -9 -2 8 8 hvcurveto
          46 7 45 46 vvcurveto
          16 -12 6 -14 vhcurveto
          hintmask 1101001000000000
          -19 -11 -2 -52 hvcurveto
          -38 7 -39 -38 vvcurveto
          -7 -1 -5 -11 vhcurveto
          hintmask 1101010000000000
          -125 hlineto
          -1 -12 -20 -1 -2 12 -27 1 hvcurveto
          131 hlineto
          6 -6 rlineto
          hintmask 1101000100000000
          10 -10 3 -117 -12 vvcurveto
          -16 vlineto
          -21 -3 -11 -31 vhcurveto
          -34 -20 7 -30 hhcurveto
          hintmask 1101010000000000
          -19 -13 -13 -17 -15 6 -10 19 hvcurveto
          hintmask 1101000100000000
          125 hlineto
          5 2 -8 -6 hvcurveto
          -38 -7 -35 -35 vvcurveto
          endchar
        </CharString>
        <CharString name="degree">
          -402 502 44 93 45 -2 -20 hstemhm
          22 49 95 43 hintmask 11011000
          22 605 rmoveto
          -9 2 -12 6 -7 vhcurveto
          55 -59 callgsubr
          hintmask 10111000
          -5 -24 -2 -5 hhcurveto
          -29 -12 -22 -33 -32 vvcurveto
          49 hmoveto
          hintmask 11011000
          22 1 12 44 26 24 -3 -31 -26 -24 -33 -29 -26 -16 39 20 vhcurveto
          endchar
        </CharString>
        <CharString name="dieresis">
          -52 703 95 hstem
          126 106 96 106 vstem
          126 746 -107 callsubr
        </CharString>
        <CharString name="divide">
          -126 126 -21 407 -20 hstem
          69 333 rmoveto
          -12 -6 -3 -10 -12 vvcurveto
          5 29 2 6 hhcurveto
          18 3 151 21 20 2 rrcurveto
          11 91 -3 3 11 hvcurveto
          8 1 36 18 6 6 rrcurveto
          4 4 7 20 4 vvcurveto
          -6 -37 -2 -1 -6 hvcurveto
          -51 -7 -237 -35 -51 -8 rrcurveto
          188 -163 rmoveto
          -40 -16 -29 -35 -6 hvcurveto
          -1 4 22 0 5 hhcurveto
          29 28 8 38 hvcurveto
          5 vlineto
          5 -4 -17 9 -5 hhcurveto
          -62 301 rmoveto
          -16 3 17 2 11 hhcurveto
          36 25 18 37 hvcurveto
          -41 -27 -8 -33 -24 hvcurveto
          endchar
        </CharString>
        <CharString name="dollar">
          -161 -33 -21 759 -20 hstem
          47 173 41 174 vstem
          168 41 rmoveto
          1 -12 8 -56 4 -12 rrcurveto
          -15 4 13 0 10 hhcurveto
          53 -55 83 12 41 hvcurveto
          84 23 104 -12 122 vvcurveto
          15 -1 10 -13 15 vhcurveto
          -14 16 -56 56 -10 8 -54 27 rcurveline
          -9 4 -47 19 -11 3 rrcurveto
          161 vlineto
          14 26 rlineto
          1 1 22 1 9 hhcurveto
          31 30 1 -16 27 hvcurveto
          -6 -5 -8 -29 1 -7 1 -7 19 -18 6 -1 3 1 9 10 1 2 9 16 38 75 8 16 rrcurveto
          13 vlineto
          -6 5 -18 9 -4 -1 rrcurveto
          -3 -19 -25 -1 -5 hvcurveto
          -1 -21 0 -9 -8 -26 0 1 -2 vhcurveto
          -11 1 -22 9 3 vvcurveto
          118 vlineto
          0 -24 -2 -10 -9 vhcurveto
          -1 -2 -10 -28 -2 -10 -1 -7 -9 -54 -4 -6 rrcurveto
          -1 -18 -9 -8 -3 vhcurveto
          -40 -13 rlineto
          -56 -28 -51 -68 -64 vvcurveto
          -30 71 -45 23 -5 vhcurveto
          93 -14 rlineto
          9 -2 18 -9 -2 vvcurveto
          -191 vlineto
          -16 -75 -12 3 -16 hvcurveto
          -13 2 -37 19 -2 6 -6 8 -10 35 -3 19 rrcurveto
          -25 -26 -25 -48 -35 vvcurveto
          -3 0 -14 1 -3 vhcurveto
          6 3 28 8 6 3 rrcurveto
          6 hlineto
          28 36 -11 -16 24 hvcurveto
          -86 151 rmoveto
          -2 0 -3 1 -4 vhcurveto
          4 4 2 1 -6 3 -1 1 rlinecurve
          endchar
        </CharString>
        <CharString name="dotlessi">
          -236 -54 callgsubr
          10 callgsubr
          -168 168 hintmask 10011000
          -47 callgsubr
          hintmask 01011000
          -14 callgsubr
          hintmask 00111000
          -29 callgsubr
          hintmask 01011000
          -30 callsubr
          hintmask 10010100
          -98 callgsubr
          hintmask 10011000
          -31 callsubr
          endchar
        </CharString>
        <CharString name="e">
          -31 callgsubr
          -101 callgsubr
          endchar
        </CharString>
        <CharString name="eacute">
          -31 callgsubr
          235 -20 -101 callgsubr
          -73 417 -106 callgsubr
        </CharString>
        <CharString name="ecircumflex">
          -31 callgsubr
          236 -20 -101 callgsubr
          -152 388 -100 callgsubr
        </CharString>
        <CharString name="edieresis">
          -31 callgsubr
          133 95 hstemhm
          28 206 -116 116 86 106 -43 125 hintmask 11110010
          -105 callgsubr
          hintmask 11101100
          -116 427 -107 callsubr
        </CharString>
        <CharString name="egrave">
          -31 callgsubr
          244 -20 -101 callgsubr
          148 426 -102 callgsubr
        </CharString>
        <CharString name="eight">
          -35 -35 -21 64 -21 324 48 286 37 hstemhm
          4 250 -192 192 248 51 hintmask 11110110
          55 117 rmoveto
          -65 96 -79 59 -17 vhcurveto
          32 -10 5 9 25 -11 87 12 rcurveline
          130 62 13 6 28 64 2 11 rlinecurve
          1 2 11 74 1 17 -25 74 rcurveline
          -10 24 -59 34 7 vvcurveto
          5 12 4 8 vhcurveto
          61 39 21 64 68 vvcurveto
          83 -43 24 -52 33 vhcurveto
          -1 -4 4 2 -1 hvcurveto
          20 -40 -34 5 -45 hhcurveto
          -113 -5 -33 -79 -61 hvcurveto
          -17 -23 -8 8 -18 vvcurveto
          -10 1 -8 12 -5 vhcurveto
          37 -118 rlineto
          4 -6 9 -13 -2 -1 -1 -2 -1 vvcurveto
          -59 -40 -70 -77 -76 vvcurveto
          hintmask 11111010
          -24 -34 2 -32 -28 28 -1 23 -2 hvcurveto
          199 -18 rmoveto
          51 28 161 78 85 57 -67 -80 -105 -91 -72 -118 -39 0 90 22 vhcurveto
          61 363 rmoveto
          39 12 144 38 81 67 -68 -78 -76 -60 -64 -78 -68 8 48 55 vhcurveto
          endchar
        </CharString>
        <CharString name="ellipsis">
          167 -23 119 hstem
          40 131 162 131 162 131 cntrmask 01110000
          -27 callgsubr
          293 hmoveto
          -32 38 -23 29 -40 callsubr
          -35 -46 -25 -39 vhcurveto
          293 hmoveto
          -60 callsubr
          endchar
        </CharString>
        <CharString name="emdash">
          19 -55 callgsubr
          194 -45 callsubr
          -119 -6 -48 -64 -130 -42 callgsubr
        </CharString>
        <CharString name="endash">
          -53 -55 callgsubr
          123 0 8 118 vhcurveto
          17 8 10 15 17 -15 2 -18 hvcurveto
          -49 -118 -43 callsubr
        </CharString>
        <CharString name="equal">
          -195 189 -21 203 39 hstem
          268 221 rmoveto
          -31 hlineto
          -53 -6 -123 -18 -1 vvcurveto
          -28 vlineto
          10 43 2 1 10 hvcurveto
          10 80 11 1 10 hvcurveto
          12 1 90 -2 12 1 rrcurveto
          11 2 15 4 13 vvcurveto
          2 0 4 -1 vhcurveto
          13 -41 -17 0 -37 hhcurveto
          -182 189 rmoveto
          -40 vlineto
          11 53 1 12 hhcurveto
          32 2 149 9 32 3 rrcurveto
          0 1 4 2 vvcurveto
          6 -4 13 -9 vhcurveto
          endchar
        </CharString>
        <CharString name="eth">
          -54 -31 58 345 49 262 -20 hstem
          31 203 142 153 vstem
          241 627 rmoveto
          18 -30 15 -23 11 -22 rrcurveto
          -26 -11 -66 -16 -31 vvcurveto
          -17 10 -5 12 11 15 7 7 15 vhcurveto
          51 24 15 -31 10 -29 13 -36 rlinecurve
          5 -23 -21 2 -20 hhcurveto
          -61 -46 -20 -44 -59 hvcurveto
          -38 -28 -10 -8 -30 -73 rrcurveto
          -4 -11 -2 -7 -8 vvcurveto
          -50 4 -49 28 -43 vhcurveto
          -81 68 73 -30 90 hhcurveto
          102 64 19 96 50 hvcurveto
          18 35 1 52 49 vvcurveto
          62 -37 171 -73 115 vhcurveto
          42 25 rlineto
          8 3 3 7 7 vvcurveto
          16 -1 -11 7 -7 hhcurveto
          -15 -29 -18 -11 -17 hvcurveto
          40 -33 -50 39 -59 hhcurveto
          -15 -8 -10 -12 hvcurveto
          1 -9 4 -12 9 -13 rrcurveto
          -7 -445 rmoveto
          -1 10 0 12 11 vvcurveto
          71 18 86 72 36 17 -110 -39 -54 -8 -23 -6 -49 vhcurveto
          -43 -6 -15 -27 -49 hhcurveto
          -48 -9 104 51 -1 hvcurveto
          endchar
        </CharString>
        <CharString name="exclam">
          -312 -7 194 501 -20 hstem
          49 200 vstem
          67 443 rmoveto
          -58 11 -144 87 27 19 31 25 6 vhcurveto
          62 299 rlineto
          72 -68 20 -61 -25 -30 -9 -28 -8 vhcurveto
          -19 -192 rlineto
          -2 -1 -11 -3 vvcurveto
          -18 -358 rmoveto
          -56 59 -36 51 46 44 21 52 33 -5 88 -69 -67 -59 -30 -72 vhcurveto
          endchar
        </CharString>
        <CharString name="exclamdown">
          -311 14 -21 447 -20 75 193 hstem
          50 200 vstem
          68 238 rmoveto
          -3 1 -11 -2 vvcurveto
          3 -28 12 -135 4 -29 rrcurveto
          -27 8 30 -10 25 hhcurveto
          61 68 20 73 hvcurveto
          -63 298 rlineto
          25 -5 -19 31 -27 hhcurveto
          -87 -11 -144 -58 hvcurveto
          -18 358 rmoveto
          -72 59 -29 66 70 5 87 33 52 -44 21 -47 -50 -59 -36 -56 vhcurveto
          endchar
        </CharString>
        <CharString name="f">
          -203 16 -21 26 -21 471 202 -37 56 hstemhm
          31 235 -181 181 hintmask 01101000
          31 19 rmoveto
          -12 11 -7 11 vhcurveto
          hintmask 10010100
          177 119 -5 4 hhcurveto
          19 21 4 20 37 -44 -23 -7 20 hvcurveto
          -13 135 -18 86 -13 36 rrcurveto
          12 76 9 28 14 -12 6 -12 hvcurveto
          -4 -39 -7 -21 hhcurveto
          -29 -3 94 73 49 0 7 13 39 hvcurveto
          14 5 23 0 12 hhcurveto
          50 1 -67 -34 32 hvcurveto
          hintmask 01101000
          -39 36 29 -25 13 hhcurveto
          21 1 21 18 hvcurveto
          23 -13 110 24 vvcurveto
          4 -10 -8 2 -10 -19 -4 -20 -24 hhcurveto
          hintmask 01010100
          14 -38 -45 25 -38 hhcurveto
          -64 -39 -8 -56 -55 hvcurveto
          -37 -44 -13 -53 -178 vvcurveto
          -18 -7 -32 4 -25 vvcurveto
          -19 31 0 26 -3 vhcurveto
          -81 26 -61 -74 -2 -1 -16 -3 vvcurveto
          hintmask 01101000
          -28 -22 -58 27 -52 vvcurveto
          endchar
        </CharString>
        <CharString name="five">
          -14 -31 48 678 -20 hstem
          308 211 29 50 vstem
          14 124 rmoveto
          -91 190 -64 66 vhcurveto
          17 2 43 9 1 1 143 87 rcurveline
          37 22 8 56 39 vvcurveto
          36 -7 51 -38 19 vhcurveto
          -124 63 -107 11 71 217 234 32 rlineto
          -118 vlineto
          -8 11 1 5 39 -5 78 29 21 6 78 -37 -21 -17 -29 -9 -17 vhcurveto
          -30 -59 -81 4 -63 hhcurveto
          -17 -46 0 1 -1 hvcurveto
          -8 1 -54 17 -6 1 rrcurveto
          -1 -7 1 -3 hhcurveto
          -22 -18 -39 -22 -3 0 -2 1 -3 hvcurveto
          -38 -229 rlineto
          -8 -8 2 -18 -10 vvcurveto
          -19 2 -3 20 vhcurveto
          53 49 27 53 4 20 -1 4 hhcurveto
          12 -78 8 -84 -64 -10 -2 -51 -10 vvcurveto
          -8 -7 -11 0 -11 hhcurveto
          -38 -63 1 31 -30 hvcurveto
          -81 81 rlineto
          15 -3 -14 4 -11 hhcurveto
          -16 -7 -11 -14 hvcurveto
          endchar
        </CharString>
        <CharString name="florin">
          -86 -7 75 223 40 56 48 198 55 hstem
          3 78 rmoveto
          -53 95 3 30 -9 vhcurveto
          -8 27 7 -18 31 hhcurveto
          58 54 38 56 21 hvcurveto
          80 204 rlineto
          88 hlineto
          12 0 14 7 3 0 16 -6 hvcurveto
          -71 hlineto
          5 -4 12 11 vvcurveto
          10 3 8 10 2 vhcurveto
          93 11 rlineto
          8 2 17 12 8 vvcurveto
          16 -11 7 -13 -24 -20 -4 -3 -25 vhcurveto
          6 vlineto
          32 109 167 46 2 3 23 callgsubr
          75 -49 rlineto
          0 10 -2 4 16 8 0 18 14 -3 1 -16 12 vhcurveto
          -12 9 -61 39 -14 8 -43 6 rcurveline
          -142 -103 -125 -123 -35 hvcurveto
          -6 -6 rlineto
          -42 -3 -70 4 -26 vvcurveto
          -7 3 -15 10 vhcurveto
          86 hlineto
          -13 -4 -45 -20 vhcurveto
          -81 hlineto
          -12 0 -14 -8 -36 64 16 23 -8 hvcurveto
          -12 -43 -81 -143 rlineto
          -17 -9 -19 -8 -19 -37 -24 32 -35 hhcurveto
          -13 -6 -12 -10 hvcurveto
          endchar
        </CharString>
        <CharString name="flower">
          49 -104 -21 675 -20 hstem
          22 56 rmoveto
          -47 63 28 26 -6 vhcurveto
          7 -2 53 -26 15 -9 rrcurveto
          -32 51 -19 -87 73 hhcurveto
          5 -3 32 -1 6 vhcurveto
          -1 2 -12 9 1 vvcurveto
          7 vlineto
          19 34 21 16 4 vhcurveto
          12 3 53 8 11 2 rrcurveto
          29 -34 8 -23 vhcurveto
          -6 hlineto
          -63 -12 rlineto
          -12 hlineto
          6 39 15 38 16 36 rrcurveto
          -54 40 59 -22 66 hhcurveto
          64 62 57 64 hvcurveto
          4 -1 13 1 vvcurveto
          -4 12 -27 53 -7 11 rrcurveto
          37 33 37 25 18 hvcurveto
          14 21 0 28 22 vvcurveto
          57 -50 50 -56 -51 -33 -15 -37 -38 vhcurveto
          37 -49 15 54 -80 -9 -27 -3 -1 hhcurveto
          -3 -1 -36 -35 -11 -15 -25 -31 19 -30 -19 -39 -2 -4 -32 -18 -4 -3 rrcurveto
          -30 -30 -21 -54 -41 vvcurveto
          -30 0 -3 14 -31 vhcurveto
          5 -13 18 -35 2 -2 rrcurveto
          -21 21 43 12 23 hhcurveto
          -2 1 -12 -2 vvcurveto
          -3 -11 -8 -53 -2 -12 -16 10 -79 36 -18 4 rrcurveto
          1 -2 -24 2 -10 hhcurveto
          -26 -27 4 -32 hvcurveto
          endchar
        </CharString>
        <CharString name="four">
          -15 -13 53 -40 40 189 43 435 -7 callsubr
          285 178 -178 191 68 46 hintmask 10101011
          79 12 rmoveto
          -25 23 0 19 vhcurveto
          hintmask 01101011
          153 155 4 9 153 hvcurveto
          -25 callsubr
          -106 hlineto
          hintmask 10101101
          49 -13 48 50 vvcurveto
          7 1 17 0 vhcurveto
          112 12 12 13 rlineto
          6 2 22 7 vvcurveto
          27 -2 43 -28 -12 -4 -3 -12 vhcurveto
          -5 7 -21 -15 vvcurveto
          -6 -5 -13 -1 vhcurveto
          -74 hlineto
          -7 -1 8 11 5 0 6 1 1 hvcurveto
          -31 267 rlineto
          1 8 1 14 15 vvcurveto
          45 -7 62 -32 vhcurveto
          hintmask 10110011
          -2 -3 -1 -2 hhcurveto
          -390 -453 rlineto
          0 -1 -2 -1 vvcurveto
          -12 23 -10 9 vhcurveto
          211 hlineto
          5 9 7 2 10 hhcurveto
          16 2 -70 -48 hvcurveto
          -37 -1 -17 -15 vvcurveto
          -6 -6 rlineto
          -1 -143 -5 -16 -19 -21 -1 -24 vhcurveto
          162 466 rmoveto
          11 hlineto
          -69 16 -68 -69 vvcurveto
          -201 hlineto
          endchar
        </CharString>
        <CharString name="g">
          -35 -253 -21 292 58 259 75 -75 102 hstemhm
          35 160 -160 190 145 160 -147 147 -147 175 hintmask 1110100100000000
          174 -274 rmoveto
          125 66 52 71 60 hvcurveto
          93 110 12 119 140 vvcurveto
          49 -4 56 -4 42 vhcurveto
          hintmask 1101100010000000
          8 15 28 10 18 vvcurveto
          29 -70 0 -48 -34 -30 -2 -34 -7 1 -49 3 -9 vhcurveto
          hintmask 1110100100000000
          27 -23 -85 47 -33 hhcurveto
          -131 -73 -128 -100 -104 70 -60 99 54 88 26 58 37 hvcurveto
          -114 -41 -190 -124 -24 vhcurveto
          -5 2 -18 60 9 14 8 59 8 vvcurveto
          23 -8 13 -17 9 vhcurveto
          -19 -2 -41 0 -2 -1 rrcurveto
          -62 -14 -17 -18 -66 vvcurveto
          -87 57 -57 80 vhcurveto
          54 422 rmoveto
          hintmask 1110011000000000
          -2 13 -1 16 16 vvcurveto
          59 13 83 44 53 35 -35 -76 -126 -56 -22 -43 -23 -16 35 37 -4 vhcurveto
          endchar
        </CharString>
        <CharString name="germandbls">
          -20 -98 -21 120 -21 304 48 311 36 hstemhm
          109 167 -142 161 43 244 -188 188 -99 48 6 45 hintmask 1111011000000000
          35 -99 rmoveto
          -14 24 9 -6 23 21 11 20 24 hhcurveto
          204 hlineto
          8 0 12 4 hvcurveto
          40 -64 -28 52 vvcurveto
          hintmask 1111101000000000
          -12 98 -7 158 79 vvcurveto
          hintmask 1111010011000000
          83 8 54 11 78 vhcurveto
          6 vlineto
          31 75 rlineto
          22 9 47 9 19 hhcurveto
          49 33 -40 -45 -57 -44 -42 -38 -39 hvcurveto
          hintmask 1111100100000000
          -6 -13 -1 -8 -12 vvcurveto
          -20 3 -5 22 -17 vhcurveto
          hintmask 1111100011000000
          67 -30 51 -76 -73 vvcurveto
          hintmask 1111101000000000
          -135 -199 19 -35 vvcurveto
          -11 8 -24 14 1 3 5 callsubr
          161 56 rlineto
          54 18 3 90 42 vvcurveto
          74 -80 84 -51 31 vhcurveto
          -8 4 0 1 7 vvcurveto
          7 34 33 11 16 vhcurveto
          hintmask 1111100011000000
          13 19 29 62 1 6 rrcurveto
          62 vlineto
          21 -80 65 -25 vhcurveto
          -112 hlineto
          -6 -53 -21 -9 -15 hvcurveto
          -104 -62 -27 -103 -109 vvcurveto
          -37 vlineto
          -6 -6 rlineto
          -80 hlineto
          -10 -4 -20 -7 -15 2 -9 6 -17 hvcurveto
          16 18 17 4 24 hhcurveto
          31 6 -55 -37 3 hvcurveto
          hintmask 1111011000000000
          5 -74 13 -85 -71 -30 -100 44 -63 vvcurveto
          -1 0 -9 1 -2 vhcurveto
          endchar
        </CharString>
        <CharString name="grave">
          18 callgsubr
          232 700 -102 callgsubr
        </CharString>
        <CharString name="greater">
          -196 145 -21 429 -20 hstem
          353 286 rmoveto
          8 56 22 16 vvcurveto
          6 0 11 -7 5 vhcurveto
          -323 198 -2 1 rlineto
          -4 -11 -9 -7 -2 hvcurveto
          -3 18 -31 1 vhcurveto
          137 -88 6 -6 106 -68 rlineto
          -12 vlineto
          -249 -174 rlineto
          -7 -5 0 0 -7 vvcurveto
          -5 2 -14 5 vhcurveto
          32 hlineto
          endchar
        </CharString>
        <CharString name="guillemotleft">
          -210 -63 callsubr
          18 -179 -24 callgsubr
          -14 10 vhcurveto
          -69 105 rlineto
          5 2 9 4 4 vhcurveto
          125 143 rlineto
          31 vlineto
          6 -15 1 -4 -6 -8 -1 -6 -4 vhcurveto
          endchar
        </CharString>
        <CharString name="guillemotright">
          -210 -64 callsubr
          18 179 rmoveto
          6 -5 -7 1 -6 hhcurveto
          -5 -14 -1 -6 hvcurveto
          -31 vlineto
          124 -143 rlineto
          5 -4 1 -9 -5 vvcurveto
          -68 -105 rlineto
          -15 -32 callgsubr
          endchar
        </CharString>
        <CharString name="guilsinglleft">
          -389 -63 callsubr
          endchar
        </CharString>
        <CharString name="guilsinglright">
          -388 -64 callsubr
          endchar
        </CharString>
        <CharString name="h">
          26 -18 88 -87 -21 34 -21 39 -21 378 81 230 -20 hstemhm
          64 226 93 194 hintmask 01011111
          -11 -9 rmoveto
          -20 11 -9 21 vhcurveto
          6 hlineto
          hintmask 10001111
          11 43 21 9 53 hhcurveto
          hintmask 00101111
          79 -9 -7 53 hhcurveto
          17 18 1 24 hvcurveto
          21 -5 -16 4 -8 -6 -5 -1 -6 hhcurveto
          -5 -5 1 6 -7 hvcurveto
          -1 12 -5 52 11 vvcurveto
          7 10 83 4 29 vhcurveto
          61 7 45 85 37 hhcurveto
          31 16 -21 -31 hvcurveto
          -182 vlineto
          -5 15 -36 5 -14 vhcurveto
          hintmask 01011111
          -62 24 39 -27 67 hhcurveto
          40 81 22 22 11 hvcurveto
          hintmask 10001111
          29 -7 4 -41 vhcurveto
          -9 -9 -1 -3 hhcurveto
          -12 11 -7 68 0 vvcurveto
          13 vlineto
          80 0 96 -63 63 vhcurveto
          36 -36 -43 16 -50 hhcurveto
          -32 -17 -3 -18 -27 hvcurveto
          -9 -5 -41 -30 -7 -9 rrcurveto
          5 -1 20 4 vvcurveto
          3 13 124 7 52 vhcurveto
          2 18 17 21 20 vvcurveto
          12 -5 16 -15 -7 -11 -13 -7 -5 vhcurveto
          -41 -25 -62 -19 -42 -11 rrcurveto
          -16 -4 -22 1 -16 vvcurveto
          -26 9 -4 20 vhcurveto
          6 8 1 7 hhcurveto
          -133 -5 -131 -7 -133 vhcurveto
          -55 -1 -60 -68 -27 vhcurveto
          -19 -8 -25 2 -23 vvcurveto
          endchar
        </CharString>
        <CharString name="heart">
          60 -96 -21 564 -20 34 -20 hstemhm
          hintmask 11000000
          26 276 rmoveto
          -90 38 -70 52 -72 vhcurveto
          2 -3 9 -9 1 -1 229 -148 rcurveline
          274 274 rlineto
          29 30 10 66 39 vvcurveto
          56 -31 78 -58 20 vhcurveto
          1 -10 -49 0 -11 hhcurveto
          -44 -24 6 -19 -38 hvcurveto
          -10 -19 -23 -29 -22 -4 -7 1 -1 hhcurveto
          -62 63 rlineto
          hintmask 10100000
          1 -2 -32 1 -13 hhcurveto
          -15 -47 -1 -1 -5 hvcurveto
          -7 -1 -26 -9 -4 -3 -11 -8 -44 -43 -9 -12 -6 -8 -18 -35 -1 -7 rrcurveto
          -3 -1 -40 -14 vvcurveto
          endchar
        </CharString>
        <CharString name="heart1">
          242 -139 -21 138 -21 33 -21 452 -20 46 -20 133 -20 hstemhm
          hintmask 11011100
          86 -43 rmoveto
          -2 -3 -28 callgsubr
          -8 -6 -35 -36 -8 -8 rrcurveto
          -15 -19 -1 -24 -23 vvcurveto
          39 14 4 11 39 hvcurveto
          11 4 26 9 0 vvcurveto
          5 6 0 26 -5 6 rrcurveto
          hintmask 10111100
          63 63 rlineto
          12 hlineto
          8 88 -44 -19 30 hvcurveto
          5 -2 29 -33 5 -3 rrcurveto
          0 8 -1 3 30 3 33 19 18 vhcurveto
          10 9 70 61 21 17 4 4 30 19 4 2 17 17 80 80 16 17 rrcurveto
          24 26 2 48 33 vvcurveto
          35 3 14 -17 32 vhcurveto
          -1 4 -24 30 4 vvcurveto
          2 27 27 11 9 vhcurveto
          3 4 17 9 4 hhcurveto
          28 3 61 -23 47 vvcurveto
          37 -50 -23 -14 22 vhcurveto
          -4 5 -7 52 -2 6 rrcurveto
          3 -9 8 -3 2 vhcurveto
          -7 -4 -27 -27 -4 -7 -3 -7 -18 -61 -4 -8 -6 -10 -26 -26 -6 -1 -5 -1 -40 24 -5 2 rrcurveto
          10 -24 -16 3 -22 hhcurveto
          -77 -54 -27 -61 -46 hvcurveto
          -2 -9 -1 -2 -39 -33 27 -41 hhcurveto
          -109 -29 -122 -87 -39 2 -36 23 -31 hvcurveto
          5 -7 41 -50 4 -7 rrcurveto
          -1 2 -3 -2 -2 -2 -3 -1 vvcurveto
          -7 -8 -35 -35 -8 -7 rrcurveto
          hintmask 11011100
          7 -10 -10 6 -12 hhcurveto
          endchar
        </CharString>
        <CharString name="hyphen">
          -62 callsubr
        </CharString>
        <CharString name="i">
          -55 callsubr
          56 201 10 callgsubr
          -219 181 -130 -48 callsubr
          hintmask 01011010
          -14 callgsubr
          hintmask 00111100
          -29 callgsubr
          hintmask 01011100
          -30 callsubr
          hintmask 10011001
          -54 callsubr
          13 -65 21 -9 36 hvcurveto
          -19 61 -2 5 72 -75 callsubr
          -54 -26 -18 -51 -85 callsubr
          hintmask 10011100
          -31 callsubr
          hintmask 10011010
          31 559 rmoveto
          -46 19 -33 48 53 61 59 54 54 -37 34 -56 vhcurveto
          -50 -25 -38 -39 -58 vvcurveto
          endchar
        </CharString>
        <CharString name="iacute">
          -55 callsubr
          243 -96 callgsubr
          47 598 -106 callgsubr
        </CharString>
        <CharString name="icircumflex">
          -55 callsubr
          244 -96 callgsubr
          -33 569 -100 callgsubr
        </CharString>
        <CharString name="idieresis">
          -55 callsubr
          150 95 hstemhm
          49 110 -28 168 -44 106 hintmask 10011101
          -47 callgsubr
          hintmask 01011101
          -14 callgsubr
          hintmask 00111101
          -29 callgsubr
          hintmask 01011101
          -95 callsubr
          hintmask 10011101
          -31 callsubr
          4 617 -107 callsubr
        </CharString>
        <CharString name="igrave">
          -55 callsubr
          252 -96 callgsubr
          268 607 -102 callgsubr
        </CharString>
        <CharString name="j">
          -171 -262 69 171 -21 60 -21 380 163 hstemhm
          -17 126 81 164 -106 155 hintmask 11111010
          59 -236 rmoveto
          3 23 -10 -2 12 hvcurveto
          -7 24 31 -7 27 hhcurveto
          88 44 39 43 30 hvcurveto
          52 75 10 113 249 vvcurveto
          70 vlineto
          9 -16 10 -3 vhcurveto
          -12 -230 84 -14 -51 -11 -15 -6 callgsubr
          -6 -2 -1 -7 -6 vvcurveto
          -54 37 27 33 -46 vhcurveto
          25 -36 1 -58 -28 vvcurveto
          -73 -10 -85 -10 -71 vhcurveto
          -46 -7 -21 -29 -53 hhcurveto
          -25 13 -13 34 35 vvcurveto
          11 1 57 6 vhcurveto
          -7 18 -1 9 -17 4 rrcurveto
          8 -32 -23 0 -33 hhcurveto
          -19 -20 rlineto
          -14 -1 -38 -29 vvcurveto
          -27 2 -29 18 -19 vhcurveto
          8 -9 40 -39 8 -8 rrcurveto
          hintmask 11111100
          131 676 rmoveto
          -53 25 -11 49 56 34 38 56 25 -64 44 -12 -32 -50 -46 -29 -5 vhcurveto
          -1 -1 -17 -6 vvcurveto
          endchar
        </CharString>
        <CharString name="k">
          -16 -7 -21 34 -21 25 -21 223 241 233 -20 hstemhm
          79 227 69 170 hintmask 10011110
          28 -3 rmoveto
          -18 9 -7 23 vhcurveto
          hintmask 01011110
          3 35 165 10 33 hhcurveto
          9 4 6 10 44 -68 -24 -9 26 hvcurveto
          -2 14 -3 66 -1 14 rrcurveto
          8 5 48 -50 callgsubr
          13 12 rlineto
          1 2 14 1 5 hhcurveto
          93 -11 -187 -27 100 hvcurveto
          hintmask 00111110
          -8 29 15 -1 43 hhcurveto
          35 57 3 20 32 -56 3 -19 18 hvcurveto
          -48 46 -59 133 -88 48 126 99 rcurveline
          28 37 2 24 34 -68 2 -43 -33 -26 -6 -21 -24 25 -3 18 -2 hvcurveto
          -52 -51 -65 -45 -59 -35 rrcurveto
          8 -1 37 8 vvcurveto
          13 5 186 8 99 vhcurveto
          6 15 1 12 15 vvcurveto
          11 -2 16 -20 -12 -25 -28 -4 -10 vhcurveto
          -21 -10 -95 -44 -22 -9 rrcurveto
          -2 -2 -6 callgsubr
          -17 -22 -10 -18 hvcurveto
          -1 1 -2 -1 vvcurveto
          22 -30 39 30 8 -49 rrcurveto
          13 -89 1 -27 -94 vvcurveto
          -93 0 -32 -14 -97 vhcurveto
          -50 -51 4 -36 vvcurveto
          endchar
        </CharString>
        <CharString name="l">
          -310 -16 51 -31 47 -45 -21 713 -7 callsubr
          41 200 -143 124 hintmask 10001100
          3 16 rmoveto
          -26 32 -6 22 vhcurveto
          hintmask 00101100
          3 11 1 1 hhcurveto
          hintmask 01001010
          82 11 61 5 85 3 rrcurveto
          16 2 4 14 13 vvcurveto
          18 -22 0 -22 vhcurveto
          -6 hlineto
          -28 -9 0 34 -4 hvcurveto
          -6 29 -1 13 27 vvcurveto
          hintmask 10001100
          142 19 99 154 16 19 63 33 vvcurveto
          13 -8 25 -17 vhcurveto
          hintmask 10010100
          -2 -2 -1 -2 hhcurveto
          -39 -11 -41 -22 -46 -17 rrcurveto
          -14 -7 -48 -15 -19 vvcurveto
          -20 14 -4 15 7 8 2 1 7 vhcurveto
          hintmask 10001010
          5 -13 1 -9 -10 -86 -7 -86 -86 vvcurveto
          -61 4 -59 8 -60 vhcurveto
          2 -13 5 -44 -5 vvcurveto
          -6 -4 -13 -3 vhcurveto
          -81 hlineto
          -9 -10 -10 -9 hvcurveto
          endchar
        </CharString>
        <CharString name="leaf">
          107 -83 -21 100 -21 616 -20 hstem
          118 -25 rmoveto
          38 -51 rlineto
          -3 2 9 -9 1 hhcurveto
          10 -3 53 -9 13 -1 rrcurveto
          -1 13 61 -2 14 hhcurveto
          28 vlineto
          -19 1 -89 9 -18 3 rrcurveto
          -24 4 -27 28 25 49 121 -32 66 vvcurveto
          -47 -41 -18 -9 -45 hvcurveto
          -1 -9 -1 -2 -2 -9 -6 callgsubr
          1 12 9 52 3 12 4 20 21 60 25 7 rrcurveto
          1 1 23 2 8 70 -1 -55 79 hhcurveto
          11 33 -13 callsubr
          hvcurveto
          11 2 80 33 9 3 7 2 51 -3 6 1 rrcurveto
          3 1 9 9 2 35 -51 24 37 vvcurveto
          2 10 callsubr
          3 2 31 9 4 2 rrcurveto
          66 33 72 84 78 vvcurveto
          12 3 15 -15 4 vhcurveto
          1 -10 -44 3 -10 hhcurveto
          -15 -44 -3 -1 -3 hvcurveto
          -21 -5 -88 -44 -17 -14 rrcurveto
          -16 hlineto
          38 3 63 -57 -48 -61 -77 -36 -22 vhcurveto
          -7 -12 -27 -53 -4 -11 -2 -5 -9 -40 -2 -5 -6 -20 -17 -53 -2 -2 -3 -6 -42 -39 -5 -6 -23 -30 -12 -46 -2 -37 -1 -9 3 -71 -2 -8 -7 -13 -43 -44 -14 -6 rrcurveto
          -2 -1 -8 -3 vvcurveto
          -12 5 -13 15 vhcurveto
          26 12 51 38 hhcurveto
          endchar
        </CharString>
        <CharString name="less">
          -197 145 -21 429 -20 hstem
          85 286 rmoveto
          242 -162 rlineto
          31 hlineto
          5 2 14 5 7 0 0 -7 5 hvcurveto
          -248 174 rlineto
          12 vlineto
          105 68 6 6 137 88 rlineto
          2 18 31 3 hvcurveto
          7 -3 -11 9 -3 hhcurveto
          -3 -1 -322 -198 rlineto
          -7 -5 0 -11 -6 -16 56 -22 -8 vvcurveto
          endchar
        </CharString>
        <CharString name="lily">
          -2 62 216 -202 -21 70 38 -38 153 -128 215 -50 50 -12 38 302 -20 hstemhm
          159 26 0 51 0 35 98 39 0 25 0 178 hintmask 1000001110101000
          271 87 rmoveto
          8 -12 16 -8 14 -5 12 25 rcurveline
          25 9 115 4 24 vhcurveto
          3 23 43 181 4 23 rrcurveto
          1 1 8 3 3 -1 9 1 vvcurveto
          -2 9 -21 81 -2 11 -6 39 17 14 -24 34 rrcurveto
          1 -3 1 -2 -8 -8 -5 -9 -4 vhcurveto
          -1 -7 -9 -51 -2 -5 rrcurveto
          -18 -48 -32 -31 -53 vvcurveto
          -6 vlineto
          1 -8 11 -60 -8 vvcurveto
          1 -47 0 -220 -1 -48 rrcurveto
          100 39 rmoveto
          -28 7 17 -36 33 hhcurveto
          9 5 2 11 5 hvcurveto
          -3 6 -18 26 -4 5 rrcurveto
          -4 7 -8 18 1 vvcurveto
          -1 2 -1 39 15 vvcurveto
          63 14 96 83 5 12 0 -1 vhcurveto
          6 -3 26 -27 7 -8 rrcurveto
          15 -23 -2 -30 -25 -10 -1 -24 -1 vvcurveto
          -1 -3 -18 -18 -6 -4 rrcurveto
          hintmask 0110010110101000
          -4 -5 -18 -9 -3 hhcurveto
          -25 -13 24 20 4 0 11 1 3 hvcurveto
          -4 3 17 -8 5 hhcurveto
          5 18 9 4 2 hvcurveto
          1 1 1 8 3 vvcurveto
          hintmask 0101001101010100
          22 -17 18 -21 -31 -35 -25 -32 -54 32 -42 58 31 25 28 23 19 vhcurveto
          20 24 -7 23 31 vvcurveto
          48 vlineto
          -1 2 -17 27 -7 8 -12 14 -35 35 -4 1 rrcurveto
          1 -20 1 -8 -37 -39 -4 -35 -21 vhcurveto
          -11 -16 -26 -53 -2 -6 rrcurveto
          -4 -2 -52 -20 -12 2 -52 -11 vvcurveto
          -186 95 rmoveto
          -35 3 -30 -18 -30 vhcurveto
          -3 -6 -31 -40 -3 -5 rrcurveto
          -2 -2 -2 -16 -2 vvcurveto
          hintmask 1000010101001000
          4 21 5 2 4 hvcurveto
          61 41 17 62 68 vvcurveto
          hintmask 0100100110101000
          64 -37 68 -72 -37 -22 -23 -28 -23 vhcurveto
          -20 -25 6 -24 -33 vvcurveto
          -9 0 -39 1 -8 vhcurveto
          -22 14 25 -4 24 hhcurveto
          41 23 16 43 4 0 12 -1 1 hvcurveto
          -4 6 -26 27 -8 4 rrcurveto
          1 -9 1 -3 -18 -9 -10 -17 vhcurveto
          -3 1 -8 -1 vvcurveto
          2 -3 22 -7 2 -3 rrcurveto
          2 -3 -10 -18 -4 vvcurveto
          -26 hlineto
          hintmask 1000010101001000
          40 -15 87 66 61 -1 -45 -49 vhcurveto
          endchar
        </CharString>
        <CharString name="logicalnot">
          -52 125 -21 291 -20 hstemhm
          431 89 -77 77 hintmask 11100000
          433 311 rmoveto
          -11 -2 -51 -12 vvcurveto
          hintmask 11010000
          -21 12 -22 -44 vvcurveto
          -27 6 -5 -19 50 5 12 2 1 hhcurveto
          6 6 rlineto
          26 2 58 33 vvcurveto
          93 -4 73 -35 vhcurveto
          -166 -20 -104 -8 -112 -11 rrcurveto
          -26 -37 -5 -32 -25 34 -1 20 hvcurveto
          75 76 19 76 32 68 -1 16 hhcurveto
          endchar
        </CharString>
        <CharString name="m">
          233 11 -2 callsubr
          24 -2 callsubr
          25 -21 334 84 hstemhm
          33 208 -140 140 -140 191 93 153 -139 139 98 155 -136 187 hintmask 1000011001010000
          33 15 rmoveto
          -24 14 2 42 -3 vhcurveto
          hintmask 0100010010110000
          1 33 124 1 32 hhcurveto
          8 5 6 8 9 vvcurveto
          31 -40 -14 -15 13 vhcurveto
          9 195 rlineto
          33 1 32 63 60 hhcurveto
          30 30 -41 -60 hvcurveto
          hintmask 0001011001010000
          -68 -14 -60 -69 vvcurveto
          -34 21 -3 33 -3 vhcurveto
          hintmask 0000111001001000
          8 36 2 2 12 hvcurveto
          35 4 8 110 35 vvcurveto
          41 1 50 -10 30 vhcurveto
          34 57 34 28 2 vhcurveto
          34 -3 7 -24 -36 vvcurveto
          hintmask 0010011001010000
          -84 -19 -85 -82 vvcurveto
          -31 64 -1 28 vhcurveto
          hintmask 0000111001001000
          25 1 6 36 hhcurveto
          25 27 2 21 34 -38 -15 -11 19 hvcurveto
          -11 20 3 28 43 vvcurveto
          hintmask 1000010101010000
          55 6 67 57 vvcurveto
          78 -98 9 -32 -53 -55 -37 -31 -40 vhcurveto
          15 -19 -40 53 -31 hhcurveto
          -43 -66 -34 -21 -62 hvcurveto
          23 0 30 -31 -30 -23 -24 -5 -28 vhcurveto
          -114 -19 rlineto
          -6 -1 -1 -6 -5 vvcurveto
          -3 6 -19 6 vhcurveto
          57 -3 9 -1 8 -33 5 -20 rlinecurve
          -4 -30 -5 -132 -17 -17 5 -24 -4 vvcurveto
          hintmask 1000011001010000
          -2 -32 -69 33 -2 -40 rrcurveto
          endchar
        </CharString>
        <CharString name="mu">
          85 -196 31 152 -22 callgsubr
          33 -21 46 -21 434 -20 22 -20 hstemhm
          114 163 -151 151 189 125 -125 164 hintmask 1001110101000000
          38 -165 rmoveto
          -31 239 vlineto
          38 50 -38 38 rlineto
          151 vlineto
          13 25 7 -10 44 -36 11 -4 rlinecurve
          -1 1 17 -2 5 34 20 28 31 hhcurveto
          5 hlineto
          2 -2 9 -21 2 -2 8 -11 27 -26 2 -2 rrcurveto
          hintmask 1010110101000000
          4 62 -9 -3 23 hvcurveto
          hintmask 1100110101000000
          1 9 -1 3 hhcurveto
          22 43 3 23 9 hvcurveto
          4 -9 8 -3 vhcurveto
          -6 2 -51 -5 -6 3 -1 2 -9 44 -2 18 -2 8 -8 88 -3 30 rrcurveto
          7 vlineto
          hintmask 1001110100100000
          20 39 -17 20 vvcurveto
          hintmask 1001110101000000
          27 -24 -11 -15 vhcurveto
          160 vlineto
          14 5 16 8 8 12 -13 13 rcurveline
          -138 hlineto
          -2 -18 -8 -5 -5 hvcurveto
          -4 -2 -9 -8 -2 vvcurveto
          -3 12 -19 1 -3 vhcurveto
          12 -61 1 -28 -56 vvcurveto
          -77 -7 -78 -69 -45 vhcurveto
          -1 -9 -1 -4 -3 -9 -50 callgsubr
          -36 21 -18 40 -9 39 rrcurveto
          -4 14 -8 44 5 4 -2 61 23 13 2 82 13 vvcurveto
          3 3 9 18 4 vvcurveto
          hintmask 1001101011000000
          4 -9 9 -3 -24 -105 -9 -4 -22 vhcurveto
          -13 -2 -29 -7 -9 -16 6 -5 27 -26 5 -6 rrcurveto
          -13 vlineto
          hintmask 1001110101000000
          -2 -45 -9 -383 -1 -45 rrcurveto
          -44 vlineto
          endchar
        </CharString>
        <CharString name="multiply">
          -188 86 -21 431 -20 hstem
          40 94 rmoveto
          -29 vlineto
          22 3 1 15 13 hvcurveto
          125 151 rlineto
          10 9 0 4 11 hhcurveto
          1 4 -28 callgsubr
          101 -100 rlineto
          0 5 -1 1 10 5 3 10 4 vhcurveto
          -7 10 -35 44 -8 9 rrcurveto
          -15 17 -36 22 30 1 1 5 1 vvcurveto
          17 19 80 97 16 22 rrcurveto
          12 14 4 17 19 vvcurveto
          -16 hlineto
          -151 -163 -126 163 rlineto
          3 -3 -17 9 -5 hhcurveto
          -6 -9 -9 -3 3 hvcurveto
          143 -195 rlineto
          158 -157 rmoveto
          -21 24 -20 18 vhcurveto
          37 -19 -9 28 vvcurveto
          -7 -16 -9 -6 hvcurveto
          endchar
        </CharString>
        <CharString name="n">
          -14 callsubr
          42 -20 hstemhm
          96 136 144 164 -164 177 -177 239 hintmask 1100100011000000
          -11 callgsubr
          hintmask 0010100010010000
          -53 callgsubr
          hintmask 0001100010010000
          -33 callgsubr
          hintmask 1100100011000000
          -1 6 -1 9 12 vvcurveto
          hintmask 1100100010100000
          -52 callgsubr
          rlineto
          hintmask 1100001111000000
          -5 2 -12 11 -16 2 rrcurveto
          -11 -24 -28 -11 -26 hhcurveto
          hintmask 1100010111000000
          -65 callgsubr
          endchar
        </CharString>
        <CharString name="nine">
          -40 26 -21 246 46 382 -20 hstem
          25 167 134 228 vstem
          175 28 rmoveto
          -17 16 -6 15 2 4 5 callsubr
          137 38 35 10 65 66 43 59 rlinecurve
          4 29 8 -12 13 33 rrcurveto
          25 64 12 56 24 vvcurveto
          98 -33 91 -73 70 vhcurveto
          35 -36 -57 12 -49 hhcurveto
          -9 -26 -2 -1 -2 hvcurveto
          -149 -50 -8 -2 -38 -44 -10 -16 rlinecurve
          -30 -49 -9 -48 -46 vvcurveto
          -7 1 -35 1 -7 vhcurveto
          -117 55 80 -4 119 hhcurveto
          -9 vlineto
          -87 -180 rlineto
          -12 -8 -7 -12 -14 vvcurveto
          19 393 rmoveto
          37 150 rlineto
          18 5 15 13 18 hhcurveto
          43 -39 14 -31 -77 vvcurveto
          -59 -2 -16 -19 -58 vhcurveto
          -7 -1 -9 -18 -1 hhcurveto
          -63 hlineto
          -12 -27 69 41 5 1 5 1 4 hvcurveto
          endchar
        </CharString>
        <CharString name="ntilde">
          -14 callsubr
          144 -56 callgsubr
          96 136 144 164 -164 177 -177 239 hintmask 1100100100010010
          -11 callgsubr
          hintmask 0010100100010010
          -53 callgsubr
          hintmask 0001100100010010
          -33 callgsubr
          hintmask 1100100100011000
          -1 6 -1 9 12 vvcurveto
          hintmask 1100100100010100
          -52 callgsubr
          -5 2 -12 11 -16 2 rlinecurve
          hintmask 1100001100010010
          -11 -24 -28 -11 -26 hhcurveto
          hintmask 1100010100010010
          -65 callgsubr
          41 564 -39 callsubr
          hintmask 1100100011010010
          -78 callsubr
          hintmask 1100100010110010
          -70 callsubr
          hintmask 1100100100010010
          -82 callgsubr
        </CharString>
        <CharString name="numbersign">
          -71 -24 -21 29 -21 204 43 -31 190 -47 47 239 -20 hstemhm
          158 43 hintmask 10101110
          158 -20 rmoveto
          -15 10 -10 15 10 14 16 10 vhcurveto
          12 -6 2 25 vvcurveto
          26 4 116 27 11 vhcurveto
          69 13 rlineto
          1 3 -1 1 hhcurveto
          -12 vlineto
          -36 -173 rlineto
          hintmask 01101110
          -2 -1 -11 -3 vvcurveto
          hintmask 10101110
          -13 2 -16 16 vhcurveto
          hintmask 01010110
          15 10 8 15 hhcurveto
          17 -15 14 17 vvcurveto
          7 vlineto
          34 161 rlineto
          159 hlineto
          1 6 19 3 8 -14 7 -5 1 hvcurveto
          -137 12 rlineto
          hintmask 10101110
          19 93 rlineto
          137 hlineto
          12 0 14 7 13 -11 13 -14 hvcurveto
          -116 hlineto
          60 207 rlineto
          1 1 7 3 vvcurveto
          9 -5 12 -11 -12 -13 -21 -11 -3 vhcurveto
          -50 -192 rlineto
          -21 -5 -24 -4 -22 -13 -14 2 -9 hhcurveto
          10 vlineto
          49 199 rlineto
          1 1 6 2 vvcurveto
          9 -1 14 -11 -9 -8 -4 -10 -2 vhcurveto
          -62 -235 rlineto
          0 -57 -8 -24 -4 vhcurveto
          -19 -3 -56 3 -34 vvcurveto
          -19 16 -4 16 4 4 0 1 4 vhcurveto
          38 -68 rlineto
          -6 -10 -12 -1 -12 -27 -23 7 -25 hhcurveto
          -9 -1 -9 -7 -30 24 -2 20 -8 hvcurveto
          15 -7 -2 -17 12 -8 rrcurveto
          -2 3 0 6 8 vvcurveto
          18 6 3 26 vhcurveto
          13 29 -2 7 hhcurveto
          -61 -17 -63 -61 vvcurveto
          93 330 rmoveto
          4 28 26 3 28 hhcurveto
          -30 -12 -58 -9 vhcurveto
          -7 -24 -34 -1 -25 hhcurveto
          31 9 30 13 28 vhcurveto
          -127 -14 rmoveto
          24 23 8 25 hhcurveto
          8 4 -4 -8 -14 -3 -62 -22 -19 -40 63 17 hvcurveto
          -22 -173 rmoveto
          -2 6 callgsubr
          -2 1 -1 2 2 0 1 2 0 0 2 -2 hvcurveto
          endchar
        </CharString>
        <CharString name="o">
          -30 callgsubr
          -96 callsubr
          endchar
        </CharString>
        <CharString name="oacute">
          -30 callgsubr
          263 -20 -96 callsubr
          -56 441 -106 callgsubr
        </CharString>
        <CharString name="ocircumflex">
          -30 callgsubr
          228 -20 -96 callsubr
          -135 376 -100 callgsubr
        </CharString>
        <CharString name="odieresis">
          -30 callgsubr
          152 95 hstemhm
          31 192 -99 99 103 106 -54 172 hintmask 11110100
          57 -70 callgsubr
          hintmask 11110010
          -98 callsubr
          hintmask 11101100
          -99 442 -107 callsubr
        </CharString>
        <CharString name="oe">
          152 -30 50 -22 -21 382 66 -2 -20 hstemhm
          355 191 -168 168 hintmask 01101000
          414 52 rmoveto
          7 -10 42 -31 10 -6 8 -3 56 -15 7 -1 rrcurveto
          -7 20 20 -2 22 hhcurveto
          7 7 0 1 8 hvcurveto
          11 1 116 18 40 vvcurveto
          16 -14 9 -14 19 callgsubr
          hintmask 10101000
          -20 -43 0 -21 -84 hhcurveto
          -29 -2 11 67 -15 hvcurveto
          7 -2 11 8 vvcurveto
          35 24 -7 21 7 vhcurveto
          47 9 56 10 23 1 13 1 21 8 8 32 -21 45 -43 114 -73 25 rrcurveto
          8 -25 -25 13 -26 -56 -60 -79 -30 hhcurveto
          hintmask 10011000
          31 -31 -50 46 -51 hhcurveto
          -100 -15 -79 -85 -45 -84 rrcurveto
          -8 -9 -5 -85 0 vvcurveto
          6 -68 31 -68 113 -30 rrcurveto
          -7 18 18 -2 18 hhcurveto
          50 34 21 26 41 hvcurveto
          19 12 10 20 25 3 rrcurveto
          -215 116 rmoveto
          2 -1 4 0 vhcurveto
          10 62 7 50 49 43 rrcurveto
          hintmask 10100100
          14 14 21 16 21 hhcurveto
          24 33 -38 -21 1 hvcurveto
          -4 -6 0 -7 -2 -5 rrcurveto
          hintmask 10101000
          -12 -37 -5 -17 -46 vvcurveto
          -15 1 -16 8 -22 vhcurveto
          -8 5 10 -24 1 hhcurveto
          -26 -66 -39 -24 -2 vhcurveto
          -66 21 -11 49 -14 62 rrcurveto
          417 207 rmoveto
          2 -41 20 -32 -44 vvcurveto
          -20 -3 -20 -6 -1 vhcurveto
          -76 -6 rlineto
          -1 8 0 10 10 vvcurveto
          59 13 73 51 4 vhcurveto
          endchar
        </CharString>
        <CharString name="ogonek">
          -436 -13 225 hstem
          18 69 rmoveto
          -37 23 -45 41 40 33 26 30 25 vhcurveto
          10 -4 3 -8 19 callgsubr
          -63 -30 rlineto
          0 -6 -1 -2 -21 -8 12 20 vhcurveto
          45 57 -2 91 vvcurveto
          12 0 10 -14 -26 -3 -55 -8 -2 vhcurveto
          -55 -62 rlineto
          -1 -1 -13 -4 vvcurveto
          endchar
        </CharString>
        <CharString name="ograve">
          -30 callgsubr
          254 -20 -96 callsubr
          165 432 -102 callgsubr
        </CharString>
        <CharString name="one">
          -109 8 -21 24 -21 706 -20 hstemhm
          166 239 hintmask 10110000
          36 9 rmoveto
          -10 1 -6 11 -6 vhcurveto
          72 hlineto
          hintmask 01110000
          112 108 3 112 hhcurveto
          hintmask 10110000
          18 17 -3 18 hhcurveto
          10 -1 13 5 14 -3 10 -16 2 hvcurveto
          -112 13 rlineto
          -9 31 284 144 hvcurveto
          29 2 104 29 vvcurveto
          7 19 -8 24 19 vvcurveto
          -27 hlineto
          -158 -122 -6 -4 -61 -23 -20 -4 rlinecurve
          -3 -12 -47 -3 -24 hhcurveto
          -10 hlineto
          -8 -1 -11 -8 -9 vvcurveto
          -23 21 -4 19 vhcurveto
          46 26 8 37 hhcurveto
          13 -43 -20 -77 2 -43 rrcurveto
          5 -87 -11 -121 -86 vvcurveto
          -3 -6 -69 -9 -37 hhcurveto
          -11 -5 -1 -7 -10 vvcurveto
          endchar
        </CharString>
        <CharString name="onehalf">
          185 -10 -21 24 26 -4 -21 327 51 317 -20 hstemhm
          652 137 hintmask 11011100
          474 32 rmoveto
          12 -1 52 -9 12 -3 rrcurveto
          hintmask 10111100
          50 -25 rlineto
          hintmask 11011100
          1 22 -1 8 hhcurveto
          50 40 24 40 30 hvcurveto
          0 1 5 1 vvcurveto
          9 -4 5 -10 5 vhcurveto
          -17 -13 -53 -46 -22 hhcurveto
          -8 -27 9 4 -3 hvcurveto
          -1 -2 14 5 4 2 13 1 2 hvcurveto
          3 4 43 29 4 4 17 16 71 70 13 15 rrcurveto
          13 14 13 38 17 vvcurveto
          59 -54 36 -53 -41 -45 -13 -25 -34 vhcurveto
          -12 -9 -35 -36 -4 -6 rrcurveto
          -3 -7 -9 -53 -15 vvcurveto
          -12 6 -15 13 0 callsubr
          vhcurveto
          4 13 26 62 8 13 rrcurveto
          16 9 35 34 25 hhcurveto
          22 -1 -23 -13 -29 -7 -39 -20 -21 hvcurveto
          -16 -18 -80 -80 -18 -16 rrcurveto
          -16 -15 -22 5 -27 -3 1 -8 -2 vvcurveto
          -441 295 rmoveto
          -10 9 -9 11 vhcurveto
          6 hlineto
          6 2 51 10 6 1 100 13 rcurveline
          43 3 46 -6 37 28 -1 3 -9 8 -2 1 -8 3 -35 9 -7 1 -3 12 -9 52 -1 11 rrcurveto
          -3 28 -9 133 28 vvcurveto
          -5 13 -8 17 -13 8 -5 -6 -27 -17 -6 -2 -4 -2 -42 -8 -4 -3 -5 -4 -9 -27 2 -7 -14 -9 -61 -44 -14 -10 -12 -12 rcurveline
          -14 4 10 0 11 27 19 24 27 hhcurveto
          -12 3 -50 -12 vvcurveto
          -13 -100 rlineto
          -24 -17 -65 3 -30 vvcurveto
          215 -232 rmoveto
          -3 -8 -18 -35 -5 -7 -3 -7 -31 -51 -3 -6 rrcurveto
          -1 -2 -2 -8 -2 vvcurveto
          15 hlineto
          76 76 238 414 5 3 18 18 2 5 rlinecurve
          42 51 97 123 2 vvcurveto
          28 vlineto
          -2 -9 -2 -1 -2 hvcurveto
          -12 -8 -35 -26 -3 -4 rrcurveto
          endchar
        </CharString>
        <CharString name="onequarter">
          198 57 -22 callgsubr
          642 -20 32 -20 hstemhm
          hintmask 10100000
          472 62 rmoveto
          -26 vlineto
          hintmask 01100000
          12 53 1 11 hhcurveto
          38 2 132 9 19 2 rrcurveto
          19 2 47 4 31 vvcurveto
          -117 hlineto
          -2 -9 18 8 -2 hvcurveto
          18 vlineto
          78 45 -15 56 32 vhcurveto
          -38 callgsubr
          7 -4 13 -9 -3 -20 -13 -1 -2 vhcurveto
          -2 -14 -1 -5 hhcurveto
          -4 -13 1 0 hvcurveto
          -4 3 -10 18 1 5 rrcurveto
          13 74 3 71 76 vvcurveto
          -4 -20 -6 -1 -5 hvcurveto
          -11 -7 -44 -35 -7 -8 -24 -30 -107 -140 -20 -32 -6 -2 -27 -18 -5 -5 -1 -5 rcurveline
          -9 6 -17 8 vhcurveto
          126 -83 hlineto
          -1 -18 -9 -8 -2 vhcurveto
          -490 277 rmoveto
          12 -25 rlineto
          -1 1 18 0 6 hhcurveto
          9 26 0 1 4 hvcurveto
          87 12 4 1 30 -2 4 1 rlinecurve
          19 3 44 9 1 vvcurveto
          25 -55 vlineto
          102 17 91 -25 96 vhcurveto
          11 -2 -8 2 -9 hhcurveto
          -33 -7 -66 -9 -29 hvcurveto
          -1 -3 -20 -6 callgsubr
          -3 -2 -9 -21 -2 vvcurveto
          -13 -13 -12 -9 -52 -35 -12 -7 rlinecurve
          -28 vlineto
          33 22 25 33 hhcurveto
          -1 1 -7 -1 vvcurveto
          -13 -126 -20 -11 -23 -8 -20 -6 rlinecurve
          200 -277 rmoveto
          -11 0 -10 14 -4 vhcurveto
          8 20 44 88 10 18 93 155 101 153 108 145 6 8 17 25 2 4 rrcurveto
          -38 callgsubr
          hintmask 10010000
          9 -3 6 -10 4 vhcurveto
          -50 -50 -9 -9 -203 -317 -78 -127 rlinecurve
          -9 -13 -34 -71 -7 -17 rrcurveto
          0 -1 -8 -4 vvcurveto
          328 252 rmoveto
          -63 vlineto
          -2 -14 -9 -35 -1 -2 rrcurveto
          -1 -2 -22 -3 -8 hhcurveto
          -5 -22 3 1 -5 hvcurveto
          2 4 8 18 3 3 8 13 35 53 8 10 1 2 9 10 2 1 rrcurveto
          endchar
        </CharString>
        <CharString name="onesuperior">
          -300 376 -21 319 -20 hstemhm
          52 105 -38 38 50 38 hintmask 11011000
          119 572 rmoveto
          -151 vlineto
          -4 -18 -17 -7 -4 vhcurveto
          hintmask 11101000
          -21 -11 -21 29 -59 vvcurveto
          70 80 5 11 68 hvcurveto
          7 1 27 8 4 3 rrcurveto
          6 vlineto
          31 -50 -9 -13 -3 vhcurveto
          -3 20 -8 87 -2 19 rrcurveto
          13 vlineto
          34 13 33 34 vvcurveto
          31 -26 -5 -24 vhcurveto
          hintmask 11011000
          -27 -33 0 -27 -16 hvcurveto
          -25 -50 -9 -14 -44 -62 -10 -12 rlinecurve
          -18 vlineto
          49 7 57 24 32 hvcurveto
          88 75 rmoveto
          -226 vlineto
          -2 -9 -10 -4 -1 vhcurveto
          -1 -5 -31 -3 -7 hhcurveto
          26 5 128 1 27 vhcurveto
          1 11 8 35 3 4 5 5 26 9 7 -2 rrcurveto
          endchar
        </CharString>
        <CharString name="ordfeminine">
          -139 249 33 74 44 88 183 -9 -7 callsubr
          222 238 hintmask 11100100
          71 263 rmoveto
          -5 0 -5 7 -2 vhcurveto
          -1 12 54 -1 12 hhcurveto
          74 44 2 19 117 hvcurveto
          21 23 9 22 13 -2 5 -18 hvcurveto
          -8 -1 -65 -16 -8 -1 -72 -12 -22 -2 -143 -5 rrcurveto
          -13 -1 -13 -2 -16 vvcurveto
          -19 185 rmoveto
          -13 0 -23 7 -11 vhcurveto
          -25 15 33 -20 30 hhcurveto
          25 26 11 14 21 hvcurveto
          6 8 17 21 4 hhcurveto
          2 34 -36 -9 10 hvcurveto
          -6 7 8 -2 8 hhcurveto
          26 69 12 14 52 hvcurveto
          5 2 1 7 7 vvcurveto
          56 -41 -36 -22 28 vhcurveto
          -24 30 -1 64 23 vvcurveto
          26 -17 21 -46 42 vhcurveto
          17 -19 -19 3 -31 hhcurveto
          hintmask 11010100
          -52 2 -9 -25 hhcurveto
          hintmask 11001100
          -11 -17 1 -3 hhcurveto
          -7 -37 -7 -5 -15 hhcurveto
          -32 -3 -47 -20 -18 11 -15 21 hvcurveto
          19 6 17 22 14 9 24 17 31 14 13 1 rrcurveto
          9 -5 10 -17 -3 vvcurveto
          -6 -50 -35 -4 -45 -4 -26 -24 rlinecurve
          -44 -43 rlineto
          -4 -1 -15 -3 vvcurveto
          45 -10 rmoveto
          hintmask 11100100
          37 62 13 28 26 9 -8 -17 -22 -63 -41 -21 -20 -21 17 21 vhcurveto
          endchar
        </CharString>
        <CharString name="ordmasculine">
          -152 211 41 -27 -22 callgsubr
          99 75 227 63 hstemhm
          32 156 138 120 hintmask 10011110
          45 405 rmoveto
          35 -46 56 -47 34 -7 rrcurveto
          24 20 -1 17 hhcurveto
          93 122 50 114 69 -51 56 -50 44 hvcurveto
          31 -39 -83 1 -4 hhcurveto
          -54 -133 -82 -117 -25 0 -19 13 -21 hvcurveto
          143 100 rmoveto
          39 33 62 41 60 4 -98 -34 vhcurveto
          -29 -4 -17 -66 -41 hhcurveto
          -40 -36 94 32 hvcurveto
          -99 -284 rmoveto
          hintmask 01011110
          -15 10 -2 12 vhcurveto
          hintmask 00111110
          5 22 1 7 hhcurveto
          231 13 rlineto
          9 30 5 16 22 -23 1 -16 hvcurveto
          -256 -19 rlineto
          -19 -2 -12 -3 -17 vvcurveto
          endchar
        </CharString>
        <CharString name="oslash">
          -52 -79 -21 57 63 -17 -21 395 60 1 -20 hstemhm
          31 200 144 175 hintmask 11010110
          57 82 rmoveto
          17 -22 17 -19 18 -15 rrcurveto
          -46 -51 -43 -51 -11 vvcurveto
          -8 14 -5 18 23 51 46 41 41 vhcurveto
          -20 40 43 -10 50 hhcurveto
          hintmask 10110110
          20 3 92 18 20 4 rrcurveto
          17 33 43 0 hvcurveto
          19 21 26 25 11 11 rrcurveto
          12 17 0 26 22 vvcurveto
          92 -10 38 -53 60 vhcurveto
          39 46 28 35 7 vvcurveto
          6 -22 6 -15 -22 -33 -21 -26 -32 vhcurveto
          -13 8 -17 9 -25 13 rrcurveto
          hintmask 11001110
          6 -12 -2 12 -17 hhcurveto
          -17 -17 -27 3 -25 -4 -58 -11 -49 -19 -49 -33 -38 -26 -9 -9 -35 -71 rrcurveto
          -6 -14 0 -8 -11 vvcurveto
          -49 1 -44 25 -43 vhcurveto
          174 96 rmoveto
          hintmask 11010110
          72 8 127 93 11 12 -22 -26 8 vhcurveto
          -21 -24 -91 -99 6 -11 -26 -34 rlinecurve
          144 50 rmoveto
          -3 -53 -7 -23 -8 -48 rrcurveto
          -44 -7 -17 -23 -49 hhcurveto
          -21 -13 19 28 -8 hvcurveto
          36 38 47 53 50 53 rrcurveto
          endchar
        </CharString>
        <CharString name="otilde">
          -30 callgsubr
          92 -56 callgsubr
          45 192 155 172 hintmask 11100011
          71 -99 callsubr
          -212 364 -68 callgsubr
        </CharString>
        <CharString name="p">
          -38 -252 -21 295 -21 25 31 376 -20 hstemhm
          17 213 -213 245 -167 135 -135 151 181 135 hintmask 1111010010000000
          16 -257 rmoveto
          -13 18 -3 21 20 41 1 9 126 vhcurveto
          12 8 11 10 19 -14 8 -22 hvcurveto
          9 -4 45 10 vvcurveto
          52 6 0 125 5 39 46 -25 28 hhcurveto
          18 100 40 41 35 hvcurveto
          17 20 46 74 31 vvcurveto
          130 -23 42 -102 47 vhcurveto
          7 -16 -11 0 -32 hhcurveto
          -48 -32 -14 -37 -31 hvcurveto
          hintmask 1111000110000000
          -8 -10 -1 -10 -12 -5 rrcurveto
          56 -34 vlineto
          hintmask 1111100010000000
          -15 -24 -180 -44 -13 vvcurveto
          -32 44 0 13 -18 vhcurveto
          hintmask 1111001010000000
          21 -29 0 -48 -44 vvcurveto
          -36 vlineto
          -134 -1 -65 -28 -121 vhcurveto
          -6 -37 -44 19 -44 vvcurveto
          220 339 rmoveto
          0 1 2 1 10 -7 -8 25 vvcurveto
          99 38 130 81 41 vhcurveto
          66 -34 12 -24 -97 vvcurveto
          -78 -17 -92 -61 -35 -45 9 16 -33 vhcurveto
          endchar
        </CharString>
        <CharString name="paragraph">
          63 -1 38 -16 -21 612 65 hstemhm
          321 245 hintmask 01110000
          207 19 rmoveto
          -9 3 -5 10 -5 vhcurveto
          hintmask 10110000
          18 84 -1 17 hhcurveto
          hintmask 01110000
          32 83 1 5 hhcurveto
          22 1 107 9 22 2 rrcurveto
          10 6 3 4 9 vvcurveto
          22 -40 8 -11 2 vhcurveto
          -12 424 rlineto
          -2 42 -11 42 41 vvcurveto
          117 hlineto
          16 -20 17 -9 5 vhcurveto
          15 -69 -51 12 -64 hhcurveto
          -8 -21 -2 0 hvcurveto
          -33 -6 -141 -35 -28 -9 rrcurveto
          -96 -30 -94 -78 -106 vvcurveto
          -156 176 -9 115 -11 vhcurveto
          hintmask 10110000
          -198 -101 vlineto
          -10 -3 -11 -7 hvcurveto
          endchar
        </CharString>
        <CharString name="parenleft">
          15 callsubr
          24 158 vstem
          398 28 rmoveto
          43 -43 -61 -82 114 vhcurveto
          -88 122 -3 62 29 vvcurveto
          113 2 132 120 63 vhcurveto
          31 16 38 0 21 vvcurveto
          8 -4 6 -14 -233 -98 -239 -115 -153 186 -189 129 23 36 3 25 vhcurveto
          endchar
        </CharString>
        <CharString name="parenright">
          15 callsubr
          218 158 vstem
          2 28 rmoveto
          -25 36 -3 23 129 186 189 153 115 -98 239 -233 -14 -4 -6 -8 -21 38 0 31 -16 vhcurveto
          120 -63 2 -132 -113 vvcurveto
          -29 -3 -62 -88 -122 vhcurveto
          -82 -114 -43 61 -43 vvcurveto
          endchar
        </CharString>
        <CharString name="percent">
          159 -62 38 26 9 callgsubr
          33 118 39 105 159 112 94 101 hintmask 1101111110000000
          454 120 rmoveto
          -75 58 -26 callsubr
          -58 -89 -78 vhcurveto
          -420 252 rmoveto
          -45 23 45 -55 54 hhcurveto
          30 44 18 27 15 9 callsubr
          30 -72 82 -44 -17 -38 -1 callsubr
          -7 vvcurveto
          55 -415 rmoveto
          -9 10 -10 9 vhcurveto
          174 hlineto
          hintmask 1011111110000000
          26 9 24 21 hvcurveto
          -26 -21 -7 -25 hhcurveto
          -7 -13 14 callgsubr
          328 533 19 19 rlineto
          1 43 8 4 19 hvcurveto
          14 2 29 0 23 vvcurveto
          11 -13 8 -10 vhcurveto
          -2 hlineto
          -50 -7 rlineto
          -11 -6 7 -8 -6 -18 -13 -13 -43 callgsubr
          -323 -540 -12 18 callsubr
          -7 1 callgsubr
          46 -10 callgsubr
          -4 hhcurveto
          -6 hlineto
          -4 -22 56 24 -5 hvcurveto
          1 -1 22 8 vvcurveto
          -415 310 rmoveto
          29 -2 71 34 vhcurveto
          5 16 callgsubr
          -30 17 callgsubr
          endchar
        </CharString>
        <CharString name="period">
          -418 -23 119 hstem
          40 131 vstem
          -27 callgsubr
          endchar
        </CharString>
        <CharString name="periodcentered">
          -408 236 118 hstem
          46 131 vstem
          46 291 rmoveto
          -32 38 -23 29 37 27 25 37 30 -18 26 -32 -35 -46 -25 -38 vhcurveto
          endchar
        </CharString>
        <CharString name="perthousand">
          489 -62 38 14 -21 33 9 callgsubr
          36 118 40 104 160 112 93 101 67 118 39 105 hintmask 1010111111110000
          458 120 rmoveto
          -75 57 -26 callsubr
          -57 -89 -78 vhcurveto
          -421 252 rmoveto
          -45 24 44 -55 55 hhcurveto
          29 45 18 27 14 9 callsubr
          30 -71 82 -44 -17 -38 -4 -9 -17 vhcurveto
          -52 -47 -23 -51 -69 -7 1 -30 -7 vvcurveto
          795 -303 rmoveto
          hintmask 0100111111110000
          -46 23 45 -54 54 hhcurveto
          30 44 18 26 15 9 callsubr
          31 -72 81 -43 -17 -39 -1 callsubr
          -6 vvcurveto
          -739 -112 rmoveto
          hintmask 1001111111110000
          -9 10 -10 8 vhcurveto
          175 hlineto
          25 9 24 21 hvcurveto
          -25 -22 -7 -25 hhcurveto
          -6 -14 14 callgsubr
          329 533 19 19 rlineto
          1 42 8 4 19 hvcurveto
          14 2 30 -5 28 vvcurveto
          13 -16 6 -10 vhcurveto
          -49 -7 rlineto
          -12 -6 7 -7 -6 -18 -13 -14 -43 callgsubr
          -322 -540 -13 18 callsubr
          -6 1 callgsubr
          45 -10 callgsubr
          -3 hhcurveto
          -6 hlineto
          -5 -21 56 24 -6 hvcurveto
          -416 341 rmoveto
          29 -1 71 33 vhcurveto
          6 16 callgsubr
          -31 17 callgsubr
          795 -303 rmoveto
          28 -2 72 34 vhcurveto
          5 -14 2 -18 -17 vvcurveto
          -70 -2 -41 -30 -52 vhcurveto
          -5 47 -2 23 42 vvcurveto
          endchar
        </CharString>
        <CharString name="plus">
          -175 -57 243 168 -20 hstemhm
          227 50 vstemhm
          227 123 rmoveto
          -69 -1 -111 34 12 5 4 11 vhcurveto
          42 -8 41 43 vvcurveto
          13 1 32 0 vhcurveto
          155 25 rlineto
          2 5 16 0 13 -16 3 -19 hvcurveto
          -40 -38 -7 -39 hhcurveto
          hintmask 11100000
          -6 -10 0 7 hvcurveto
          160 vlineto
          8 -9 0 -3 -16 -2 -19 -13 -1 vhcurveto
          -2 -21 -4 -100 -22 vvcurveto
          -7 -6 -173 -25 rlineto
          -12 -2 -8 -12 -11 vvcurveto
          -11 8 -7 12 -6 vhcurveto
          22 4 109 18 24 2 rrcurveto
          0 9 1 3 vhcurveto
          2 9 -1 2 hhcurveto
          endchar
        </CharString>
        <CharString name="plusminus">
          -201 55 26 -4 -21 390 -20 146 -20 hstemhm
          hintmask 01110000
          196 271 rmoveto
          12 -14 4 1 8 9 1 4 rlinecurve
          1 4 -2 40 1 6 1 11 8 53 3 11 36 16 58 7 32 2 rrcurveto
          25 -113 vlineto
          -2 -9 44 19 -2 hvcurveto
          -1 10 -2 43 10 vvcurveto
          -22 hlineto
          -2 -9 -53 -23 -1 hvcurveto
          -1 -9 0 -44 1 -9 -126 -38 rcurveline
          -28 vlineto
          5 27 2 1 5 hvcurveto
          6 40 12 5 hhcurveto
          1 5 27 -4 6 hhcurveto
          -140 -305 rmoveto
          -9 4 -4 10 -6 vhcurveto
          hintmask 10110000
          13 62 -1 13 hhcurveto
          hintmask 01110000
          22 62 1 4 hhcurveto
          10 1 62 9 16 3 rrcurveto
          hintmask 10110000
          10 2 27 8 1 2 rrcurveto
          -13 callsubr
          14 4 vvcurveto
          4 -2 13 -1 3 vhcurveto
          -17 -71 -95 -22 -74 hhcurveto
          -12 hlineto
          1 -5 -40 12 -5 hhcurveto
          -10 -4 -12 -7 hvcurveto
          endchar
        </CharString>
        <CharString name="q">
          30 -237 -21 252 51 326 55 56 -20 hstemhm
          32 151 212 156 -156 245 -238 149 hintmask 11111010
          314 -236 rmoveto
          -17 15 -5 11 vhcurveto
          17 11 6 15 hhcurveto
          13 73 62 15 69 hhcurveto
          15 16 -1 -1 15 hvcurveto
          6 1 1 8 4 vvcurveto
          51 -43 -34 -15 33 vhcurveto
          hintmask 11111100
          -28 62 -3 97 67 vvcurveto
          4 41 12 188 4 40 8 41 15 31 33 28 rrcurveto
          12 4 8 7 14 vvcurveto
          16 -8 9 -16 -65 -46 -7 -24 -73 vhcurveto
          -17 -6 -33 8 -33 vvcurveto
          1 -3 5 -26 -3 vvcurveto
          -6 vlineto
          -14 6 -29 16 3 vvcurveto
          15 -31 -36 4 -34 hhcurveto
          -92 -66 -56 -83 -35 hvcurveto
          -14 -33 -12 -33 -35 vvcurveto
          -117 83 -75 117 31 74 11 58 58 vhcurveto
          hintmask 11111001
          6 -3 1 -6 -5 vvcurveto
          hintmask 11111100
          -47 -7 -39 -76 vvcurveto
          -25 0 -30 -6 -27 vhcurveto
          -34 -26 -18 34 -23 -45 rrcurveto
          -37 595 rmoveto
          8 12 1 0 16 hhcurveto
          62 37 -50 -69 -91 -54 -116 -105 -59 -4 65 42 94 31 75 63 42 hvcurveto
          endchar
        </CharString>
        <CharString name="question">
          -107 -38 42 -42 150 253 43 274 44 hstemhm
          34 37 75 143 -105 56 13 36 39 167 hintmask 1011110010000000
          146 187 rmoveto
          -15 9 -18 19 vhcurveto
          52 49 7 51 hhcurveto
          136 248 rlineto
          18 32 15 82 24 vvcurveto
          118 -140 61 -103 -121 -97 -123 -114 -67 24 -57 79 vhcurveto
          hintmask 1011101110000000
          47 56 24 57 2 -1 5 0 hvcurveto
          -14 34 -12 38 -17 33 rrcurveto
          -2 -8 -6 callgsubr
          -14 -5 -4 -16 hvcurveto
          6 -14 13 -35 0 vvcurveto
          -34 -5 -48 -43 -27 -29 8 30 -8 vhcurveto
          6 -1 26 5 vvcurveto
          83 75 116 90 27 16 -34 -16 23 vhcurveto
          19 -42 7 -22 -40 vvcurveto
          -7 -1 -17 -1 -2 vhcurveto
          -55 -161 rlineto
          hintmask 0111110010000000
          -125 -143 rlineto
          -161 vmoveto
          -35 12 -40 44 49 38 28 48 40 -33 34 -42 -50 -18 -33 -42 vhcurveto
          37 -12 rmoveto
          hintmask 1011101110000000
          2 10 callsubr
          37 38 rlineto
          0 3 1 3 19 7 -13 -18 -26 -25 -8 -23 -22 0 11 10 vhcurveto
          endchar
        </CharString>
        <CharString name="questiondown">
          -107 -55 43 274 43 254 149 hstemhm
          32 167 38 144 -94 56 112 38 hintmask 11111010
          381 483 rmoveto
          15 -10 18 -18 vhcurveto
          -52 -49 -6 -51 hhcurveto
          -137 -248 rlineto
          -18 -33 -14 -82 -24 vvcurveto
          -118 139 -60 104 121 97 123 113 67 -24 57 -79 vhcurveto
          hintmask 11110110
          -47 -56 -24 -57 hvcurveto
          -6 vlineto
          15 -34 11 -38 17 -34 rrcurveto
          13 hlineto
          14 5 3 16 hvcurveto
          -6 15 -13 34 0 vvcurveto
          34 5 48 43 27 28 -8 -30 8 vhcurveto
          -5 1 -26 -6 vvcurveto
          -83 -74 -116 -90 -28 -15 34 16 -23 vhcurveto
          -20 42 -6 23 40 vvcurveto
          6 1 18 1 2 vhcurveto
          55 160 124 143 rlineto
          hintmask 11111010
          1 1 7 3 vvcurveto
          151 vmoveto
          35 -12 39 -44 -49 -39 -28 -48 -39 34 -34 41 50 19 33 42 vhcurveto
          endchar
        </CharString>
        <CharString name="quotedbl">
          -151 -22 callsubr
          73 168 -142 142 hintmask 01111010
          47 453 rmoveto
          9 -56 callsubr
          hintmask 01110110
          -10 callsubr
          -13 vhcurveto
          242 hmoveto
          8 -56 callsubr
          hintmask 10111001
          -10 callsubr
          -12 vhcurveto
          endchar
        </CharString>
        <CharString name="quotedblbase">
          -179 22 callgsubr
          hstem
          59 113 128 -80 callgsubr
          241 hmoveto
          -83 callgsubr
          6 -5 -1 callgsubr
        </CharString>
        <CharString name="quotedblleft">
          -214 4 callsubr
          17 114 101 113 -57 callsubr
          214 hmoveto
          -36 callgsubr
          vvcurveto
          1 3 15 40 5 vvcurveto
          33 -37 21 -28 -44 -21 -30 -45 -13 1 -15 7 -8 vhcurveto
          -31 26 60 -63 48 hhcurveto
          endchar
        </CharString>
        <CharString name="quotedblright">
          -215 4 callsubr
          75 114 100 -60 callgsubr
          214 hmoveto
          48 60 63 31 -3 callgsubr
          -36 -21 -33 -5 15 -40 1 -3 vhcurveto
          -12 vlineto
          -52 -50 -2 -27 vvcurveto
          -5 5 -5 -1 callgsubr
        </CharString>
        <CharString name="quoteleft">
          -428 4 callsubr
          17 114 -57 callsubr
          endchar
        </CharString>
        <CharString name="quoteright">
          -429 4 callsubr
          75 -60 callgsubr
          endchar
        </CharString>
        <CharString name="quotesinglbase">
          -67 callgsubr
        </CharString>
        <CharString name="quotesingle">
          -392 -22 callsubr
          hintmask 01111000
          47 453 rmoveto
          9 -19 13 -25 21 -6 rrcurveto
          hintmask 10111000
          -71 callgsubr
          hintmask 10110100
          -10 callsubr
          -13 vhcurveto
          endchar
        </CharString>
        <CharString name="r">
          -101 6 -21 27 -22 callgsubr
          220 237 -19 -20 hstemhm
          19 239 -146 146 -146 199 hintmask 10010100
          28 23 rmoveto
          -34 24 -4 30 vhcurveto
          hintmask 00110100
          62 60 7 63 hhcurveto
          hintmask 01010001
          10 11 -1 11 hhcurveto
          9 5 3 5 9 32 -52 -21 34 vvcurveto
          hintmask 10010100
          29 -1 18 18 vvcurveto
          71 9 74 83 78 vhcurveto
          -47 20 4 -84 55 hhcurveto
          68 23 58 47 62 -47 70 -67 -53 -41 -96 -30 -34 hvcurveto
          8 23 3 27 26 vvcurveto
          hintmask 10001100
          21 -7 10 -16 -4 -176 -28 -4 -60 vhcurveto
          -6 -2 -1 -4 -5 vvcurveto
          -54 73 39 11 -43 vhcurveto
          hintmask 10010010
          2 -7 7 -73 -70 vvcurveto
          -58 -5 -56 -17 -18 vhcurveto
          -12 -13 -50 10 -21 vvcurveto
          endchar
        </CharString>
        <CharString name="registered">
          93 72 27 137 152 127 64 36 -20 hstemhm
          74 76 290 27 -27 239 hintmask 11111010
          48 329 rmoveto
          -16 0 -35 1 -3 vhcurveto
          10 -64 112 -78 54 -21 101 -38 rcurveline
          -1 3 38 -1 13 hhcurveto
          15 41 1 1 3 hvcurveto
          9 1 53 18 13 6 rrcurveto
          103 47 62 51 115 vvcurveto
          100 -40 74 -87 53 vhcurveto
          -21 13 -79 44 -13 7 rrcurveto
          3 -8 -35 9 -8 hhcurveto
          -13 -62 -9 -3 -12 hvcurveto
          -28 -9 -87 -35 -11 -7 -8 -5 -70 -70 -23 -25 -1 -2 -9 -18 -2 -6 rrcurveto
          -4 -8 -9 -27 -3 vvcurveto
          -1 -2 0 -43 -14 vvcurveto
          26 3 rmoveto
          80 55 55 58 47 vhcurveto
          33 42 130 32 44 hhcurveto
          6 16 -1 -1 2 hvcurveto
          3 -1 35 -17 12 -7 71 -41 85 -46 20 -89 4 -19 9 -53 -1 -3 rrcurveto
          -3 -17 -44 -8 -17 vhcurveto
          -75 -33 -130 -63 -80 hhcurveto
          -77 -50 25 38 -70 hvcurveto
          -7 4 -27 18 -4 3 -18 16 -53 53 -4 6 rrcurveto
          -11 17 -2 32 21 vvcurveto
          101 -82 rmoveto
          12 -13 rlineto
          4 46 -1 16 23 69 1 6 hhcurveto
          19 2 44 8 3 vvcurveto
          12 vlineto
          -8 1 -35 9 -8 3 rrcurveto
          -26 11 19 31 18 vvcurveto
          6 21 4 -1 5 hvcurveto
          -12 61 -5 -89 46 hhcurveto
          35 10 41 26 hvcurveto
          -13 -27 1 -17 -6 hvcurveto
          -18 11 5 8 -12 19 -5 8 -26 35 -6 7 8 3 26 26 3 8 rrcurveto
          hintmask 11111100
          1 2 2 22 7 vvcurveto
          43 -29 28 -43 vhcurveto
          -5 -12 -1 -2 hhcurveto
          -11 -2 -69 -17 -20 -6 -16 -4 -53 -18 -7 -3 rrcurveto
          -14 -6 -36 -21 -24 vvcurveto
          -3 9 -9 3 vhcurveto
          18 13 24 16 21 9 rrcurveto
          -164 vlineto
          -13 -2 -29 -6 -8 -17 rrcurveto
          175 162 rmoveto
          4 1 10 0 vhcurveto
          3 15 8 34 1 2 rrcurveto
          1 19 2 7 hhcurveto
          26 24 2 -30 -31 -47 -32 -30 -13 0 17 7 hvcurveto
          endchar
        </CharString>
        <CharString name="ring">
          -398 716 45 93 44 hstem
          24 49 95 43 vstem
          24 820 -68 callsubr
        </CharString>
        <CharString name="s">
          -21 callgsubr
          hstemhm
          23 175 -141 141 132 123 hintmask 0011001010000000
          45 -4 rmoveto
          hintmask 1000100110000000
          -37 callgsubr
          hintmask 1001001010000000
          -12 callgsubr
          hintmask 1000010110000000
          -35 callsubr
          hintmask 0101001010000000
          -20 callsubr
          hintmask 0011001010000000
          -13 8 -13 14 vhcurveto
          endchar
        </CharString>
        <CharString name="scaron">
          -21 callgsubr
          300 -20 44 -20 hstemhm
          23 175 -141 141 132 123 hintmask 0011001110100000
          45 -4 rmoveto
          hintmask 1000101101100000
          -37 callgsubr
          hintmask 1001001110100000
          -12 callgsubr
          hintmask 1000011101100000
          -35 callsubr
          hintmask 0101001110100000
          -20 callsubr
          hintmask 0011001110100000
          -13 8 -13 14 vhcurveto
          19 711 -91 callgsubr
        </CharString>
        <CharString name="section">
          -7 8 38 380 238 -37 37 hstemhm
          386 186 hintmask 10110000
          95 72 rmoveto
          8 -9 44 -35 10 -7 rrcurveto
          -15 24 22 2 26 hhcurveto
          63 70 5 8 59 hvcurveto
          4 1 18 9 3 3 12 11 53 52 10 13 rrcurveto
          4 2 22 5 vvcurveto
          24 3 14 -17 18 vhcurveto
          -6 9 -36 35 -8 7 rrcurveto
          52 62 61 -2 91 vvcurveto
          25 vlineto
          -46 61 -48 34 -69 31 -39 17 -120 -2 -18 35 11 5 53 18 12 2 rrcurveto
          1 2 28 1 12 hhcurveto
          39 9 2 -17 36 hvcurveto
          15 -7 71 -34 14 -9 22 callsubr
          9 2 3 3 9 9 45 1 8 rrcurveto
          10 -6 -5 5 -9 hhcurveto
          -12 -5 -12 -15 -2 hvcurveto
          -16 8 -79 28 -17 1 rrcurveto
          1 -2 -41 1 -15 hhcurveto
          -87 -79 -5 -97 -28 hvcurveto
          0 -1 -13 -5 vvcurveto
          -37 23 -23 28 -22 vhcurveto
          -37 -32 -39 -42 -52 vvcurveto
          -24 11 -33 15 -18 vhcurveto
          8 -10 27 -27 3 -1 150 -51 rcurveline
          8 -2 26 -26 4 -9 rrcurveto
          1 -1 2 -13 -4 vvcurveto
          -55 -83 -16 -39 vhcurveto
          -6 hlineto
          3 -21 -51 10 -4 hhcurveto
          -9 3 -26 18 -2 5 -6 11 -9 52 2 12 rrcurveto
          1 -2 -9 1 -1 hhcurveto
          -37 -57 -99 -35 hvcurveto
          30 22 17 27 17 hvcurveto
          136 293 rmoveto
          22 3 15 11 22 vhcurveto
          hintmask 11010000
          1 4 22 1 6 hhcurveto
          47 62 -24 -54 -34 -16 -17 -34 -23 -23 0 14 -20 hvcurveto
          -8 5 -26 27 -4 5 rrcurveto
          1 -1 12 4 vvcurveto
          endchar
        </CharString>
        <CharString name="semicolon">
          -374 22 callgsubr
          265 119 hstem
          70 131 vstem
          70 389 rmoveto
          -60 callsubr
          -19 -525 rmoveto
          48 60 64 30 -3 callgsubr
          -37 -21 -33 vhcurveto
          -5 16 -39 -4 -48 callgsubr
          6 -5 -1 callgsubr
        </CharString>
        <CharString name="seven">
          -14 4 46 235 47 339 -20 38 -20 hstemhm
          68 70 hintmask 11101000
          25 12 rmoveto
          -9 112 85 1 128 hhcurveto
          44 41 4 23 7 -3 12 -10 hvcurveto
          -66 hlineto
          97 204 74 19 rlineto
          4 9 14 1 3 -5 13 -2 hvcurveto
          -58 hlineto
          133 341 rlineto
          9 2 -36 17 -7 hhcurveto
          -11 -6 -10 -4 -11 hvcurveto
          -22 -59 -14 2 -61 -13 -36 -6 callgsubr
          -143 50 rlineto
          hintmask 11011000
          1 -1 -12 0 -4 hhcurveto
          -18 -13 0 -13 -14 hvcurveto
          -25 -39 -56 -53 -54 vvcurveto
          -24 12 -48 33 4 21 6 16 vhcurveto
          18 -15 14 18 3 1 10 3 vvcurveto
          6 11 30 53 8 10 rrcurveto
          17 10 2 2 15 hhcurveto
          2 8 -28 callgsubr
          157 -45 -111 -261 rlineto
          -71 hlineto
          -12 -1 -17 -8 -3 0 -19 7 hvcurveto
          56 hlineto
          -100 -217 -6 -6 rlineto
          -37 hlineto
          -42 -33 0 -32 -9 1 -3 12 -6 hvcurveto
          endchar
        </CharString>
        <CharString name="six">
          -57 -13 44 298 49 249 49 hstem
          367 178 vstem
          39 259 rmoveto
          -43 24 -79 54 -69 vhcurveto
          10 -13 39 -34 7 -2 116 -32 rcurveline
          13 hlineto
          119 124 71 126 71 -65 48 -37 38 hvcurveto
          10 -18 -80 27 -5 -15 -37 -8 -9 hhcurveto
          -6 39 14 162 rlineto
          50 6 35 6 46 hhcurveto
          57 27 -59 -47 10 hvcurveto
          -8 10 6 1 11 hhcurveto
          8 2 9 9 68 -30 26 -53 50 hvcurveto
          -49 -75 10 -29 -29 hvcurveto
          -136 -130 -78 -149 rlineto
          -8 -13 -8 -86 -20 vvcurveto
          213 -141 rmoveto
          21 198 11 13 rlineto
          49 hlineto
          14 14 -57 -85 6 hvcurveto
          -1 1 -12 -1 vvcurveto
          -1 -28 -13 -83 -7 -7 -20 -24 rcurveline
          -76 hlineto
          -1 2 0 4 3 vvcurveto
          6 3 58 -1 8 vhcurveto
          endchar
        </CharString>
        <CharString name="slash">
          -267 3 -21 687 -20 hstem
          36 -1 rmoveto
          -11 8 -6 10 16 40 89 57 23 vhcurveto
          26 65 175 428 32 vvcurveto
          8 -13 8 -8 -26 -50 -115 -55 -22 vhcurveto
          -62 -154 19 13 -32 -79 rrcurveto
          -15 -39 -89 -215 -26 vvcurveto
          endchar
        </CharString>
        <CharString name="smileface">
          62 -7 139 101 113 64 176 hstem
          43 164 291 163 vstem
          43 290 rmoveto
          -69 8 -68 43 -58 vhcurveto
          11 -15 52 -52 13 -9 9 -7 44 -17 9 -1 rrcurveto
          -1 2 46 0 17 hhcurveto
          88 72 19 45 77 hvcurveto
          10 5 27 18 2 2 rrcurveto
          57 66 31 87 86 vvcurveto
          84 -52 64 -62 53 vhcurveto
          -25 13 rlineto
          34 -84 -60 17 -89 hhcurveto
          -15 -40 0 -1 -2 hvcurveto
          -12 -3 -53 -26 -10 -9 -5 -6 -45 -62 -13 -20 rrcurveto
          -34 -56 -17 -49 -64 vvcurveto
          164 -82 rmoveto
          13 4 12 15 21 16 -45 -6 8 vhcurveto
          -16 20 42 3 23 10 29 1 1 hhcurveto
          3 1 25 17 10 7 22 17 6 30 22 16 rrcurveto
          15 -4 -1 -10 -11 vvcurveto
          -29 -47 -72 -29 vhcurveto
          -151 hlineto
          -32 -32 48 28 hvcurveto
          214 170 rmoveto
          17 30 15 15 24 9 -11 -22 -6 -1 -12 -1 vhcurveto
          -1 -2 -26 -9 -11 -2 rrcurveto
          -12 hlineto
          -13 8 -13 8 16 vvcurveto
          -201 hmoveto
          17 29 15 16 18 1 -20 -14 -22 -10 -8 -23 vhcurveto
          -6 hlineto
          -13 8 -12 8 16 vvcurveto
          endchar
        </CharString>
        <CharString name="space">
          -394 endchar
        </CharString>
        <CharString name="sterling">
          39 -38 53 578 89 hstem
          221 35 rmoveto
          91 84 -73 91 hhcurveto
          34 47 13 42 19 hvcurveto
          7 16 27 74 6 19 rrcurveto
          13 -6 -5 6 -9 hhcurveto
          -2 -5 -2 0 hvcurveto
          -22 -47 -27 -43 -31 -36 rrcurveto
          -8 -42 -2 -10 -14 -43 2 -3 hhcurveto
          -79 36 rlineto
          -21 10 -21 12 32 4 1 14 1 vvcurveto
          5 20 27 100 9 24 rrcurveto
          16 51 125 -38 57 vvcurveto
          -102 hlineto
          -14 19 rlineto
          1 28 74 13 31 vhcurveto
          17 44 21 33 29 32 rrcurveto
          25 23 18 -6 27 74 -36 -45 61 hhcurveto
          6 -5 32 -3 6 vhcurveto
          70 -32 -65 20 -57 hhcurveto
          -104 -65 -129 -106 -50 hvcurveto
          -3 -6 -18 -60 -6 -5 -11 -9 -56 -13 -12 5 rrcurveto
          -19 vlineto
          53 -36 rlineto
          0 -18 -75 -9 -33 vhcurveto
          -25 -7 -31 -83 -21 hhcurveto
          -2 -5 1 0 hvcurveto
          -8 5 -38 25 -8 7 rrcurveto
          -14 -7 0 -16 -16 vvcurveto
          -33 57 -37 22 vhcurveto
          39 38 18 39 hhcurveto
          endchar
        </CharString>
        <CharString name="t">
          -175 -21 70 587 -20 hstemhm
          119 175 -161 161 -161 175 -157 181 hintmask 11010000
          119 151 rmoveto
          -78 24 -94 120 36 90 3 41 30 vhcurveto
          0 -13 callsubr
          vvcurveto
          20 -18 3 -19 vhcurveto
          -13 -14 -2 -11 hhcurveto
          -28 -23 28 26 hvcurveto
          hintmask 11001000
          70 14 24 52 vvcurveto
          3 29 14 80 8 5 rrcurveto
          2 10 62 9 40 hhcurveto
          6 8 0 5 7 vvcurveto
          16 -13 4 -13 vhcurveto
          -30 -29 -8 -31 hhcurveto
          hintmask 11000100
          12 -3 46 22 38 13 78 -3 vvcurveto
          21 -2 18 -22 -42 -34 -32 -12 -37 vhcurveto
          -1 -3 -1 -3 -8 -9 1 -1 hhcurveto
          -53 -9 -54 -4 -33 vvcurveto
          -17 17 -12 14 vhcurveto
          4 14 25 2 -1 hhcurveto
          1 -8 5 -40 -9 vvcurveto
          -22 -3 -17 -3 -16 vhcurveto
          -11 -6 -83 -4 -43 -3 rrcurveto
          -9 -4 -5 -8 -9 vvcurveto
          -7 5 -16 9 vhcurveto
          123 hlineto
          hintmask 11010000
          -7 2 -33 -4 vvcurveto
          hintmask 11100000
          -4 -55 -10 -102 -2 vvcurveto
          endchar
        </CharString>
        <CharString name="thorn">
          76 -171 47 121 42 -42 58 -38 -21 534 -21 callsubr
          hintmask 1100110010000000
          75 -146 rmoveto
          -9 6 -16 -53 callsubr
          12 8 1 61 25 4 callgsubr
          52 -64 21 -11 callsubr
          17 1 7 16 callsubr
          hintmask 1100101010000000
          2 callgsubr
          -61 -58 -7 -60 14 callsubr
          -11 -15 hvcurveto
          -20 -16 -55 19 -35 vvcurveto
          -9 15 -16 10 vhcurveto
          4 35 7 5 hhcurveto
          12 hlineto
          7 -112 rlineto
          -4 -1 -22 -4 vvcurveto
          -41 -40 7 -23 callsubr
          -18 -8 -7 -5 callsubr
          hintmask 1001100110000000
          -44 callsubr
          -62 rlineto
          6 -6 1 -17 -12 vvcurveto
          hintmask 1010110010000000
          12 callsubr
          83 82 vvcurveto
          endchar
        </CharString>
        <CharString name="three">
          -48 12 43 -43 162 441 43 hstemhm
          58 42 hintmask 10110000
          41 146 rmoveto
          -107 137 -27 80 140 147 22 164 106 -73 100 -108 24 vhcurveto
          12 vlineto
          137 168 rlineto
          0 -17 callsubr
          19 -11 7 -16 vhcurveto
          -32 -31 -7 -32 -91 -87 26 -91 hhcurveto
          -21 -35 -1 -19 hvcurveto
          6 -111 rlineto
          -14 1 15 1 9 hhcurveto
          11 15 3 23 20 vvcurveto
          14 -1 12 -2 10 vhcurveto
          13 6 rlineto
          16 32 1 26 hhcurveto
          21 24 -1 -6 18 hvcurveto
          11 -65 2 -26 -55 -7 -1 -27 -7 vvcurveto
          -23 -12 -58 -13 -36 vvcurveto
          -21 6 1 21 vhcurveto
          26 15 26 26 hhcurveto
          7 -83 0 -65 -83 -19 -1 -51 -3 vvcurveto
          -6 -6 rlineto
          -1 -18 -1 -6 hhcurveto
          -43 -30 6 19 -39 hvcurveto
          hintmask 01110000
          17 -33 0 77 -45 hhcurveto
          -17 1 -15 -13 hvcurveto
          endchar
        </CharString>
        <CharString name="threequarters">
          255 5 195 -189 -21 670 -20 22 -20 30 -20 hstemhm
          189 165 hintmask 01001100
          612 144 rmoveto
          -12 5 -53 -1 -10 vhcurveto
          -8 -68 -116 61 -72 vvcurveto
          8 46 2 1 8 hvcurveto
          hintmask 10001100
          62 12 13 1 111 -2 14 1 rlinecurve
          26 2 56 8 19 28 rrcurveto
          12 -6 -3 1 -9 hhcurveto
          -8 hlineto
          -10 -2 -53 -8 -12 -3 rrcurveto
          113 vlineto
          50 13 rlineto
          11 3 29 -1 16 vvcurveto
          9 -4 4 -11 vhcurveto
          -58 hlineto
          16 -5 76 1 15 vhcurveto
          1 9 11 71 9 vvcurveto
          25 -8 62 -4 vhcurveto
          -13 hlineto
          -3 -185 -185 -78 -76 hvcurveto
          -6 -7 -26 -35 -5 -9 rrcurveto
          0 -1 -5 -2 vvcurveto
          -7 3 -11 10 vhcurveto
          -436 231 rmoveto
          -35 18 -3 28 -17 vhcurveto
          -8 12 22 -18 15 3 10 1 1 hhcurveto
          34 2 97 9 8 1 3 1 18 9 4 3 rrcurveto
          44 35 8 28 54 vvcurveto
          67 -39 -8 -38 38 vhcurveto
          0 -2 4 1 vvcurveto
          12 14 14 13 -6 vhcurveto
          75 87 rlineto
          1 1 4 2 vvcurveto
          18 -17 1 -14 vhcurveto
          -20 hlineto
          hintmask 10100100
          -1 -6 -50 -11 -7 hhcurveto
          -72 -5 -54 17 -63 -26 rrcurveto
          -2 -9 -9 -3 -2 hvcurveto
          14 2 61 0 14 -2 rrcurveto
          8 27 -9 -4 2 hvcurveto
          0 24 callgsubr
          vvcurveto
          -38 -16 -38 -35 -14 vhcurveto
          -3 -1 -32 -8 -2 -3 rrcurveto
          -9 -10 -3 -22 0 vvcurveto
          59 hlineto
          0 5 -13 -2 -6 vhcurveto
          -5 -17 -26 -79 -7 -17 rrcurveto
          -6 hlineto
          -30 -6 30 -42 hhcurveto
          158 -363 rmoveto
          -9 4 -5 10 -5 vhcurveto
          30 25 15 38 31 25 402 515 rcurveline
          hintmask 10010100
          15 20 2 21 25 vvcurveto
          -42 3 -22 -31 -16 hvcurveto
          -2 -5 -18 -25 -5 -8 -63 -83 -299 -387 -66 -83 rrcurveto
          0 -1 -5 -1 vvcurveto
          316 169 rmoveto
          10 15 53 61 13 13 rrcurveto
          18 17 44 44 1 hhcurveto
          13 hlineto
          -25 -138 -1 -4 -17 -18 -7 -3 rlinecurve
          -11 hlineto
          -30 -37 8 4 -23 hvcurveto
          endchar
        </CharString>
        <CharString name="threesuperior">
          -263 675 -20 hstemhm
          174 126 -126 165 hintmask 10100000
          47 379 rmoveto
          -1 1 -5 0 vhcurveto
          1 -2 22 -9 2 -1 6 -5 38 -42 7 -4 rrcurveto
          -18 21 20 4 27 hhcurveto
          51 36 12 27 45 hvcurveto
          4 2 9 9 1 vvcurveto
          1 2 1 22 9 vvcurveto
          62 -42 45 -48 37 vhcurveto
          0 -1 5 1 vvcurveto
          hintmask 11000000
          21 52 22 50 vvcurveto
          12 5 23 -18 4 vhcurveto
          4 -15 -62 9 -11 hhcurveto
          -10 -81 -12 -1 -9 hvcurveto
          -23 -2 -54 2 -32 vvcurveto
          -10 9 -9 10 2 5 5 callsubr
          1 3 31 11 4 hhcurveto
          2 13 61 -6 14 hhcurveto
          -83 vlineto
          -50 -25 rlineto
          -11 -8 -3 -2 -10 vvcurveto
          -11 8 -8 11 vhcurveto
          7 hlineto
          38 13 rlineto
          -7 1 -30 -7 vvcurveto
          -40 -5 -32 -21 -35 vhcurveto
          -63 63 rlineto
          -6 hlineto
          -13 -20 -3 -16 hvcurveto
          endchar
        </CharString>
        <CharString name="tilde">
          -26 679 -56 callgsubr
          hintmask 10000000
          36 704 -39 callsubr
          hintmask 01100000
          -78 callsubr
          hintmask 01010000
          -70 callsubr
          hintmask 10000000
          -82 callgsubr
        </CharString>
        <CharString name="trademark">
          19 448 -20 39 -21 216 -20 22 -20 hstemhm
          172 176 -72 72 0 31 hintmask 01101000
          367 662 rmoveto
          -8 -11 -2 -11 hvcurveto
          -203 vlineto
          hintmask 10010010
          8 23 7 8 hvcurveto
          126 vlineto
          8 -6 31 -26 6 -6 2 -2 8 -22 2 -1 rrcurveto
          -1 14 -2 5 4 14 2 -50 callgsubr
          11 5 44 35 7 10 13 -39 7 -47 6 -40 rrcurveto
          39 hlineto
          4 0 18 -1 3 vhcurveto
          -25 164 rlineto
          21 -5 -4 6 -17 hhcurveto
          hintmask 10101000
          -4 -8 -2 -1 hhcurveto
          -3 -4 -18 -42 -4 -4 -6 -9 -35 -35 -9 -6 rrcurveto
          17 -20 -52 83 -22 hhcurveto
          -220 -201 rmoveto
          12 -13 13 13 rlineto
          151 vlineto
          hintmask 01100100
          26 104 -30 54 vvcurveto
          -217 hlineto
          -10 -4 -12 -7 -7 4 -10 10 -2 hvcurveto
          9 -1 44 0 10 1 rrcurveto
          3 -4 9 -27 -6 vvcurveto
          3 -19 9 -89 1 -18 rrcurveto
          endchar
        </CharString>
        <CharString name="two">
          -32 0 30 -30 187 -167 -21 29 -21 632 38 hstemhm
          37 99 -99 175 110 193 hintmask 00011101
          50 28 rmoveto
          hintmask 00101101
          -24 9 -5 20 vhcurveto
          hintmask 00011101
          40 38 8 40 hhcurveto
          hintmask 10001101
          25 13 0 -7 26 hvcurveto
          273 hlineto
          5 6 22 callsubr
          79 2 32 rlinecurve
          hintmask 01001101
          1 9 2 51 9 vvcurveto
          -54 2 -116 -34 -6 hvcurveto
          hintmask 10001011
          -54 -52 -7 -53 hhcurveto
          -4 -98 6 8 hvcurveto
          6 vlineto
          98 53 75 83 50 99 56 168 rcurveline
          100 -63 124 -118 -127 -77 -47 -103 -74 vhcurveto
          -16 -38 -3 -12 -32 vvcurveto
          -24 14 -75 36 10 115 61 27 vhcurveto
          1 -1 4 1 vvcurveto
          hintmask 00011101
          -34 22 -41 39 44 vvcurveto
          63 129 31 50 7 8 0 -10 -55 -3 -215 -5 -167 vhcurveto
          -12 1 -7 -6 vvcurveto
          -11 -3 -4 -22 -15 vhcurveto
          -19 -14 -66 -39 -8 -4 rrcurveto
          -49 -19 -106 -15 -18 vvcurveto
          endchar
        </CharString>
        <CharString name="twosuperior">
          -251 352 26 51 -20 221 39 hstem
          177 113 vstem
          37 409 rmoveto
          -6 vlineto
          4 -6 18 -18 3 -1 3 -1 21 2 1 -1 11 -2 81 -22 9 -1 rrcurveto
          -1 2 35 0 12 hhcurveto
          38 45 -2 40 19 hvcurveto
          9 18 6 38 23 vvcurveto
          -49 14 -91 -73 hhcurveto
          -31 -18 3 9 -34 hvcurveto
          48 57 79 16 87 vvcurveto
          82 -44 37 -79 -50 -51 -18 -47 -29 vhcurveto
          -12 vlineto
          -11 0 -10 13 -4 vhcurveto
          31 27 26 32 42 hhcurveto
          32 0 -13 -30 -58 -41 -86 -61 -14 hvcurveto
          -1 -2 -20 1 -3 hhcurveto
          -10 -4 -3 -7 -9 vvcurveto
          endchar
        </CharString>
        <CharString name="u">
          11 -21 81 -72 -21 463 -51 callsubr
          hintmask 01110100
          -95 callgsubr
          hintmask 10101100
          -58 callgsubr
          hintmask 10110100
          -76 callgsubr
          hintmask 10101100
          -73 callsubr
          endchar
        </CharString>
        <CharString name="uacute">
          -88 callsubr
          -177 515 -106 callgsubr
        </CharString>
        <CharString name="ucircumflex">
          -24 callsubr
          280 -99 callgsubr
          -256 504 -100 callgsubr
        </CharString>
</ttFont>
